<?xml version="1.0" encoding="UTF-8" standalone="no"?>
<!-- Created with Inkscape (http://www.inkscape.org/) -->

<svg
   xmlns:dc="http://purl.org/dc/elements/1.1/"
   xmlns:cc="http://creativecommons.org/ns#"
   xmlns:rdf="http://www.w3.org/1999/02/22-rdf-syntax-ns#"
   xmlns:svg="http://www.w3.org/2000/svg"
   xmlns="http://www.w3.org/2000/svg"
   xmlns:sodipodi="http://sodipodi.sourceforge.net/DTD/sodipodi-0.dtd"
   xmlns:inkscape="http://www.inkscape.org/namespaces/inkscape"
   width="32.270897mm"
   height="19.909946mm"
   viewBox="0 0 114.3457 70.547053"
   id="svg3364"
   version="1.1"
   inkscape:version="0.91 r13725"
   sodipodi:docname="cenar.svg"
   inkscape:export-filename="/Users/Chivas/Google Drive/Pantry/final_cenar_logo.png"
   inkscape:export-xdpi="90"
   inkscape:export-ydpi="90">
  <defs
     id="defs3366" />
  <sodipodi:namedview
     id="base"
     pagecolor="#ffffff"
     bordercolor="#666666"
     borderopacity="1.0"
     inkscape:pageopacity="0.0"
     inkscape:pageshadow="2"
     inkscape:zoom="3.959798"
     inkscape:cx="89.405895"
     inkscape:cy="25.185803"
     inkscape:document-units="px"
     inkscape:current-layer="layer1"
     showgrid="false"
     fit-margin-top="0"
     fit-margin-left="0"
     fit-margin-right="0"
     fit-margin-bottom="0"
     inkscape:window-width="1288"
     inkscape:window-height="686"
     inkscape:window-x="0"
     inkscape:window-y="0"
     inkscape:window-maximized="0" />
  <metadata
     id="metadata3369">
    <rdf:RDF>
      <cc:Work
         rdf:about="">
        <dc:format>image/svg+xml</dc:format>
        <dc:type
           rdf:resource="http://purl.org/dc/dcmitype/StillImage" />
        <dc:title></dc:title>
      </cc:Work>
    </rdf:RDF>
  </metadata>
  <g
     inkscape:label="Cenar_text"
     inkscape:groupmode="layer"
     id="layer1"
     transform="translate(-42.857422,-173.9761)">
    <flowRoot
       xml:space="preserve"
       id="flowRoot3372"
       style="font-style:normal;font-variant:normal;font-weight:normal;font-stretch:normal;font-size:60px;line-height:125%;font-family:'Coffee House';-inkscape-font-specification:'Coffee House';letter-spacing:0px;word-spacing:0px;fill:#fad48b;fill-opacity:1;stroke:none;stroke-width:1px;stroke-linecap:butt;stroke-linejoin:miter;stroke-opacity:1"
       inkscape:export-xdpi="90"
       inkscape:export-ydpi="90"><flowRegion
         id="flowRegion3374"><rect
           id="rect3376"
           width="588.57141"
           height="391.42856"
           x="42.857143"
           y="169.50507"
           style="font-style:normal;font-variant:normal;font-weight:normal;font-stretch:normal;font-size:60px;font-family:'Coffee House';-inkscape-font-specification:'Coffee House';fill:#fad48b;fill-opacity:1" /></flowRegion><flowPara
         id="flowPara3378">Cenar</flowPara></flowRoot>  </g>
  <g
     inkscape:groupmode="layer"
     id="layer2"
     inkscape:label="swoop">
    <path
       style="opacity:1;fill:#fad48b;fill-opacity:1;stroke:#fad48b;stroke-width:0;stroke-miterlimit:4;stroke-dasharray:none;stroke-dashoffset:0;stroke-opacity:1"
       d=""
       id="path4326"
       inkscape:connector-curvature="0" />
    <g
       id="g4467"
       inkscape:export-xdpi="90"
       inkscape:export-ydpi="90">
      <path
         inkscape:connector-curvature="0"
         d="m 139.16325,218.01082 c -0.0182,2.28058 -1.41823,4.40391 -2.96673,5.98756 -0.53506,0.54721 -1.14157,1.01968 -1.71236,1.52952 -5.13897,3.79652 -11.2167,4.97793 -17.46515,5.4937 -1.60687,0.13263 -3.22013,0.17132 -4.83019,0.25698 -11.7559,0.3644 -23.489197,-0.55024 -35.197512,-1.47622 -4.921984,-0.39587 -9.853454,-0.66281 -14.786785,-0.86657 -0.868638,-0.0359 -4.496451,-0.18733 -5.816096,-0.16021 -0.72611,0.0149 -1.450453,0.0776 -2.175679,0.1164 -1.729826,0.22081 -3.242634,0.97585 -4.741469,1.81596 -0.823761,0.46173 -1.727952,0.96402 -2.425927,1.62191 -0.250854,0.23644 -0.439179,0.53147 -0.658768,0.7972 -0.178717,0.44327 -0.471927,0.77613 -0.175172,1.24663 0.274813,0.4357 1.035975,0.69123 1.441584,0.80985 1.866524,0.54584 2.909473,0.57731 4.986151,0.85072 18.277574,1.88723 36.663018,2.18156 55.018573,2.53365 13.06744,0.17805 26.13063,-0.28747 39.17999,-0.91622 0.14522,-0.0845 1.33984,1.96924 1.19462,2.05371 l 0,0 c -0.51015,0.32379 -0.96629,0.75499 -1.53044,0.97137 -2.81375,1.07918 -7.06884,1.6801 -9.82431,2.03845 -10.15294,1.3204 -20.40585,1.7133 -30.63574,1.70789 -3.94737,-0.0929 -7.897218,-0.11088 -11.84212,-0.27862 -14.3678,-0.61094 -28.769023,-2.07835 -42.777649,-5.41642 -2.544224,-0.72393 -7.970589,-1.66512 -7.396214,-5.52479 0.06486,-0.43582 0.300553,-0.8284 0.45083,-1.2426 0.283871,-0.39286 0.525609,-0.81991 0.851613,-1.17858 1.40212,-1.54262 4.133562,-2.95875 6.056888,-3.70243 0.631939,-0.24434 1.289004,-0.41794 1.933506,-0.62691 0.753276,-0.13804 1.499122,-0.32578 2.259829,-0.41413 2.187123,-0.25403 5.352145,-0.37136 7.545729,-0.39493 5.020492,-0.0539 10.037068,0.19016 15.046915,0.48857 11.002309,0.69706 22.001123,1.62021 33.028913,1.76544 6.48115,-0.16543 13.25951,-0.1712 19.27772,-2.93254 0.72931,-0.33463 1.40366,-0.77796 2.10549,-1.16694 0.53648,-0.40754 1.10042,-0.78126 1.60942,-1.22263 1.36018,-1.17944 2.65234,-2.78346 3.07317,-4.56477 0,-0.13416 1.89737,-0.13416 1.89737,0 z"
         id="path4284"
         style="opacity:1;fill:#fad48b;fill-opacity:1;stroke:#fad48b;stroke-width:0.2;stroke-miterlimit:4;stroke-dasharray:0.2, 0.40000000000000002;stroke-dashoffset:0;stroke-opacity:0"
         transform="translate(-42.857419,-173.9761)" />
      <path
         inkscape:connector-curvature="0"
         id="path4308"
         d="m 92.8125,44.430983 c 0,0 -1.383928,4.464285 -1.651785,4.419642 -0.267858,-0.04464 1.5625,1.696429 1.5625,1.696429 0,0 3.883928,-4.241071 4.375,-3.883929 0.491071,0.357143 -4.285715,-2.232142 -4.285715,-2.232142 z"
         style="fill:none;fill-rule:evenodd;stroke:#fad48b;stroke-width:0.20000001;stroke-linecap:butt;stroke-linejoin:miter;stroke-opacity:1;stroke-miterlimit:4;stroke-dasharray:none" />
      <path
         inkscape:connector-curvature="0"
         id="path4310"
         d="m 91.593169,48.339792 c 0,-0.01303 0.07044,-0.198366 0.156523,-0.41186 0.140586,-0.348646 0.995534,-2.850725 1.059703,-3.101309 0.02509,-0.09799 0.03657,-0.0936 0.323649,0.123684 0.163698,0.123903 0.371359,0.264267 0.461469,0.31192 0.312441,0.165231 0.308152,0.135812 0.07919,0.543244 -0.401168,0.713856 -1.041476,1.531021 -1.742906,2.224306 -0.185694,0.183538 -0.337625,0.323044 -0.337625,0.310015 z"
         style="opacity:1;fill:#fad48b;fill-opacity:1;stroke:#fad48b;stroke-width:0.00892857;stroke-miterlimit:4;stroke-dasharray:none;stroke-dashoffset:0;stroke-opacity:1" />
      <path
         inkscape:connector-curvature="0"
         id="path4312"
         d="m 62.441384,55.576077 0,-1.798786 0.613839,0.02858 c 4.761909,0.221701 11.308529,0.06743 15.011161,-0.353738 3.855304,-0.438534 7.0858,-1.275508 9.620535,-2.492538 1.163736,-0.558757 2.804899,-1.597512 3.385054,-2.142531 0.230281,-0.216334 0.651678,-1.289157 1.343391,-3.420098 0.222133,-0.68432 0.377546,-1.090971 0.44696,-1.169505 0.149761,-0.169441 0.521393,-0.839957 0.766845,-1.38358 0.441324,-0.977436 1.058245,-2.731057 1.537638,-4.370789 0.127353,-0.435601 0.26461,-0.787128 0.425412,-1.089519 0.292418,-0.549896 0.519461,-1.136248 0.622307,-1.607143 0.0429,-0.196428 0.144673,-0.497768 0.226161,-0.669643 0.128263,-0.270533 0.643554,-1.879534 0.643554,-2.009503 0,-0.02558 0.06027,-0.09939 0.133928,-0.164027 0.102119,-0.08961 0.133929,-0.155589 0.133929,-0.277799 0,-0.141636 0.01311,-0.160278 0.112754,-0.160278 0.110488,0 0.111385,0.0026 0.04464,0.131712 -0.09709,0.187757 -0.09125,0.448912 0.01001,0.447745 0.05644,-6.52e-4 0.208252,-0.25677 0.546875,-0.922607 0.513832,-1.010351 1.115042,-2.087641 1.454087,-2.605534 0.119745,-0.182911 0.417217,-0.538481 0.661046,-0.790155 l 0.44333,-0.457589 1.05522,0 1.05522,0 0.18319,0.189732 c 0.16737,0.173355 0.55039,0.714994 0.67874,0.959821 0.029,0.05525 0.0726,0.100447 0.097,0.100447 0.0244,0 0.67388,-0.28125 1.44339,-0.625 l 1.39911,-0.625 3.76709,0.0014 c 3.94136,0.0015 3.92334,6.3e-4 3.92334,0.186315 0,0.09744 -0.14725,0.21395 -0.27137,0.214735 -0.15774,9.98e-4 -0.22955,0.06222 -0.21245,0.181118 0.0116,0.08078 0.0535,0.11269 0.18322,0.139497 0.28759,0.05945 0.38988,0.154194 0.38988,0.361131 0,0.155397 -0.0275,0.207467 -0.19402,0.367 -0.21689,0.207817 -0.84301,0.530126 -1.40194,0.721677 -0.20255,0.06942 -0.36829,0.151326 -0.3683,0.182018 -2e-5,0.04108 -0.12294,0.0558 -0.46576,0.0558 -0.42305,0 -0.46828,0.008 -0.49346,0.08732 -0.0695,0.219087 -0.63486,0.528739 -1.47384,0.807284 -0.30888,0.10255 -0.49457,0.192888 -0.60268,0.293204 -0.20387,0.189181 -0.69328,0.448099 -1.3733,0.726537 -0.44002,0.180171 -0.63587,0.29195 -0.99836,0.569805 -1.17683,0.902065 -2.47236,2.132526 -3.21455,3.053105 -1.29753,1.609391 -4.054427,6.083537 -5.844558,9.485061 -0.379406,0.720932 -0.664863,1.049108 -0.912543,1.049108 -0.342593,0 -1.689843,1.18584 -3.368197,2.964663 -0.475452,0.503914 -0.87757,0.908104 -0.893595,0.8982 -0.01602,-0.0099 -0.299127,0.213556 -0.629116,0.496578 -1.997377,1.713089 -5.260093,3.359048 -8.524703,4.300501 -4.486881,1.293934 -9.576621,1.833698 -17.979911,1.906758 l -3.13616,0.02727 0,-1.798785 z m 29.638105,-7.658356 c 0.738649,-0.766892 1.385393,-1.627357 1.717719,-2.285354 l 0.117854,-0.233349 -0.189964,-0.0908 c -0.10448,-0.04994 -0.153068,-0.06547 -0.107972,-0.03451 0.248882,0.170866 0.238985,0.141092 0.125014,0.376073 -0.148141,0.305434 -0.521498,0.866023 -0.870224,1.306626 -0.465969,0.588737 -1.148585,1.305805 -1.217787,1.27925 -0.03353,-0.01287 -0.06096,-0.01562 -0.06096,-0.0061 0,0.0095 -0.01219,0.04905 -0.0271,0.08788 -0.06103,0.159049 0.08398,0.04615 0.513417,-0.399701 z m 3.572491,-0.441064 c 0.157569,-0.142151 0.436169,-0.371114 0.619111,-0.508808 l 0.332622,-0.250351 -0.177693,-0.07547 c -0.09773,-0.04151 -0.260417,-0.127688 -0.361527,-0.191516 -0.101109,-0.06383 -0.192283,-0.11605 -0.202608,-0.11605 -0.01032,0 -0.138794,0.248283 -0.285487,0.551741 -0.146694,0.303458 -0.391072,0.750444 -0.543062,0.993304 l -0.276348,0.441562 0.304252,-0.29298 c 0.167338,-0.161139 0.433171,-0.409285 0.59074,-0.551436 z m -3.926249,0.531916 c 0,-0.02455 -0.01947,-0.01451 -0.04328,0.02232 -0.0238,0.03683 -0.04328,0.08705 -0.04328,0.111607 0,0.02455 0.01947,0.01451 0.04328,-0.02232 0.0238,-0.03683 0.04328,-0.08705 0.04328,-0.111607 z m 0.08929,-0.223214 c 0,-0.02455 -0.01947,-0.01451 -0.04327,0.02232 -0.0238,0.03683 -0.04328,0.08705 -0.04328,0.111607 0,0.02455 0.01947,0.01451 0.04328,-0.02232 0.0238,-0.03683 0.04327,-0.08705 0.04327,-0.111607 z m 0.198992,-0.558036 c 0.02075,-0.07757 0.01723,-0.09118 -0.01152,-0.04464 -0.02276,0.03683 -0.05481,0.117188 -0.07123,0.178572 -0.02075,0.07757 -0.01723,0.09118 0.01152,0.04464 0.02276,-0.03683 0.05481,-0.117188 0.07123,-0.178572 z m 0.583236,-1.707589 c 0.112988,-0.349889 0.214749,-0.663449 0.226134,-0.696801 0.0167,-0.04892 0.04434,-0.04574 0.143014,0.01645 l 0.122313,0.07709 -0.121415,-0.125688 c -0.06678,-0.06913 -0.128918,-0.116709 -0.138089,-0.105734 -0.0092,0.01097 -0.110992,0.316624 -0.226269,0.679222 -0.115278,0.362597 -0.221024,0.689048 -0.234992,0.725446 -0.01397,0.0364 -0.01431,0.06618 -7.63e-4,0.06618 0.01355,0 0.117078,-0.286273 0.230066,-0.636161 l 1e-6,0 z m 0.915568,-0.32209 c 0,-0.01141 -0.0452,-0.04265 -0.100446,-0.06943 -0.09646,-0.04674 -0.097,-0.04592 -0.01379,0.02075 0.09108,0.07297 0.114235,0.08284 0.114235,0.04868 z"
         style="opacity:1;fill:#fad48b;fill-opacity:1;stroke:#fad48b;stroke-width:0.00892857;stroke-miterlimit:4;stroke-dasharray:none;stroke-dashoffset:0;stroke-opacity:1" />
      <path
         inkscape:connector-curvature="0"
         id="path4314"
         d="m 95.030669,47.971627 c 0,-0.0166 0.117575,-0.236065 0.261277,-0.487692 0.143702,-0.251628 0.327752,-0.603744 0.409001,-0.782481 0.08125,-0.178736 0.160858,-0.319361 0.176911,-0.3125 0.178877,0.07646 0.623113,0.331453 0.614685,0.352832 -0.006,0.01532 -0.171695,0.154757 -0.368124,0.30986 -0.196428,0.155102 -0.467633,0.383662 -0.602678,0.507909 -0.395701,0.364064 -0.491072,0.444092 -0.491072,0.412072 z"
         style="opacity:1;fill:#fad48b;fill-opacity:1;stroke:#fad48b;stroke-width:0.009;stroke-miterlimit:4;stroke-dasharray:none;stroke-dashoffset:0;stroke-opacity:1" />
      <path
         inkscape:connector-curvature="0"
         id="path4324"
         d="m 88.138928,50.728787 c 0.03069,-0.01734 0.158762,-0.0882 0.284599,-0.157468 0.599164,-0.329817 1.337656,-0.781495 1.685267,-1.030747 0.525174,-0.376572 0.9375,-0.691512 0.9375,-0.716073 0,-0.0084 0.02236,-0.03365 0.0497,-0.05605 0.186599,-0.152903 0.566427,-1.114802 1.185435,-3.002064 0.141999,-0.432933 0.343066,-1.058872 0.432918,-1.347709 0.03719,-0.119559 0.04267,-0.130197 0.06175,-0.119984 0.01808,0.0097 0.02982,-9.67e-4 0.08596,-0.07791 0.337079,-0.462037 0.745466,-1.28306 1.131188,-2.274148 l 0.07058,-0.181361 3.028724,0 c 1.665798,0 3.026521,0.0038 3.023831,0.0084 -0.003,0.0046 -0.0876,0.148996 -0.188658,0.320871 -0.73802,1.255026 -1.404624,2.453589 -2.222809,3.996639 -0.145245,0.273923 -0.226945,0.38217 -0.390643,0.517576 -0.06359,0.0526 -0.08808,0.08075 -0.09744,0.111975 -0.01587,0.05296 -0.06377,0.07855 -0.121427,0.06487 -0.04347,-0.01031 -0.141088,-0.003 -0.200893,0.01506 -0.225831,0.06818 -0.731805,0.455179 -1.39509,1.067041 -0.615895,0.568148 -1.687715,1.652367 -2.560166,2.589783 -0.148399,0.159449 -0.214337,0.223035 -0.222656,0.214715 -0.01947,-0.01947 -0.03386,-0.01415 -0.103067,0.03811 l -0.06612,0.04993 -2.232143,5.5e-5 -2.232143,5.6e-5 0.0558,-0.03153 0,-9e-6 z m 3.590612,-2.483135 c 0.720625,-0.670518 1.455883,-1.568846 1.892197,-2.311856 0.117377,-0.199884 0.281135,-0.510859 0.274591,-0.521446 -0.0069,-0.01123 -0.182623,-0.100504 -0.182623,-0.0928 0,0.003 0.01392,0.01261 0.03092,0.02141 0.01701,0.0088 0.04463,0.0297 0.06138,0.04645 0.04951,0.0495 0.04233,0.09448 -0.04046,0.253731 -0.279634,0.537876 -0.733193,1.177813 -1.269252,1.790811 -0.267955,0.306415 -0.879855,0.922821 -0.898031,0.904646 -0.0029,-0.0029 0.0023,-0.027 0.01164,-0.05347 0.02564,-0.07266 0.01266,-0.06539 -0.02074,0.01162 -0.05431,0.125231 -0.04256,0.121122 0.140371,-0.04909 z m 3.362566,-0.26437 c 0.191681,-0.182899 0.512597,-0.47652 0.675171,-0.617745 0.157491,-0.136811 0.217791,-0.194762 0.117187,-0.112624 -0.109039,0.08902 -0.208674,0.17628 -0.480161,0.420503 -0.286939,0.258123 -0.359109,0.31752 -0.37105,0.305376 -0.0045,-0.0046 0.02375,-0.06935 0.06275,-0.143953 0.039,-0.07461 0.06816,-0.132996 0.06479,-0.129753 -0.0034,0.0032 -0.0545,0.08311 -0.113621,0.17748 -0.05912,0.09437 -0.137868,0.217276 -0.174989,0.273122 l -0.06749,0.101537 0.07672,-0.07305 c 0.0422,-0.04018 0.13701,-0.130579 0.2107,-0.200893 z m -3.379936,0.0265 c -0.0025,-0.0025 -0.01331,0.01695 -0.02396,0.0433 -0.03087,0.07636 -0.03084,0.08648 6.7e-5,0.02134 0.01567,-0.03302 0.02642,-0.06211 0.02389,-0.06464 l 5e-6,0 z m 0.06456,-0.158421 c 0.01484,-0.03787 0.02277,-0.06625 0.01762,-0.06307 -0.0051,0.0032 -0.01683,0.02712 -0.02597,0.05321 -0.0091,0.02608 -0.02045,0.05747 -0.02515,0.06974 -0.0047,0.01228 -0.0052,0.01932 -10e-4,0.01565 0.0041,-0.0037 0.01967,-0.03766 0.03451,-0.07553 z m 0.195559,-0.542797 c 0,-0.0061 -0.0049,-0.0036 -0.01082,0.0056 -0.0059,0.0092 -0.01082,0.02176 -0.01082,0.0279 0,0.0061 0.0049,0.0036 0.01082,-0.0056 0.0059,-0.0092 0.01082,-0.02176 0.01082,-0.0279 z m 4.019623,-0.136719 c 0.01388,-0.0177 0.01349,-0.0181 -0.0042,-0.0042 -0.01074,0.0084 -0.01953,0.01721 -0.01953,0.01953 0,0.0092 0.0092,0.0033 0.02375,-0.01532 z m 0.234375,-0.189732 c 0.01388,-0.0177 0.01349,-0.0181 -0.0042,-0.0042 -0.01074,0.0084 -0.01953,0.01721 -0.01953,0.01953 0,0.0092 0.0092,0.0033 0.02375,-0.01532 z m 0.0558,-0.04464 c 0.01388,-0.0177 0.01349,-0.0181 -0.0042,-0.0042 -0.01074,0.0084 -0.01953,0.01721 -0.01953,0.01953 0,0.0092 0.0092,0.0033 0.02375,-0.01532 z m 0.203664,-0.145988 0.09906,-0.06834 -0.0321,-0.01213 c -0.05974,-0.02258 -0.203482,-0.08933 -0.302188,-0.140326 -0.122555,-0.06332 -0.09695,-0.04268 0.06055,0.04881 0.06614,0.03842 0.135325,0.08236 0.15374,0.09764 l 0.03348,0.02778 -0.06656,0.05861 c -0.03661,0.03224 -0.08181,0.07297 -0.100447,0.09052 l -0.03388,0.03191 0.04464,-0.03307 c 0.02455,-0.01819 0.08922,-0.06382 0.143704,-0.101407 z m -0.634608,-0.377239 0.02249,-0.02924 0.139342,0.06964 c 0.07664,0.0383 0.135931,0.06607 0.131762,0.06172 -0.0042,-0.0044 -0.06946,-0.04504 -0.145089,-0.09041 -0.158391,-0.09501 -0.13978,-0.09904 -0.210338,0.04556 -0.05194,0.106451 -0.188732,0.405932 -0.196263,0.429687 -0.0029,0.0092 0.0489,-0.09001 0.115151,-0.220487 0.06625,-0.130475 0.130577,-0.250386 0.142946,-0.266468 z m -3.23761,-0.989049 c 0.101322,-0.308455 0.190673,-0.580915 0.198556,-0.605469 0.0211,-0.06573 0.05134,-0.06456 0.154166,0.0059 l 0.08338,0.05718 -0.09718,-0.09574 c -0.05345,-0.05266 -0.102053,-0.09574 -0.108015,-0.09574 -0.006,0 -0.0392,0.08915 -0.07386,0.198102 -0.03466,0.108957 -0.124811,0.388951 -0.200328,0.62221 -0.164727,0.508815 -0.154052,0.474331 -0.146824,0.474331 0.0032,0 0.08878,-0.252372 0.190102,-0.560826 z"
         style="opacity:1;fill:#fad48b;fill-opacity:1;stroke:#fad48b;stroke-width:0;stroke-miterlimit:4;stroke-dasharray:none;stroke-dashoffset:0;stroke-opacity:1" />
      <path
         inkscape:connector-curvature="0"
         id="path4328"
         d="m 93.842627,45.48421 c 0.0052,-0.03472 0.0022,-0.05533 -0.01095,-0.07533 -0.02103,-0.0321 -0.01703,-0.03362 0.0277,-0.01049 0.03246,0.01679 0.03271,0.01762 0.0168,0.0557 -0.03047,0.07292 -0.04135,0.08269 -0.03355,0.03013 z"
         style="opacity:1;fill:#fad48b;fill-opacity:1;stroke:#fad48b;stroke-width:0;stroke-miterlimit:4;stroke-dasharray:none;stroke-dashoffset:0;stroke-opacity:1" />
      <path
         inkscape:connector-curvature="0"
         id="path4330"
         d="m 88.088705,50.756153 c 0,-0.0026 0.05746,-0.03525 0.127696,-0.07265 0.56515,-0.300943 1.503653,-0.867547 1.862754,-1.124604 0.751044,-0.537625 0.98549,-0.726604 1.087457,-0.876563 0.248806,-0.365912 0.694832,-1.592095 1.5138,-4.161627 0.06884,-0.215984 0.07486,-0.229784 0.09851,-0.22568 0.02091,0.0036 0.03772,-0.01321 0.099,-0.09919 0.326921,-0.458677 0.707525,-1.22285 1.086887,-2.182244 l 0.09819,-0.248325 3.02887,0 3.028871,0 -0.0131,0.02444 c -0.007,0.01344 -0.0783,0.135234 -0.158032,0.270648 -0.710523,1.206871 -1.375095,2.399607 -2.17376,3.901339 -0.213268,0.401011 -0.251946,0.456701 -0.433602,0.624323 -0.07252,0.06692 -0.116977,0.117279 -0.128124,0.145137 -0.02042,0.05104 -0.06262,0.07035 -0.123657,0.05658 -0.06075,-0.0137 -0.185912,0.0062 -0.265137,0.0422 -0.234383,0.10645 -0.680357,0.451048 -1.214322,0.93829 -0.609377,0.556056 -1.719674,1.672287 -2.566207,2.579921 -0.312832,0.335412 -0.312561,0.335152 -0.335193,0.321019 -0.0171,-0.01068 -0.03169,-0.0043 -0.0906,0.03945 l -0.07022,0.05218 -2.230047,0 c -1.226526,0 -2.230048,-0.0021 -2.230048,-0.0047 z m 3.701988,-2.571607 c 0.719136,-0.677026 1.440589,-1.573716 1.871427,-2.325984 0.158849,-0.277362 0.185772,-0.334483 0.184023,-0.390447 l -0.0015,-0.04771 -0.0071,0.05032 c -0.0082,0.05828 -0.07113,0.185095 -0.208161,0.419574 -0.440469,0.753711 -1.107387,1.580647 -1.833037,2.272848 -0.101351,0.09668 -0.189075,0.175781 -0.194942,0.175781 -0.0059,0 -0.0076,-0.01381 -0.0038,-0.03069 l 0.0068,-0.03069 -0.01538,0.0279 c -0.0085,0.01535 -0.019,0.03963 -0.02341,0.05397 -0.0073,0.02357 -0.0058,0.0249 0.01477,0.01387 0.01254,-0.0067 0.107183,-0.09164 0.210319,-0.188741 z m 3.675539,-0.552974 c 0.10726,-0.09747 0.210085,-0.192807 0.2285,-0.211853 l 0.03348,-0.03463 -0.03906,0.03402 c -0.02149,0.01871 -0.116922,0.103998 -0.212082,0.189532 -0.365829,0.328819 -0.429962,0.382148 -0.443403,0.368706 -0.0042,-0.0042 0.01402,-0.05131 0.04038,-0.104793 0.05615,-0.113883 0.04936,-0.109715 -0.03246,0.01995 -0.03293,0.05218 -0.09701,0.152103 -0.142412,0.222059 l -0.08255,0.127194 0.227291,-0.216479 c 0.125011,-0.119064 0.31505,-0.29623 0.42231,-0.393704 z m -3.683672,0.199546 c 0,-0.0061 -0.0049,-0.0036 -0.01082,0.0056 -0.006,0.0092 -0.01082,0.02176 -0.01082,0.0279 0,0.0061 0.0049,0.0036 0.01082,-0.0056 0.0059,-0.0092 0.01082,-0.02176 0.01082,-0.0279 z m 3.990999,-0.477121 0.03278,-0.03627 -0.03627,0.03278 c -0.01995,0.01803 -0.03627,0.03435 -0.03627,0.03627 0,0.0086 0.0092,10e-4 0.03977,-0.03278 z m 0.07742,-0.06417 c 0.01111,-0.01228 0.01769,-0.02232 0.01462,-0.02232 -0.0031,0 -0.01467,0.01004 -0.02578,0.02232 -0.01111,0.01228 -0.01769,0.02232 -0.01462,0.02232 0.0031,0 0.01467,-0.01004 0.02578,-0.02232 z m 0.713472,-0.559462 c 0.0059,-0.0052 -0.0086,-0.01707 -0.03348,-0.02741 -0.0241,-0.01 -0.09531,-0.04241 -0.158226,-0.07202 -0.06292,-0.02961 -0.114397,-0.05249 -0.114397,-0.05086 0,0.0016 0.04513,0.02969 0.100282,0.06234 0.05515,0.03265 0.109115,0.06912 0.119911,0.08105 0.01901,0.02101 0.01736,0.02377 -0.05285,0.08811 l -0.07248,0.06642 0.100447,-0.0692 c 0.05524,-0.03806 0.105102,-0.07335 0.110793,-0.07843 z m -0.708698,-0.326039 c 0.0196,-0.01994 0.02273,-0.01938 0.105368,0.01881 0.04684,0.02164 0.08517,0.03774 0.08517,0.03578 0,-0.0086 -0.157996,-0.09802 -0.175688,-0.09943 -0.01465,-0.0012 -0.04007,0.03948 -0.100217,0.160265 -0.100588,0.201979 -0.105846,0.231955 -0.0078,0.04464 0.04015,-0.07673 0.08209,-0.148755 0.0932,-0.160055 z m -3.035605,-1.614499 c 0.01589,-0.03118 0.06135,-0.02506 0.12327,0.01661 0.09123,0.06139 0.09072,0.05839 -0.0054,-0.03179 -0.04911,-0.04608 -0.09339,-0.07976 -0.09841,-0.07485 -0.0098,0.0096 -0.287395,0.864502 -0.285519,0.879233 6.15e-4,0.0048 0.05881,-0.166999 0.129316,-0.381843 0.07051,-0.214844 0.132036,-0.398158 0.136726,-0.407366 z m 1.072126,0.631775 c 0,-0.0086 -0.0075,-0.01841 -0.01658,-0.02191 -0.01387,-0.0053 -0.01434,-0.0028 -0.0029,0.01555 0.01624,0.02601 0.01947,0.02707 0.01947,0.0064 z m -0.04557,-0.03326 c -0.0026,-0.0023 -0.02223,-0.01264 -0.04371,-0.02299 l -0.03906,-0.01883 0.0279,0.02275 c 0.01535,0.01251 0.03502,0.02286 0.04371,0.02299 0.0087,1.36e-4 0.01372,-0.0016 0.01116,-0.0039 z"
         style="opacity:1;fill:#fad48b;fill-opacity:1;stroke:#fad48b;stroke-width:0;stroke-miterlimit:4;stroke-dasharray:none;stroke-dashoffset:0;stroke-opacity:1" />
      <path
         inkscape:connector-curvature="0"
         id="path4332"
         d="m 88.105753,50.745815 c 0.01211,-0.0082 0.08982,-0.05161 0.172684,-0.09638 0.491482,-0.26549 1.214735,-0.697911 1.623884,-0.970892 0.25557,-0.170514 0.829441,-0.5913 1.026786,-0.75288 0.116433,-0.09533 0.229263,-0.224969 0.293035,-0.336684 0.198248,-0.347287 0.495084,-1.133459 0.977238,-2.588219 0.180156,-0.54357 0.251891,-0.764322 0.475662,-1.463765 0.06921,-0.216334 0.08169,-0.246571 0.0998,-0.241835 0.02495,0.0065 0.06501,-0.04074 0.176695,-0.208463 0.306487,-0.460279 0.641919,-1.144876 0.999353,-2.03962 l 0.112578,-0.281808 3.028637,0 c 2.993825,0 3.028505,2.48e-4 3.017045,0.02165 -0.006,0.01191 -0.111145,0.191455 -0.232834,0.398995 -0.668349,1.139868 -1.30375,2.281245 -2.05537,3.692079 -0.129953,0.243928 -0.252284,0.4589 -0.287945,0.506004 -0.0341,0.04504 -0.113946,0.1302 -0.177433,0.189237 -0.066,0.06137 -0.123719,0.125347 -0.134785,0.14939 -0.0246,0.05345 -0.07045,0.07669 -0.130961,0.06636 -0.06084,-0.01039 -0.166552,0.0035 -0.24223,0.03181 -0.200545,0.07503 -0.679416,0.441466 -1.225404,0.937681 -0.598293,0.543752 -1.595133,1.544901 -2.559293,2.570357 -0.285052,0.303175 -0.335657,0.352318 -0.353158,0.342952 -0.02027,-0.01085 -0.05485,0.0069 -0.133139,0.06817 -0.02579,0.0202 -0.09624,0.02085 -2.259737,0.02085 -1.872547,0 -2.229567,-0.0024 -2.211107,-0.01499 z m 3.677698,-2.554741 c 0.441711,-0.413296 0.958122,-0.997172 1.343619,-1.519155 0.320894,-0.434508 0.700175,-1.060648 0.714236,-1.179107 0.0059,-0.04981 0.0059,-0.04985 -0.0048,-0.0084 -0.02678,0.103735 -0.226904,0.456055 -0.451803,0.795413 -0.253124,0.381947 -0.5454,0.761668 -0.893417,1.160714 -0.177062,0.203023 -0.863277,0.898437 -0.886554,0.898437 -0.0095,0 -0.01177,-0.0099 -0.0072,-0.03069 l 0.0068,-0.03069 -0.01538,0.0279 c -0.0085,0.01535 -0.019,0.03963 -0.02341,0.05397 -0.0071,0.02302 -0.0056,0.02474 0.01311,0.01476 0.01163,-0.0062 0.103757,-0.08862 0.204739,-0.183103 z m 3.657375,-0.537184 c 0.105887,-0.09732 0.192522,-0.179493 0.192522,-0.182598 0,-0.0031 -0.04646,0.03671 -0.103237,0.08849 -0.351049,0.320096 -0.483044,0.430965 -0.496757,0.417253 -0.004,-0.004 0.01185,-0.04594 0.03513,-0.09329 0.02328,-0.04736 0.03737,-0.08108 0.03132,-0.07494 -0.0095,0.0096 -0.237159,0.360269 -0.264507,0.407366 -0.0053,0.0092 0.08539,-0.07372 0.201641,-0.184289 0.116249,-0.110567 0.297997,-0.280659 0.403885,-0.377983 z m -3.658266,0.177228 c 0,-0.0061 -0.0049,-0.0036 -0.01082,0.0056 -0.006,0.0092 -0.01082,0.02176 -0.01082,0.0279 0,0.0061 0.0049,0.0036 0.01082,-0.0056 0.0059,-0.0092 0.01082,-0.02176 0.01082,-0.0279 z m 3.901713,-0.398996 0.03278,-0.03627 -0.03627,0.03278 c -0.03381,0.03056 -0.0414,0.03977 -0.03278,0.03977 0.0019,0 0.01824,-0.01632 0.03627,-0.03627 z m 0.083,-0.06975 c 0.01442,-0.01535 0.0237,-0.0279 0.02063,-0.0279 -0.0031,0 -0.01738,0.01256 -0.03179,0.0279 -0.01442,0.01535 -0.0237,0.0279 -0.02063,0.0279 0.0031,0 0.01738,-0.01256 0.03179,-0.0279 z m 0.795973,-0.638465 c -0.0019,-0.0064 -0.282581,-0.137642 -0.282581,-0.132161 0,0.0015 0.04178,0.02819 0.09284,0.0594 0.137976,0.08431 0.137505,0.08304 0.0577,0.156096 l -0.06683,0.06118 0.100446,-0.06892 c 0.05525,-0.03791 0.09954,-0.07192 0.09843,-0.07558 z m -0.712018,-0.311247 0.02257,-0.02987 0.08625,0.03985 c 0.04744,0.02192 0.08625,0.03824 0.08625,0.03627 0,-0.0085 -0.156147,-0.09541 -0.171392,-0.09541 -0.0093,0 -0.02751,0.01501 -0.04057,0.03335 -0.02365,0.03321 -0.134168,0.26176 -0.133862,0.27682 8.9e-5,0.0044 0.02897,-0.04587 0.06417,-0.111608 0.03521,-0.06573 0.07417,-0.13296 0.08658,-0.149391 z m -2.99924,-1.6432 c 0.02372,-0.0034 0.04705,0.0073 0.13165,0.06007 0.01788,0.01116 4.03e-4,-0.0095 -0.03885,-0.04598 -0.07181,-0.06668 -0.100242,-0.08829 -0.106903,-0.08124 -0.0068,0.0072 -0.262575,0.797359 -0.261502,0.807941 5.92e-4,0.0058 0.05709,-0.157644 0.125558,-0.36328 0.112321,-0.337355 0.126981,-0.374238 0.150047,-0.37751 z m 1.040285,0.650948 c 0,-0.0092 -0.0049,-0.01674 -0.01081,-0.01674 -0.0059,0 -0.0079,0.0075 -0.0044,0.01674 0.0035,0.0092 0.0084,0.01674 0.01081,0.01674 0.0024,0 0.0044,-0.0075 0.0044,-0.01674 z m -0.04557,-0.03206 c -0.0026,-0.0023 -0.02223,-0.01264 -0.04371,-0.02299 l -0.03906,-0.01883 0.0279,0.02275 c 0.01535,0.01251 0.03502,0.02286 0.04371,0.02299 0.0087,1.36e-4 0.01372,-0.0016 0.01116,-0.0039 z"
         style="opacity:1;fill:#fad48b;fill-opacity:1;stroke:#fad48b;stroke-width:0;stroke-miterlimit:4;stroke-dasharray:none;stroke-dashoffset:0;stroke-opacity:1" />
      <path
         inkscape:connector-curvature="0"
         id="path4334"
         d="m 94.874419,48.167474 c 0,-0.008 0.144751,-0.23195 0.159678,-0.24707 0.01063,-0.01077 0.0086,-0.0017 -0.0102,0.04464 -0.0091,0.02253 0.03272,0.02253 0.05142,0 0.0076,-0.0092 0.01932,-0.01674 0.02595,-0.01674 0.0066,0 -0.0078,0.02052 -0.03206,0.0456 -0.05739,0.05932 -0.194788,0.18175 -0.194788,0.173568 z"
         style="opacity:1;fill:#fad48b;fill-opacity:1;stroke:#fad48b;stroke-width:0;stroke-miterlimit:4;stroke-dasharray:none;stroke-dashoffset:0;stroke-opacity:1" />
      <path
         inkscape:connector-curvature="0"
         id="path4336"
         d="m 88.094844,50.751509 c 0.0058,-0.0051 0.123604,-0.07116 0.261718,-0.146776 0.468025,-0.256232 1.072085,-0.616762 1.467634,-0.875948 0.379138,-0.248432 1.02947,-0.731375 1.184669,-0.879746 0.14013,-0.133965 0.186908,-0.20188 0.298854,-0.433884 0.265349,-0.549927 0.620322,-1.55641 1.356192,-3.845313 0.07128,-0.221721 0.09395,-0.280023 0.106946,-0.275037 0.02445,0.0094 0.0734,-0.04865 0.189695,-0.224848 0.312586,-0.473607 0.626741,-1.116954 0.993251,-2.03404 l 0.108163,-0.270647 3.029387,0 3.029387,0 -0.0134,0.02511 c -0.007,0.01381 -0.124897,0.21596 -0.261199,0.449219 -0.708791,1.212975 -1.21667,2.127379 -2.123122,3.822545 -0.148739,0.278157 -0.201847,0.352429 -0.368429,0.515242 -0.06699,0.06547 -0.127931,0.133856 -0.135433,0.151968 -0.02029,0.04898 -0.05075,0.05922 -0.185616,0.06239 -0.101312,0.0024 -0.133808,0.0077 -0.189275,0.03098 -0.20575,0.08636 -0.622156,0.400949 -1.121652,0.847401 -0.600914,0.5371 -1.578442,1.514205 -2.63606,2.634918 -0.311473,0.330055 -0.357024,0.374157 -0.381595,0.36946 -0.02014,-0.0038 -0.04607,0.0074 -0.09322,0.04048 l -0.06532,0.04582 -2.2311,0 c -1.227105,0 -2.226329,-0.0042 -2.220497,-0.0093 z m 3.683783,-2.557668 c 0.561899,-0.523175 1.212391,-1.292524 1.627795,-1.925223 0.207943,-0.316717 0.430982,-0.708712 0.429603,-0.755035 -2.47e-4,-0.0083 -0.01155,0.01013 -0.02511,0.04091 -0.103382,0.234589 -0.446098,0.779679 -0.725695,1.154219 -0.165262,0.221381 -0.394267,0.504451 -0.582984,0.72062 -0.18056,0.206825 -0.873727,0.909598 -0.897166,0.909598 -0.0093,0 -0.01227,-0.0085 -0.0082,-0.02393 0.0079,-0.03028 -0.0064,-0.01388 -0.024,0.02757 -0.02462,0.05784 0.01368,0.03016 0.205806,-0.148726 z m 3.157476,-0.06968 c 0.0428,-0.04446 0.05504,-0.05953 0.02718,-0.03348 -0.04734,0.04426 -0.07673,0.06172 -0.06096,0.0362 0.0038,-0.0061 0.0048,-0.01116 0.0021,-0.01116 -0.0026,0 -0.01805,0.02009 -0.0343,0.04464 -0.01625,0.02455 -0.02557,0.04464 -0.02071,0.04464 0.0049,0 0.04385,-0.03638 0.08665,-0.08084 z m 0.03876,-0.108894 c 0.0066,-0.01228 0.0094,-0.02232 0.0064,-0.02232 -0.0031,0 -0.01096,0.01004 -0.01753,0.02232 -0.0066,0.01228 -0.0094,0.02232 -0.0064,0.02232 0.0031,0 0.01096,-0.01004 0.01753,-0.02232 z m 0.490791,-0.38907 c 0.05263,-0.05107 -0.01561,0.0085 -0.337088,0.294283 -0.02902,0.0258 -0.05489,0.04479 -0.05748,0.0422 -0.0026,-0.0026 -0.0085,0.0014 -0.01313,0.0089 -0.0058,0.0093 -0.0038,0.01075 0.0064,0.0045 0.01089,-0.0067 0.0128,-0.004 0.0073,0.01047 -0.0065,0.01692 0.197067,-0.169229 0.394076,-0.360373 z m -0.446148,0.345535 c 0,0.0083 0.01772,-0.02197 0.03937,-0.06715 0.02165,-0.04518 0.03786,-0.08367 0.03601,-0.08551 -0.0018,-0.0018 -0.02761,0.03504 -0.05724,0.08198 -0.02963,0.04694 -0.04584,0.07867 -0.03601,0.07051 0.01488,-0.01235 0.01787,-0.01232 0.01787,1.73e-4 l 0,-1e-6 z m 0.564318,-0.450327 0.03278,-0.03627 -0.03627,0.03278 c -0.03381,0.03055 -0.0414,0.03976 -0.03278,0.03976 0.0019,0 0.01824,-0.01632 0.03627,-0.03627 z m 0.184873,-0.16183 c 0.01388,-0.0177 0.01349,-0.0181 -0.0042,-0.0042 -0.01074,0.0084 -0.01953,0.01721 -0.01953,0.01953 0,0.0092 0.0092,0.0033 0.02374,-0.01532 z m 0.717659,-0.574629 c 0.0364,-0.02617 0.06557,-0.0526 0.06482,-0.05874 -0.0012,-0.0099 -0.248184,-0.132548 -0.248184,-0.123243 0,0.0021 0.03701,0.02681 0.08224,0.055 0.123881,0.07721 0.123949,0.0774 0.05145,0.144086 -0.06665,0.06131 -0.0527,0.05651 0.04968,-0.0171 z m -0.629908,-0.38112 c 0.02005,-0.02059 0.0221,-0.02028 0.09567,0.01414 0.04135,0.01935 0.07689,0.03347 0.07899,0.03138 0.0021,-0.0021 -0.03323,-0.02337 -0.07848,-0.04729 -0.06988,-0.03693 -0.08495,-0.04127 -0.09999,-0.02879 -0.0168,0.01394 -0.14135,0.258883 -0.140992,0.277273 9e-5,0.0048 0.0281,-0.04404 0.06225,-0.108492 0.03414,-0.06445 0.0713,-0.126654 0.08256,-0.138226 z M 93.88874,45.412731 c -0.0036,-0.0089 -0.0062,-0.0063 -0.0067,0.0067 -4.84e-4,0.01177 0.0022,0.01836 0.0059,0.01465 0.0037,-0.0037 0.0041,-0.01334 8.8e-4,-0.02139 l 10e-7,0 z m -0.05227,-0.02542 c 0,-0.0029 -0.0113,-0.01066 -0.02511,-0.01736 -0.02411,-0.01168 -0.02425,-0.01148 -0.0034,0.0052 0.02277,0.01824 0.02856,0.02071 0.02856,0.01217 z M 92.852725,44.76936 c 0.01519,-0.0022 0.05053,0.01101 0.08371,0.03118 l 0.05741,0.0349 -0.06864,-0.06745 c -0.03775,-0.0371 -0.07302,-0.06745 -0.07836,-0.06745 -0.0093,0 -0.138422,0.374226 -0.136809,0.396545 4.3e-4,0.006 0.0268,-0.06451 0.05859,-0.156589 0.05086,-0.147285 0.06097,-0.167858 0.08411,-0.171133 z"
         style="opacity:1;fill:#fad48b;fill-opacity:1;stroke:#fad48b;stroke-width:0;stroke-miterlimit:4;stroke-dasharray:none;stroke-dashoffset:0;stroke-opacity:1" />
      <path
         inkscape:connector-curvature="0"
         id="path4338"
         d="m 88.094844,50.751509 c 0.0058,-0.0051 0.123604,-0.07116 0.261718,-0.146776 0.468025,-0.256232 1.072085,-0.616762 1.467634,-0.875948 0.379138,-0.248432 1.02947,-0.731375 1.184669,-0.879746 0.14013,-0.133965 0.186908,-0.20188 0.298854,-0.433884 0.265349,-0.549927 0.620322,-1.55641 1.356192,-3.845313 0.07128,-0.221721 0.09395,-0.280023 0.106946,-0.275037 0.02445,0.0094 0.0734,-0.04865 0.189695,-0.224848 0.312586,-0.473607 0.626741,-1.116954 0.993251,-2.03404 l 0.108163,-0.270647 3.029387,0 3.029387,0 -0.0134,0.02511 c -0.007,0.01381 -0.124897,0.21596 -0.261199,0.449219 -0.708791,1.212975 -1.21667,2.127379 -2.123122,3.822545 -0.148739,0.278157 -0.201847,0.352429 -0.368429,0.515242 -0.06699,0.06547 -0.127931,0.133856 -0.135433,0.151968 -0.02029,0.04898 -0.05075,0.05922 -0.185616,0.06239 -0.101312,0.0024 -0.133808,0.0077 -0.189275,0.03098 -0.20575,0.08636 -0.622156,0.400949 -1.121652,0.847401 -0.600914,0.5371 -1.578442,1.514205 -2.63606,2.634918 -0.311473,0.330055 -0.357024,0.374157 -0.381595,0.36946 -0.02014,-0.0038 -0.04607,0.0074 -0.09322,0.04048 l -0.06532,0.04582 -2.2311,0 c -1.227105,0 -2.226329,-0.0042 -2.220497,-0.0093 z m 3.683783,-2.557668 c 0.561899,-0.523175 1.212391,-1.292524 1.627795,-1.925223 0.207943,-0.316717 0.430982,-0.708712 0.429603,-0.755035 -2.47e-4,-0.0083 -0.01155,0.01013 -0.02511,0.04091 -0.103382,0.234589 -0.446098,0.779679 -0.725695,1.154219 -0.165262,0.221381 -0.394267,0.504451 -0.582984,0.72062 -0.18056,0.206825 -0.873727,0.909598 -0.897166,0.909598 -0.0093,0 -0.01227,-0.0085 -0.0082,-0.02393 0.0079,-0.03028 -0.0064,-0.01388 -0.024,0.02757 -0.02462,0.05784 0.01368,0.03016 0.205806,-0.148726 z m 3.157476,-0.06968 c 0.0428,-0.04446 0.05504,-0.05953 0.02718,-0.03348 -0.04734,0.04426 -0.07673,0.06172 -0.06096,0.0362 0.0038,-0.0061 0.0048,-0.01116 0.0021,-0.01116 -0.0026,0 -0.01805,0.02009 -0.0343,0.04464 -0.01625,0.02455 -0.02557,0.04464 -0.02071,0.04464 0.0049,0 0.04385,-0.03638 0.08665,-0.08084 z m 0.03876,-0.108894 c 0.0066,-0.01228 0.0094,-0.02232 0.0064,-0.02232 -0.0031,0 -0.01096,0.01004 -0.01753,0.02232 -0.0066,0.01228 -0.0094,0.02232 -0.0064,0.02232 0.0031,0 0.01096,-0.01004 0.01753,-0.02232 z m 0.490791,-0.38907 c 0.05263,-0.05107 -0.01561,0.0085 -0.337088,0.294283 -0.02902,0.0258 -0.05489,0.04479 -0.05748,0.0422 -0.0026,-0.0026 -0.0085,0.0014 -0.01313,0.0089 -0.0058,0.0093 -0.0038,0.01075 0.0064,0.0045 0.01089,-0.0067 0.0128,-0.004 0.0073,0.01047 -0.0065,0.01692 0.197067,-0.169229 0.394076,-0.360373 z m -0.446148,0.345535 c 0,0.0083 0.01772,-0.02197 0.03937,-0.06715 0.02165,-0.04518 0.03786,-0.08367 0.03601,-0.08551 -0.0018,-0.0018 -0.02761,0.03504 -0.05724,0.08198 -0.02963,0.04694 -0.04584,0.07867 -0.03601,0.07051 0.01488,-0.01235 0.01787,-0.01232 0.01787,1.73e-4 l 0,-1e-6 z m 0.564318,-0.450327 0.03278,-0.03627 -0.03627,0.03278 c -0.03381,0.03055 -0.0414,0.03976 -0.03278,0.03976 0.0019,0 0.01824,-0.01632 0.03627,-0.03627 z m 0.184873,-0.16183 c 0.01388,-0.0177 0.01349,-0.0181 -0.0042,-0.0042 -0.01074,0.0084 -0.01953,0.01721 -0.01953,0.01953 0,0.0092 0.0092,0.0033 0.02374,-0.01532 z m 0.717659,-0.574629 c 0.0364,-0.02617 0.06557,-0.0526 0.06482,-0.05874 -0.0012,-0.0099 -0.248184,-0.132548 -0.248184,-0.123243 0,0.0021 0.03701,0.02681 0.08224,0.055 0.123881,0.07721 0.123949,0.0774 0.05145,0.144086 -0.06665,0.06131 -0.0527,0.05651 0.04968,-0.0171 z m -0.629908,-0.38112 c 0.02005,-0.02059 0.0221,-0.02028 0.09567,0.01414 0.04135,0.01935 0.07689,0.03347 0.07899,0.03138 0.0021,-0.0021 -0.03323,-0.02337 -0.07848,-0.04729 -0.06988,-0.03693 -0.08495,-0.04127 -0.09999,-0.02879 -0.0168,0.01394 -0.14135,0.258883 -0.140992,0.277273 9e-5,0.0048 0.0281,-0.04404 0.06225,-0.108492 0.03414,-0.06445 0.0713,-0.126654 0.08256,-0.138226 z M 93.88874,45.412731 c -0.0036,-0.0089 -0.0062,-0.0063 -0.0067,0.0067 -4.84e-4,0.01177 0.0022,0.01836 0.0059,0.01465 0.0037,-0.0037 0.0041,-0.01334 8.8e-4,-0.02139 l 10e-7,0 z m -0.05227,-0.02542 c 0,-0.0029 -0.0113,-0.01066 -0.02511,-0.01736 -0.02411,-0.01168 -0.02425,-0.01148 -0.0034,0.0052 0.02277,0.01824 0.02856,0.02071 0.02856,0.01217 z M 92.852725,44.76936 c 0.01519,-0.0022 0.05053,0.01101 0.08371,0.03118 l 0.05741,0.0349 -0.06864,-0.06745 c -0.03775,-0.0371 -0.07302,-0.06745 -0.07836,-0.06745 -0.0093,0 -0.138422,0.374226 -0.136809,0.396545 4.3e-4,0.006 0.0268,-0.06451 0.05859,-0.156589 0.05086,-0.147285 0.06097,-0.167858 0.08411,-0.171133 z"
         style="opacity:1;fill:#fad48b;fill-opacity:1;stroke:#fad48b;stroke-width:0;stroke-miterlimit:4;stroke-dasharray:none;stroke-dashoffset:0;stroke-opacity:1" />
      <path
         inkscape:connector-curvature="0"
         id="path4340"
         d="m 88.088705,50.755967 c 0,-0.0027 0.111747,-0.06633 0.248326,-0.141484 0.502081,-0.276279 1.168264,-0.675426 1.531808,-0.91779 0.299487,-0.199659 0.772226,-0.54491 1.007547,-0.735831 0.238856,-0.19379 0.316965,-0.297317 0.461739,-0.612 0.252,-0.547752 0.607301,-1.559215 1.298226,-3.695758 0.09932,-0.307136 0.121528,-0.365513 0.139032,-0.365513 0.02954,0 0.07937,-0.06073 0.196874,-0.239955 0.299675,-0.457091 0.613213,-1.100156 0.971325,-1.992188 l 0.114254,-0.284598 3.031059,-0.0028 c 1.667083,-0.0015 3.031065,-9.48e-4 3.031065,0.0013 0,0.0023 -0.11111,0.194389 -0.246893,0.426918 -0.653089,1.11837 -1.18742,2.074394 -1.845658,3.302245 -0.496671,0.92647 -0.449805,0.850655 -0.659293,1.066545 -0.07483,0.07711 -0.144143,0.15586 -0.154036,0.174991 -0.02266,0.04382 -0.03556,0.04765 -0.176451,0.05236 -0.136124,0.0045 -0.195763,0.02399 -0.33768,0.110045 -0.626851,0.380131 -1.78651,1.474219 -3.657797,3.45097 -0.257756,0.272283 -0.310755,0.323144 -0.333874,0.320402 -0.01778,-0.0021 -0.05022,0.01267 -0.09188,0.04185 l -0.0644,0.04511 -2.231648,0 c -1.227406,0 -2.231647,-0.0022 -2.231647,-0.0048 z m 3.556269,-2.442668 c 0.0043,-0.0074 -0.0034,-0.0036 -0.01709,0.0084 -0.01944,0.01707 -0.02688,0.0187 -0.03385,0.0074 -0.0069,-0.01118 -0.01054,-0.01025 -0.01606,0.0041 -0.0039,0.01022 -0.0071,0.02354 -0.0071,0.0296 0,0.0125 0.06216,-0.02911 0.07413,-0.04963 z m 0.492219,-0.476996 c 0.08259,-0.08572 0.148367,-0.155855 0.146177,-0.155855 -0.0022,0 -0.132013,0.128959 -0.288497,0.286575 -0.156484,0.157616 -0.222263,0.227751 -0.146177,0.155855 0.07609,-0.0719 0.20591,-0.200856 0.288497,-0.286575 z m 2.781661,0.307662 0.02769,-0.02961 -0.03145,0.01632 c -0.0173,0.009 -0.0392,0.02738 -0.04868,0.04091 -0.01617,0.02308 -0.01594,0.0239 0.0038,0.01329 0.01154,-0.0062 0.03345,-0.02463 0.04868,-0.04091 z m 0.351771,-0.335934 0.111607,-0.106957 -0.140448,0.120826 c -0.07725,0.06645 -0.14691,0.130516 -0.154806,0.14236 -0.02118,0.03177 0.05587,-0.03377 0.183647,-0.156229 z m -0.212486,0.09284 c 0.0096,-0.02302 0.01547,-0.04185 0.01303,-0.04185 -0.0088,0 -0.04219,0.05797 -0.04661,0.08092 -0.0064,0.03343 0.01253,0.01137 0.03359,-0.03907 z m -2.711621,-0.287388 c 0.03023,-0.03069 0.05245,-0.0558 0.04938,-0.0558 -0.0031,0 -0.03032,0.02511 -0.06055,0.0558 -0.03023,0.03069 -0.05245,0.0558 -0.04938,0.0558 0.0031,0 0.03031,-0.02511 0.06055,-0.0558 z m 0.117187,-0.128348 c 0.02082,-0.02148 0.03535,-0.03906 0.03228,-0.03906 -0.0031,0 -0.02262,0.01758 -0.04344,0.03906 -0.02082,0.02148 -0.03535,0.03906 -0.03228,0.03906 0.0031,0 0.02262,-0.01758 0.04344,-0.03906 z m 0.08371,-0.09487 c 0.01111,-0.01228 0.01769,-0.02232 0.01462,-0.02232 -0.0031,0 -0.01467,0.01004 -0.02578,0.02232 -0.01111,0.01228 -0.01769,0.02232 -0.01462,0.02232 0.0031,0 0.01467,-0.01004 0.02578,-0.02232 z m 0.06696,-0.07813 c 0.01111,-0.01228 0.01769,-0.02232 0.01462,-0.02232 -0.0031,0 -0.01467,0.01004 -0.02578,0.02232 -0.01111,0.01228 -0.01769,0.02232 -0.01462,0.02232 0.0031,0 0.01467,-0.01004 0.02578,-0.02232 z m 0.0558,-0.06697 c 0.01111,-0.01228 0.01769,-0.02232 0.01462,-0.02232 -0.0031,0 -0.01467,0.01004 -0.02578,0.02232 -0.01111,0.01228 -0.01769,0.02232 -0.01462,0.02232 0.0031,0 0.01467,-0.01004 0.02578,-0.02232 z m 0.06696,-0.07813 c 0.01111,-0.01228 0.01769,-0.02232 0.01462,-0.02232 -0.0031,0 -0.01467,0.01004 -0.02578,0.02232 -0.01111,0.01228 -0.01769,0.02232 -0.01462,0.02232 0.0031,0 0.01467,-0.01004 0.02578,-0.02232 z m 0.04464,-0.0558 c 0.01111,-0.01228 0.01769,-0.02232 0.01462,-0.02232 -0.0031,0 -0.01467,0.01005 -0.02578,0.02232 -0.01111,0.01228 -0.01769,0.02232 -0.01462,0.02232 0.0031,0 0.01467,-0.01004 0.02578,-0.02232 z m 0.05165,-0.06417 c 0.01388,-0.0177 0.01349,-0.0181 -0.0042,-0.0042 -0.01074,0.0084 -0.01953,0.01721 -0.01953,0.01953 0,0.0092 0.0092,0.0033 0.02375,-0.01532 z m 0.04464,-0.0558 c 0.01388,-0.0177 0.01349,-0.0181 -0.0042,-0.0042 -0.01859,0.01458 -0.0245,0.02374 -0.01532,0.02374 0.0023,0 0.01111,-0.0088 0.01953,-0.01953 z m 0.04464,-0.0558 c 0.01388,-0.0177 0.01349,-0.0181 -0.0042,-0.0042 -0.01074,0.0084 -0.01953,0.01721 -0.01953,0.01953 0,0.0092 0.0092,0.0033 0.02375,-0.01532 z m 0.03764,-0.04743 c 0.01111,-0.01228 0.01769,-0.02232 0.01462,-0.02232 -0.0031,0 -0.01467,0.01004 -0.02578,0.02232 -0.01111,0.01228 -0.01769,0.02232 -0.01462,0.02232 0.0031,0 0.01467,-0.01004 0.02578,-0.02232 z m 0.04049,-0.05301 c 0.01388,-0.0177 0.01349,-0.0181 -0.0042,-0.0042 -0.01074,0.0084 -0.01953,0.01721 -0.01953,0.01953 0,0.0092 0.0092,0.0033 0.02375,-0.01532 z m 3.516641,-0.07603 c 0.01669,-0.01189 0.0305,-0.02535 0.03069,-0.0299 1.93e-4,-0.0045 -0.04987,-0.03347 -0.111257,-0.06428 -0.06138,-0.0308 -0.111607,-0.0539 -0.111607,-0.05132 0,0.0026 0.03149,0.02457 0.06997,0.04887 0.106984,0.06757 0.109307,0.07275 0.05736,0.127899 l -0.04363,0.04633 0.03906,-0.02799 c 0.02148,-0.01539 0.05272,-0.03772 0.0694,-0.04962 z m -3.483159,0.03139 c 0.01388,-0.0177 0.01349,-0.0181 -0.0042,-0.0042 -0.01074,0.0084 -0.01953,0.01721 -0.01953,0.01953 0,0.0092 0.0092,0.0033 0.02374,-0.01532 z m 0.03348,-0.04464 c 0.01388,-0.0177 0.01349,-0.0181 -0.0042,-0.0042 -0.01074,0.0084 -0.01953,0.01721 -0.01953,0.01953 0,0.0092 0.0092,0.0033 0.02375,-0.01532 z m 0.03348,-0.04464 c 0.01388,-0.0177 0.01349,-0.0181 -0.0042,-0.0042 -0.01859,0.01458 -0.0245,0.02374 -0.01532,0.02374 0.0023,0 0.01111,-0.0088 0.01953,-0.01953 z m 0.03348,-0.04464 c 0.01388,-0.0177 0.01349,-0.0181 -0.0042,-0.0042 -0.01859,0.01458 -0.0245,0.02374 -0.01532,0.02374 0.0023,0 0.01111,-0.0088 0.01953,-0.01953 z m 0.04322,-0.05859 c 0.01311,-0.01841 0.02133,-0.03348 0.01826,-0.03348 -0.0031,0 -0.01631,0.01507 -0.02942,0.03348 -0.01311,0.01841 -0.02133,0.03348 -0.01826,0.03348 0.0031,0 0.01631,-0.01507 0.02942,-0.03348 z m 2.613197,-0.0897 c 0.02629,-0.04934 0.05696,-0.098 0.06817,-0.108143 0.01906,-0.01724 0.02441,-0.01646 0.08266,0.01211 0.03426,0.0168 0.06402,0.02881 0.06615,0.02669 0.0084,-0.0084 -0.131938,-0.07361 -0.146352,-0.06808 -0.01443,0.0055 -0.135126,0.227126 -0.123715,0.227126 0.0029,0 0.0268,-0.04037 0.05308,-0.0897 z m -2.557394,0.01158 c 0.01311,-0.01841 0.02133,-0.03348 0.01826,-0.03348 -0.0031,0 -0.01631,0.01507 -0.02942,0.03348 -0.01311,0.01841 -0.02133,0.03348 -0.01826,0.03348 0.0031,0 0.01631,-0.01507 0.02942,-0.03348 z m 0.131668,-0.192522 c 0.08362,-0.125268 0.101356,-0.154315 0.08349,-0.136719 -0.01777,0.0175 -0.171675,0.251116 -0.165432,0.251116 0.0031,0 0.03994,-0.05148 0.08194,-0.114397 z m 0.158511,-0.242746 c 0.0066,-0.01228 0.0094,-0.02232 0.0064,-0.02232 -0.0031,0 -0.01096,0.01004 -0.01753,0.02232 -0.0066,0.01228 -0.0094,0.02232 -0.0064,0.02232 0.0031,0 0.01096,-0.01004 0.01753,-0.02232 z m 0.08929,-0.145089 c 0.0066,-0.01228 0.0094,-0.02232 0.0064,-0.02232 -0.0031,0 -0.01096,0.01005 -0.01753,0.02232 -0.0066,0.01228 -0.0094,0.02232 -0.0064,0.02232 0.0031,0 0.01096,-0.01004 0.01753,-0.02232 z m 0.04464,-0.07813 c 0.0066,-0.01228 0.0094,-0.02232 0.0064,-0.02232 -0.0031,0 -0.01096,0.01005 -0.01753,0.02232 -0.0066,0.01228 -0.0094,0.02232 -0.0064,0.02232 0.0031,0 0.01096,-0.01004 0.01753,-0.02232 z m 0.03906,-0.06697 c 0.0095,-0.01841 0.0148,-0.03348 0.01173,-0.03348 -0.0031,0 -0.01337,0.01507 -0.02289,0.03348 -0.0095,0.01842 -0.0148,0.03348 -0.01173,0.03348 0.0031,0 0.01337,-0.01507 0.02289,-0.03348 z m 0.0558,-0.100446 c 0.0095,-0.01841 0.0148,-0.03348 0.01173,-0.03348 -0.0031,0 -0.01337,0.01507 -0.02289,0.03348 -0.0095,0.01841 -0.0148,0.03348 -0.01173,0.03348 0.0031,0 0.01337,-0.01507 0.0229,-0.03348 z m -0.836525,-0.932836 c -0.06577,-0.06068 -0.06657,-0.06104 -0.07952,-0.03577 -0.0072,0.01404 -0.01647,0.03808 -0.02059,0.05343 -0.0063,0.02325 -0.0055,0.02465 0.0047,0.0084 0.01678,-0.02676 0.05293,-0.0242 0.106005,0.0075 0.06455,0.03855 0.06333,0.0347 -0.01063,-0.03353 z"
         style="opacity:1;fill:#fad48b;fill-opacity:1;stroke:#fad48b;stroke-width:0;stroke-miterlimit:4;stroke-dasharray:none;stroke-dashoffset:0;stroke-opacity:1" />
      <path
         inkscape:connector-curvature="0"
         id="path4342"
         d="m 88.088705,50.755967 c 0,-0.0027 0.111747,-0.06633 0.248326,-0.141484 0.502081,-0.276279 1.168264,-0.675426 1.531808,-0.91779 0.299487,-0.199659 0.772226,-0.54491 1.007547,-0.735831 0.238856,-0.19379 0.316965,-0.297317 0.461739,-0.612 0.252,-0.547752 0.607301,-1.559215 1.298226,-3.695758 0.09932,-0.307136 0.121528,-0.365513 0.139032,-0.365513 0.02954,0 0.07937,-0.06073 0.196874,-0.239955 0.299675,-0.457091 0.613213,-1.100156 0.971325,-1.992188 l 0.114254,-0.284598 3.031059,-0.0028 c 1.667083,-0.0015 3.031065,-9.48e-4 3.031065,0.0013 0,0.0023 -0.11111,0.194389 -0.246893,0.426918 -0.653089,1.11837 -1.18742,2.074394 -1.845658,3.302245 -0.496671,0.92647 -0.449805,0.850655 -0.659293,1.066545 -0.07483,0.07711 -0.144143,0.15586 -0.154036,0.174991 -0.02266,0.04382 -0.03556,0.04765 -0.176451,0.05236 -0.136124,0.0045 -0.195763,0.02399 -0.33768,0.110045 -0.626851,0.380131 -1.78651,1.474219 -3.657797,3.45097 -0.257756,0.272283 -0.310755,0.323144 -0.333874,0.320402 -0.01778,-0.0021 -0.05022,0.01267 -0.09188,0.04185 l -0.0644,0.04511 -2.231648,0 c -1.227406,0 -2.231647,-0.0022 -2.231647,-0.0048 z m 3.556269,-2.442668 c 0.0043,-0.0074 -0.0034,-0.0036 -0.01709,0.0084 -0.01944,0.01707 -0.02688,0.0187 -0.03385,0.0074 -0.0069,-0.01118 -0.01054,-0.01025 -0.01606,0.0041 -0.0039,0.01022 -0.0071,0.02354 -0.0071,0.0296 0,0.0125 0.06216,-0.02911 0.07413,-0.04963 z m 0.492219,-0.476996 c 0.08259,-0.08572 0.148367,-0.155855 0.146177,-0.155855 -0.0022,0 -0.132013,0.128959 -0.288497,0.286575 -0.156484,0.157616 -0.222263,0.227751 -0.146177,0.155855 0.07609,-0.0719 0.20591,-0.200856 0.288497,-0.286575 z m 2.781661,0.307662 0.02769,-0.02961 -0.03145,0.01632 c -0.0173,0.009 -0.0392,0.02738 -0.04868,0.04091 -0.01617,0.02308 -0.01594,0.0239 0.0038,0.01329 0.01154,-0.0062 0.03345,-0.02463 0.04868,-0.04091 z m 0.351771,-0.335934 0.111607,-0.106957 -0.140448,0.120826 c -0.07725,0.06645 -0.14691,0.130516 -0.154806,0.14236 -0.02118,0.03177 0.05587,-0.03377 0.183647,-0.156229 z m -0.212486,0.09284 c 0.0096,-0.02302 0.01547,-0.04185 0.01303,-0.04185 -0.0088,0 -0.04219,0.05797 -0.04661,0.08092 -0.0064,0.03343 0.01253,0.01137 0.03359,-0.03907 z m -2.711621,-0.287388 c 0.03023,-0.03069 0.05245,-0.0558 0.04938,-0.0558 -0.0031,0 -0.03032,0.02511 -0.06055,0.0558 -0.03023,0.03069 -0.05245,0.0558 -0.04938,0.0558 0.0031,0 0.03031,-0.02511 0.06055,-0.0558 z m 0.117187,-0.128348 c 0.02082,-0.02148 0.03535,-0.03906 0.03228,-0.03906 -0.0031,0 -0.02262,0.01758 -0.04344,0.03906 -0.02082,0.02148 -0.03535,0.03906 -0.03228,0.03906 0.0031,0 0.02262,-0.01758 0.04344,-0.03906 z m 0.08371,-0.09487 c 0.01111,-0.01228 0.01769,-0.02232 0.01462,-0.02232 -0.0031,0 -0.01467,0.01004 -0.02578,0.02232 -0.01111,0.01228 -0.01769,0.02232 -0.01462,0.02232 0.0031,0 0.01467,-0.01004 0.02578,-0.02232 z m 0.06696,-0.07813 c 0.01111,-0.01228 0.01769,-0.02232 0.01462,-0.02232 -0.0031,0 -0.01467,0.01004 -0.02578,0.02232 -0.01111,0.01228 -0.01769,0.02232 -0.01462,0.02232 0.0031,0 0.01467,-0.01004 0.02578,-0.02232 z m 0.0558,-0.06697 c 0.01111,-0.01228 0.01769,-0.02232 0.01462,-0.02232 -0.0031,0 -0.01467,0.01004 -0.02578,0.02232 -0.01111,0.01228 -0.01769,0.02232 -0.01462,0.02232 0.0031,0 0.01467,-0.01004 0.02578,-0.02232 z m 0.06696,-0.07813 c 0.01111,-0.01228 0.01769,-0.02232 0.01462,-0.02232 -0.0031,0 -0.01467,0.01004 -0.02578,0.02232 -0.01111,0.01228 -0.01769,0.02232 -0.01462,0.02232 0.0031,0 0.01467,-0.01004 0.02578,-0.02232 z m 0.04464,-0.0558 c 0.01111,-0.01228 0.01769,-0.02232 0.01462,-0.02232 -0.0031,0 -0.01467,0.01005 -0.02578,0.02232 -0.01111,0.01228 -0.01769,0.02232 -0.01462,0.02232 0.0031,0 0.01467,-0.01004 0.02578,-0.02232 z m 0.05165,-0.06417 c 0.01388,-0.0177 0.01349,-0.0181 -0.0042,-0.0042 -0.01074,0.0084 -0.01953,0.01721 -0.01953,0.01953 0,0.0092 0.0092,0.0033 0.02375,-0.01532 z m 0.04464,-0.0558 c 0.01388,-0.0177 0.01349,-0.0181 -0.0042,-0.0042 -0.01859,0.01458 -0.0245,0.02374 -0.01532,0.02374 0.0023,0 0.01111,-0.0088 0.01953,-0.01953 z m 0.04464,-0.0558 c 0.01388,-0.0177 0.01349,-0.0181 -0.0042,-0.0042 -0.01074,0.0084 -0.01953,0.01721 -0.01953,0.01953 0,0.0092 0.0092,0.0033 0.02375,-0.01532 z m 0.03764,-0.04743 c 0.01111,-0.01228 0.01769,-0.02232 0.01462,-0.02232 -0.0031,0 -0.01467,0.01004 -0.02578,0.02232 -0.01111,0.01228 -0.01769,0.02232 -0.01462,0.02232 0.0031,0 0.01467,-0.01004 0.02578,-0.02232 z m 0.04049,-0.05301 c 0.01388,-0.0177 0.01349,-0.0181 -0.0042,-0.0042 -0.01074,0.0084 -0.01953,0.01721 -0.01953,0.01953 0,0.0092 0.0092,0.0033 0.02375,-0.01532 z m 3.516641,-0.07603 c 0.01669,-0.01189 0.0305,-0.02535 0.03069,-0.0299 1.93e-4,-0.0045 -0.04987,-0.03347 -0.111257,-0.06428 -0.06138,-0.0308 -0.111607,-0.0539 -0.111607,-0.05132 0,0.0026 0.03149,0.02457 0.06997,0.04887 0.106984,0.06757 0.109307,0.07275 0.05736,0.127899 l -0.04363,0.04633 0.03906,-0.02799 c 0.02148,-0.01539 0.05272,-0.03772 0.0694,-0.04962 z m -3.483159,0.03139 c 0.01388,-0.0177 0.01349,-0.0181 -0.0042,-0.0042 -0.01074,0.0084 -0.01953,0.01721 -0.01953,0.01953 0,0.0092 0.0092,0.0033 0.02374,-0.01532 z m 0.03348,-0.04464 c 0.01388,-0.0177 0.01349,-0.0181 -0.0042,-0.0042 -0.01074,0.0084 -0.01953,0.01721 -0.01953,0.01953 0,0.0092 0.0092,0.0033 0.02375,-0.01532 z m 0.03348,-0.04464 c 0.01388,-0.0177 0.01349,-0.0181 -0.0042,-0.0042 -0.01859,0.01458 -0.0245,0.02374 -0.01532,0.02374 0.0023,0 0.01111,-0.0088 0.01953,-0.01953 z m 0.03348,-0.04464 c 0.01388,-0.0177 0.01349,-0.0181 -0.0042,-0.0042 -0.01859,0.01458 -0.0245,0.02374 -0.01532,0.02374 0.0023,0 0.01111,-0.0088 0.01953,-0.01953 z m 0.04322,-0.05859 c 0.01311,-0.01841 0.02133,-0.03348 0.01826,-0.03348 -0.0031,0 -0.01631,0.01507 -0.02942,0.03348 -0.01311,0.01841 -0.02133,0.03348 -0.01826,0.03348 0.0031,0 0.01631,-0.01507 0.02942,-0.03348 z m 2.613197,-0.0897 c 0.02629,-0.04934 0.05696,-0.098 0.06817,-0.108143 0.01906,-0.01724 0.02441,-0.01646 0.08266,0.01211 0.03426,0.0168 0.06402,0.02881 0.06615,0.02669 0.0084,-0.0084 -0.131938,-0.07361 -0.146352,-0.06808 -0.01443,0.0055 -0.135126,0.227126 -0.123715,0.227126 0.0029,0 0.0268,-0.04037 0.05308,-0.0897 z m -2.557394,0.01158 c 0.01311,-0.01841 0.02133,-0.03348 0.01826,-0.03348 -0.0031,0 -0.01631,0.01507 -0.02942,0.03348 -0.01311,0.01841 -0.02133,0.03348 -0.01826,0.03348 0.0031,0 0.01631,-0.01507 0.02942,-0.03348 z m 0.131668,-0.192522 c 0.08362,-0.125268 0.101356,-0.154315 0.08349,-0.136719 -0.01777,0.0175 -0.171675,0.251116 -0.165432,0.251116 0.0031,0 0.03994,-0.05148 0.08194,-0.114397 z m 0.158511,-0.242746 c 0.0066,-0.01228 0.0094,-0.02232 0.0064,-0.02232 -0.0031,0 -0.01096,0.01004 -0.01753,0.02232 -0.0066,0.01228 -0.0094,0.02232 -0.0064,0.02232 0.0031,0 0.01096,-0.01004 0.01753,-0.02232 z m 0.08929,-0.145089 c 0.0066,-0.01228 0.0094,-0.02232 0.0064,-0.02232 -0.0031,0 -0.01096,0.01005 -0.01753,0.02232 -0.0066,0.01228 -0.0094,0.02232 -0.0064,0.02232 0.0031,0 0.01096,-0.01004 0.01753,-0.02232 z m 0.04464,-0.07813 c 0.0066,-0.01228 0.0094,-0.02232 0.0064,-0.02232 -0.0031,0 -0.01096,0.01005 -0.01753,0.02232 -0.0066,0.01228 -0.0094,0.02232 -0.0064,0.02232 0.0031,0 0.01096,-0.01004 0.01753,-0.02232 z m 0.03906,-0.06697 c 0.0095,-0.01841 0.0148,-0.03348 0.01173,-0.03348 -0.0031,0 -0.01337,0.01507 -0.02289,0.03348 -0.0095,0.01842 -0.0148,0.03348 -0.01173,0.03348 0.0031,0 0.01337,-0.01507 0.02289,-0.03348 z m 0.0558,-0.100446 c 0.0095,-0.01841 0.0148,-0.03348 0.01173,-0.03348 -0.0031,0 -0.01337,0.01507 -0.02289,0.03348 -0.0095,0.01841 -0.0148,0.03348 -0.01173,0.03348 0.0031,0 0.01337,-0.01507 0.0229,-0.03348 z m -0.836525,-0.932836 c -0.06577,-0.06068 -0.06657,-0.06104 -0.07952,-0.03577 -0.0072,0.01404 -0.01647,0.03808 -0.02059,0.05343 -0.0063,0.02325 -0.0055,0.02465 0.0047,0.0084 0.01678,-0.02676 0.05293,-0.0242 0.106005,0.0075 0.06455,0.03855 0.06333,0.0347 -0.01063,-0.03353 z"
         style="opacity:1;fill:#fad48b;fill-opacity:1;stroke:#fad48b;stroke-width:0;stroke-miterlimit:4;stroke-dasharray:none;stroke-dashoffset:0;stroke-opacity:1" />
      <path
         inkscape:connector-curvature="0"
         id="path4344"
         d="m 88.088705,50.755967 c 0,-0.0027 0.111747,-0.06633 0.248326,-0.141484 0.693473,-0.381596 1.408844,-0.82159 1.855469,-1.141219 0.480803,-0.344088 0.781697,-0.580613 0.891053,-0.70043 0.141871,-0.155444 0.25603,-0.390745 0.527279,-1.086805 0.139674,-0.358422 0.640157,-1.838246 1.025748,-3.032925 0.09916,-0.307218 0.121295,-0.365513 0.138803,-0.365513 0.02954,0 0.07937,-0.06073 0.196874,-0.239955 0.299675,-0.457091 0.613213,-1.100156 0.971325,-1.992188 l 0.114254,-0.284598 3.031059,-0.0028 c 1.667083,-0.0015 3.031065,-9.48e-4 3.031065,0.0013 0,0.0023 -0.11111,0.194389 -0.246893,0.426918 -0.653089,1.11837 -1.18742,2.074394 -1.845658,3.302245 -0.496671,0.92647 -0.449805,0.850655 -0.659293,1.066545 -0.07483,0.07711 -0.144143,0.15586 -0.154036,0.174991 -0.02266,0.04382 -0.03556,0.04765 -0.176451,0.05236 -0.136124,0.0045 -0.195763,0.02399 -0.33768,0.110045 -0.626851,0.380131 -1.78651,1.474219 -3.657797,3.45097 -0.257756,0.272283 -0.310755,0.323144 -0.333874,0.320402 -0.01778,-0.0021 -0.05022,0.01267 -0.09188,0.04185 l -0.0644,0.04511 -2.231648,0 c -1.227406,0 -2.231647,-0.0022 -2.231647,-0.0048 z m 3.556269,-2.442668 c 0.0043,-0.0074 -0.0034,-0.0036 -0.01709,0.0084 -0.01944,0.01707 -0.02688,0.0187 -0.03385,0.0074 -0.0069,-0.01118 -0.01054,-0.01025 -0.01606,0.0041 -0.0039,0.01022 -0.0071,0.02354 -0.0071,0.0296 0,0.0125 0.06216,-0.02911 0.07413,-0.04963 z m 0.454173,-0.438555 c 0.05424,-0.05776 0.09688,-0.10501 0.09477,-0.10501 -0.0021,0 -0.111778,0.10885 -0.2437,0.241889 -0.162327,0.163702 -0.19296,0.197645 -0.09477,0.10501 0.0798,-0.07528 0.189465,-0.184134 0.243701,-0.241889 z m 2.819707,0.269221 0.02769,-0.02961 -0.03145,0.01632 c -0.0173,0.009 -0.0392,0.02738 -0.04868,0.04091 -0.01617,0.02308 -0.01594,0.0239 0.0038,0.01329 0.01154,-0.0062 0.03345,-0.02463 0.04868,-0.04091 z m 0.300056,-0.287683 c 0.09506,-0.09064 0.07656,-0.08178 -0.04069,0.01948 -0.07978,0.0689 -0.137323,0.134722 -0.07474,0.0855 0.01679,-0.0132 0.06873,-0.06044 0.115438,-0.104975 z m -0.160771,0.04459 c 0.0096,-0.02302 0.01547,-0.04185 0.01303,-0.04185 -0.0088,0 -0.04219,0.05797 -0.04661,0.08092 -0.0064,0.03343 0.01253,0.01137 0.03359,-0.03907 z m -2.782742,-0.206473 c 0.01388,-0.0177 0.01349,-0.0181 -0.0042,-0.0042 -0.01074,0.0084 -0.01953,0.01721 -0.01953,0.01953 0,0.0092 0.0092,0.0033 0.02374,-0.01532 z m 0.07112,-0.08091 c 0.03023,-0.03069 0.05245,-0.0558 0.04938,-0.0558 -0.0031,0 -0.03032,0.02511 -0.06055,0.0558 -0.03023,0.03069 -0.05245,0.0558 -0.04938,0.0558 0.0031,0 0.03031,-0.02511 0.06055,-0.0558 z m 0.117187,-0.128348 c 0.02082,-0.02148 0.03535,-0.03906 0.03228,-0.03906 -0.0031,0 -0.02262,0.01758 -0.04344,0.03906 -0.02082,0.02148 -0.03535,0.03906 -0.03228,0.03906 0.0031,0 0.02262,-0.01758 0.04344,-0.03906 z m 0.08371,-0.09487 c 0.01111,-0.01228 0.01769,-0.02232 0.01462,-0.02232 -0.0031,0 -0.01467,0.01004 -0.02578,0.02232 -0.01111,0.01228 -0.01769,0.02232 -0.01462,0.02232 0.0031,0 0.01467,-0.01004 0.02578,-0.02232 z m 0.06696,-0.07813 c 0.01111,-0.01228 0.01769,-0.02232 0.01462,-0.02232 -0.0031,0 -0.01467,0.01004 -0.02578,0.02232 -0.01111,0.01228 -0.01769,0.02232 -0.01462,0.02232 0.0031,0 0.01467,-0.01004 0.02578,-0.02232 z m 0.0558,-0.06697 c 0.01111,-0.01228 0.01769,-0.02232 0.01462,-0.02232 -0.0031,0 -0.01467,0.01004 -0.02578,0.02232 -0.01111,0.01228 -0.01769,0.02232 -0.01462,0.02232 0.0031,0 0.01467,-0.01004 0.02578,-0.02232 z m 0.06696,-0.07813 c 0.01111,-0.01228 0.01769,-0.02232 0.01462,-0.02232 -0.0031,0 -0.01467,0.01004 -0.02578,0.02232 -0.01111,0.01228 -0.01769,0.02232 -0.01462,0.02232 0.0031,0 0.01467,-0.01004 0.02578,-0.02232 z m 0.04464,-0.0558 c 0.01111,-0.01228 0.01769,-0.02232 0.01462,-0.02232 -0.0031,0 -0.01467,0.01005 -0.02578,0.02232 -0.01111,0.01228 -0.01769,0.02232 -0.01462,0.02232 0.0031,0 0.01467,-0.01004 0.02578,-0.02232 z m 0.05165,-0.06417 c 0.01388,-0.0177 0.01349,-0.0181 -0.0042,-0.0042 -0.01074,0.0084 -0.01953,0.01721 -0.01953,0.01953 0,0.0092 0.0092,0.0033 0.02375,-0.01532 z m 0.04464,-0.0558 c 0.01388,-0.0177 0.01349,-0.0181 -0.0042,-0.0042 -0.01859,0.01458 -0.0245,0.02374 -0.01532,0.02374 0.0023,0 0.01111,-0.0088 0.01953,-0.01953 z m 0.04464,-0.0558 c 0.01388,-0.0177 0.01349,-0.0181 -0.0042,-0.0042 -0.01074,0.0084 -0.01953,0.01721 -0.01953,0.01953 0,0.0092 0.0092,0.0033 0.02375,-0.01532 z m 0.03764,-0.04743 c 0.01111,-0.01228 0.01769,-0.02232 0.01462,-0.02232 -0.0031,0 -0.01467,0.01004 -0.02578,0.02232 -0.01111,0.01228 -0.01769,0.02232 -0.01462,0.02232 0.0031,0 0.01467,-0.01004 0.02578,-0.02232 z m 0.04049,-0.05301 c 0.01388,-0.0177 0.01349,-0.0181 -0.0042,-0.0042 -0.01074,0.0084 -0.01953,0.01721 -0.01953,0.01953 0,0.0092 0.0092,0.0033 0.02375,-0.01532 z m 3.516641,-0.07603 c 0.01669,-0.01189 0.0305,-0.02535 0.03069,-0.0299 1.93e-4,-0.0045 -0.04987,-0.03347 -0.111257,-0.06428 -0.06138,-0.0308 -0.111607,-0.0539 -0.111607,-0.05132 0,0.0026 0.03149,0.02457 0.06997,0.04887 0.106984,0.06757 0.109307,0.07275 0.05736,0.127899 l -0.04363,0.04633 0.03906,-0.02799 c 0.02148,-0.01539 0.05272,-0.03772 0.0694,-0.04962 z m -3.483159,0.03139 c 0.01388,-0.0177 0.01349,-0.0181 -0.0042,-0.0042 -0.01074,0.0084 -0.01953,0.01721 -0.01953,0.01953 0,0.0092 0.0092,0.0033 0.02374,-0.01532 z m 0.03348,-0.04464 c 0.01388,-0.0177 0.01349,-0.0181 -0.0042,-0.0042 -0.01074,0.0084 -0.01953,0.01721 -0.01953,0.01953 0,0.0092 0.0092,0.0033 0.02375,-0.01532 z m 0.03348,-0.04464 c 0.01388,-0.0177 0.01349,-0.0181 -0.0042,-0.0042 -0.01859,0.01458 -0.0245,0.02374 -0.01532,0.02374 0.0023,0 0.01111,-0.0088 0.01953,-0.01953 z m 0.03348,-0.04464 c 0.01388,-0.0177 0.01349,-0.0181 -0.0042,-0.0042 -0.01859,0.01458 -0.0245,0.02374 -0.01532,0.02374 0.0023,0 0.01111,-0.0088 0.01953,-0.01953 z m 0.04322,-0.05859 c 0.01311,-0.01841 0.02133,-0.03348 0.01826,-0.03348 -0.0031,0 -0.01631,0.01507 -0.02942,0.03348 -0.01311,0.01841 -0.02133,0.03348 -0.01826,0.03348 0.0031,0 0.01631,-0.01507 0.02942,-0.03348 z m 2.613197,-0.0897 c 0.02629,-0.04934 0.05696,-0.098 0.06817,-0.108143 0.01906,-0.01724 0.02441,-0.01646 0.08266,0.01211 0.03426,0.0168 0.06402,0.02881 0.06615,0.02669 0.0084,-0.0084 -0.131938,-0.07361 -0.146352,-0.06808 -0.01443,0.0055 -0.135126,0.227126 -0.123715,0.227126 0.0029,0 0.0268,-0.04037 0.05308,-0.0897 z m -2.557394,0.01158 c 0.01311,-0.01841 0.02133,-0.03348 0.01826,-0.03348 -0.0031,0 -0.01631,0.01507 -0.02942,0.03348 -0.01311,0.01841 -0.02133,0.03348 -0.01826,0.03348 0.0031,0 0.01631,-0.01507 0.02942,-0.03348 z m 0.131668,-0.192522 c 0.08362,-0.125268 0.101356,-0.154315 0.08349,-0.136719 -0.01777,0.0175 -0.171675,0.251116 -0.165432,0.251116 0.0031,0 0.03994,-0.05148 0.08194,-0.114397 z m 0.158511,-0.242746 c 0.0066,-0.01228 0.0094,-0.02232 0.0064,-0.02232 -0.0031,0 -0.01096,0.01004 -0.01753,0.02232 -0.0066,0.01228 -0.0094,0.02232 -0.0064,0.02232 0.0031,0 0.01096,-0.01004 0.01753,-0.02232 z m 0.08929,-0.145089 c 0.0066,-0.01228 0.0094,-0.02232 0.0064,-0.02232 -0.0031,0 -0.01096,0.01005 -0.01753,0.02232 -0.0066,0.01228 -0.0094,0.02232 -0.0064,0.02232 0.0031,0 0.01096,-0.01004 0.01753,-0.02232 z m 0.04464,-0.07813 c 0.0066,-0.01228 0.0094,-0.02232 0.0064,-0.02232 -0.0031,0 -0.01096,0.01005 -0.01753,0.02232 -0.0066,0.01228 -0.0094,0.02232 -0.0064,0.02232 0.0031,0 0.01096,-0.01004 0.01753,-0.02232 z m 0.03906,-0.06697 c 0.0095,-0.01841 0.0148,-0.03348 0.01173,-0.03348 -0.0031,0 -0.01337,0.01507 -0.02289,0.03348 -0.0095,0.01842 -0.0148,0.03348 -0.01173,0.03348 0.0031,0 0.01337,-0.01507 0.02289,-0.03348 z m 0.0558,-0.100446 c 0.0095,-0.01841 0.0148,-0.03348 0.01173,-0.03348 -0.0031,0 -0.01337,0.01507 -0.02289,0.03348 -0.0095,0.01841 -0.0148,0.03348 -0.01173,0.03348 0.0031,0 0.01337,-0.01507 0.0229,-0.03348 z m -0.836525,-0.932836 c -0.06577,-0.06068 -0.06657,-0.06104 -0.07952,-0.03577 -0.0072,0.01404 -0.01647,0.03808 -0.02059,0.05343 -0.0063,0.02325 -0.0055,0.02465 0.0047,0.0084 0.01678,-0.02676 0.05293,-0.0242 0.106005,0.0075 0.06455,0.03855 0.06333,0.0347 -0.01063,-0.03353 z"
         style="opacity:1;fill:#fad48b;fill-opacity:1;stroke:#fad48b;stroke-width:0;stroke-miterlimit:4;stroke-dasharray:none;stroke-dashoffset:0;stroke-opacity:1" />
      <path
         inkscape:connector-curvature="0"
         id="path4346"
         d="m 88.094844,50.75081 c 0.0058,-0.0055 0.143694,-0.08414 0.306361,-0.174757 0.862081,-0.480252 1.461192,-0.858867 2.070313,-1.308358 0.436052,-0.321777 0.606324,-0.471114 0.702664,-0.616265 0.226247,-0.340879 0.605973,-1.368398 1.323969,-3.582589 0.244067,-0.752666 0.254131,-0.78125 0.275071,-0.78125 0.02502,0 0.07583,-0.05994 0.1703,-0.200893 0.302161,-0.450844 0.610426,-1.075915 0.976979,-1.981027 l 0.135596,-0.334821 3.031929,-0.0028 c 1.667561,-0.0015 3.031934,-2.78e-4 3.031934,0.0028 0,0.0031 -0.10618,0.187673 -0.235958,0.410176 -0.666383,1.142537 -1.149205,2.006876 -1.884337,3.373301 -0.191541,0.356027 -0.371656,0.686833 -0.400256,0.735126 -0.03404,0.05747 -0.10353,0.142289 -0.201179,0.245535 -0.08205,0.08675 -0.161674,0.176349 -0.176945,0.199103 -0.03355,0.04998 -0.06646,0.06097 -0.190867,0.06372 -0.159204,0.0035 -0.251062,0.04464 -0.517192,0.231503 -0.635713,0.44637 -1.718663,1.48323 -3.439267,3.292894 -0.176271,0.185395 -0.326464,0.340773 -0.333763,0.345284 -0.0073,0.0045 -0.02544,0.0095 -0.04032,0.01109 -0.01488,0.0016 -0.05394,0.02073 -0.0868,0.04255 l -0.05974,0.03967 -2.234546,0 c -1.316406,0 -2.230191,-0.0041 -2.223944,-0.01 z m 3.503429,-2.399948 c 0.0035,-0.0057 0.0018,-0.01322 -0.0038,-0.01668 -0.0056,-0.0035 -0.01305,0.0012 -0.01657,0.01039 -0.0069,0.01808 0.0098,0.02327 0.02032,0.0063 z m 3.288731,-0.187713 c 0.01388,-0.0177 0.01349,-0.0181 -0.0042,-0.0042 -0.01074,0.0084 -0.01953,0.01721 -0.01953,0.01953 0,0.0092 0.0092,0.0033 0.02375,-0.01532 z m 0.344558,-0.321968 c 0.01535,-0.01718 -0.0085,6.23e-4 -0.05301,0.03957 -0.0445,0.03894 -0.08092,0.07306 -0.08092,0.0758 0,0.0079 0.103184,-0.08095 0.133928,-0.115369 z m -0.168201,0.03458 c 0,-0.0061 -0.0072,0.0014 -0.01595,0.01674 -0.0088,0.01535 -0.01595,0.03292 -0.01595,0.03906 0,0.0061 0.0072,-0.0014 0.01595,-0.01674 0.0088,-0.01535 0.01595,-0.03292 0.01595,-0.03906 z m -2.716843,-0.262277 c 0.01111,-0.01228 0.01769,-0.02232 0.01462,-0.02232 -0.0031,0 -0.01467,0.01005 -0.02578,0.02232 -0.01111,0.01228 -0.01769,0.02232 -0.01462,0.02232 0.0031,0 0.01467,-0.01004 0.02578,-0.02232 z m 4.181712,-0.866788 c 0.01965,-0.01779 0.01851,-0.01974 -0.02702,-0.046 -0.02615,-0.01509 -0.06512,-0.03439 -0.08661,-0.04289 -0.03867,-0.01531 -0.03879,-0.01527 -0.01162,0.0041 0.05803,0.04148 0.08975,0.07243 0.08975,0.08757 0,0.02072 0.01041,0.01989 0.03551,-0.0028 z m -0.744212,-0.226962 c 0.0095,-0.01841 0.0148,-0.03348 0.01173,-0.03348 -0.0031,0 -0.01337,0.01507 -0.02289,0.03348 -0.0095,0.01841 -0.0148,0.03348 -0.01173,0.03348 0.0031,0 0.01337,-0.01507 0.0229,-0.03348 z m 0.134003,-0.119399 c 0.02296,0.01095 0.04369,0.01797 0.04606,0.0156 0.0089,-0.0089 -0.08468,-0.04388 -0.100759,-0.03771 -0.0092,0.0035 -0.02507,0.02301 -0.03522,0.04328 l -0.01847,0.03685 0.03332,-0.03896 0.03332,-0.03896 0.04175,0.01991 z m -3.002612,-1.637914 c -0.03052,-0.02735 -0.05939,-0.04995 -0.06414,-0.05022 -0.0069,-3.98e-4 -0.03042,0.04606 -0.03042,0.06006 0,0.0018 0.01189,10e-4 0.02643,-0.0017 0.01454,-0.0028 0.04593,0.0052 0.06975,0.0178 0.06097,0.03216 0.06084,0.03008 -0.0016,-0.02589 z"
         style="opacity:1;fill:#fad48b;fill-opacity:1;stroke:#fad48b;stroke-width:0;stroke-miterlimit:4;stroke-dasharray:none;stroke-dashoffset:0;stroke-opacity:1" />
      <path
         inkscape:connector-curvature="0"
         id="path4348"
         d="m 88.088705,50.755794 c 0,-0.0028 0.06906,-0.04366 0.15346,-0.0909 1.051509,-0.588548 1.62191,-0.947312 2.257254,-1.419743 0.433978,-0.322698 0.584587,-0.457229 0.683412,-0.610457 0.229917,-0.356484 0.605602,-1.379011 1.347025,-3.666294 0.202808,-0.625662 0.222286,-0.680804 0.24048,-0.680804 0.05386,0 0.284487,-0.351305 0.516535,-0.78683 0.203828,-0.38256 0.460753,-0.958457 0.741889,-1.662947 l 0.02672,-0.06696 3.032236,-0.0028 c 1.66773,-0.0015 3.032244,-2.9e-5 3.032244,0.0034 0,0.0034 -0.126191,0.223135 -0.280414,0.488301 -0.674528,1.159757 -1.111952,1.943757 -1.856882,3.328103 -0.194885,0.362165 -0.37541,0.691127 -0.401167,0.731027 -0.02576,0.0399 -0.106023,0.135324 -0.178369,0.212054 -0.07234,0.07673 -0.148738,0.162928 -0.16976,0.191552 -0.04607,0.06273 -0.08018,0.07626 -0.192648,0.07644 -0.108182,1.69e-4 -0.178222,0.01911 -0.289059,0.07816 -0.219323,0.11686 -0.66796,0.471028 -1.123896,0.887238 -0.491034,0.448249 -1.309126,1.25952 -2.047991,2.030915 -0.900409,0.940051 -0.842102,0.881427 -0.883344,0.888134 -0.02109,0.0034 -0.06164,0.02226 -0.09012,0.04185 l -0.05177,0.03562 -2.232922,0 c -1.228107,0 -2.232922,-0.0023 -2.232922,-0.005 z m 3.509568,-2.404932 c 0.0035,-0.0057 0.0018,-0.01322 -0.0038,-0.01668 -0.0056,-0.0035 -0.01305,0.0012 -0.01657,0.01039 -0.0069,0.01808 0.0098,0.02327 0.02032,0.0063 z m 3.538423,-0.424878 c 0.01111,-0.01228 0.01769,-0.02232 0.01462,-0.02232 -0.0031,0 -0.01467,0.01005 -0.02578,0.02232 -0.01111,0.01228 -0.01769,0.02232 -0.01462,0.02232 0.0031,0 0.01467,-0.01004 0.02578,-0.02232 z m -0.0837,-0.02232 c 0.0066,-0.01228 0.0094,-0.02232 0.0064,-0.02232 -0.0031,0 -0.01096,0.01004 -0.01753,0.02232 -0.0066,0.01228 -0.0094,0.02232 -0.0064,0.02232 0.0031,0 0.01096,-0.01004 0.01753,-0.02232 z m 0.15625,-0.03906 c 0.01442,-0.01535 0.0237,-0.0279 0.02063,-0.0279 -0.0031,0 -0.01738,0.01256 -0.03179,0.0279 -0.01442,0.01535 -0.0237,0.0279 -0.02063,0.0279 0.0031,0 0.01738,-0.01256 0.03179,-0.0279 z m 1.314732,-1.112723 c 0.02221,-0.02221 0.01619,-0.02952 -0.05325,-0.06457 -0.08476,-0.04279 -0.09409,-0.04255 -0.03416,8.6e-4 0.0262,0.01898 0.05014,0.04409 0.0532,0.0558 0.0064,0.02464 0.01542,0.02671 0.03422,0.0079 z m -0.634859,-0.374442 c 0.0026,-0.0015 -0.0031,-0.0028 -0.01267,-0.0028 -0.0095,0 -0.02615,0.01381 -0.03695,0.03069 l -0.01963,0.03069 0.0323,-0.0279 c 0.01777,-0.01535 0.03439,-0.02916 0.03695,-0.03069 z m 0.04557,0.01953 c -0.0092,-0.0059 -0.02176,-0.01082 -0.0279,-0.01082 -0.0061,0 -0.0036,0.0049 0.0056,0.01082 0.0092,0.0059 0.02176,0.01082 0.0279,0.01082 0.0061,0 0.0036,-0.0049 -0.0056,-0.01082 z m -2.996651,-1.607143 c -0.0038,-0.0061 -0.01288,-0.01108 -0.02019,-0.01099 -0.008,1.01e-4 -0.0066,0.0045 0.0034,0.01099 0.02144,0.01386 0.02531,0.01386 0.01674,0 z m -0.06696,-0.06696 c -0.0038,-0.0061 -0.01288,-0.01108 -0.02019,-0.01099 -0.008,1e-4 -0.0066,0.0045 0.0034,0.01099 0.02144,0.01386 0.0253,0.01386 0.01674,0 z"
         style="opacity:1;fill:#fad48b;fill-opacity:1;stroke:#fad48b;stroke-width:0;stroke-miterlimit:4;stroke-dasharray:none;stroke-dashoffset:0;stroke-opacity:1" />
      <path
         inkscape:connector-curvature="0"
         id="path4350"
         d="m 88.094844,50.75048 c 0.0058,-0.0057 0.148716,-0.08784 0.317522,-0.182583 0.842294,-0.472737 1.406326,-0.826736 1.96262,-1.231783 0.528678,-0.384938 0.722365,-0.557538 0.830955,-0.740487 0.232917,-0.392411 0.596439,-1.389726 1.336333,-3.6662 0.105723,-0.325283 0.197391,-0.602766 0.203708,-0.61663 0.0063,-0.01386 0.01779,-0.02521 0.02549,-0.02521 0.03805,0 0.206473,-0.240787 0.37951,-0.542555 0.239273,-0.417283 0.481049,-0.935972 0.795366,-1.706329 l 0.10929,-0.267857 3.032161,-0.0028 c 1.667688,-0.0015 3.032161,1.11e-4 3.032161,0.0037 0,0.0036 -0.137475,0.243395 -0.3055,0.532944 -0.679626,1.171171 -1.083718,1.895204 -1.798112,3.221766 -0.483252,0.897355 -0.427443,0.80682 -0.633999,1.028504 -0.06665,0.07154 -0.135982,0.150181 -0.154062,0.174766 -0.04005,0.05446 -0.0786,0.06905 -0.182425,0.06905 -0.146696,0 -0.229536,0.03187 -0.435947,0.167713 -0.586487,0.38598 -1.627375,1.362746 -3.16359,2.968702 -0.666496,0.696754 -0.716856,0.747513 -0.741631,0.747513 -0.01356,0 -0.05385,0.01758 -0.08953,0.03906 l -0.06487,0.03906 -2.233023,0 c -1.368422,0 -2.228918,-0.004 -2.22242,-0.01032 z m 3.503906,-2.400389 c 0.0038,-0.0061 0.0016,-0.01116 -0.0049,-0.01116 -0.0065,0 -0.01182,0.005 -0.01182,0.01116 0,0.0061 0.0022,0.01116 0.0049,0.01116 0.0027,0 0.008,-0.005 0.01182,-0.01116 z m 3.53379,-0.421317 c 0.01388,-0.0177 0.01349,-0.0181 -0.0042,-0.0042 -0.01074,0.0084 -0.01953,0.01721 -0.01953,0.01953 0,0.0092 0.0092,0.0033 0.02375,-0.01532 z m -0.07529,-0.03127 c 0.0038,-0.0099 0.0019,-0.01441 -0.0044,-0.0105 -0.0061,0.0038 -0.01103,0.01154 -0.01103,0.01732 0,0.01605 0.008,0.01252 0.01542,-0.0068 z m 0.153416,-0.03569 c 0.01388,-0.0177 0.01349,-0.0181 -0.0042,-0.0042 -0.01074,0.0084 -0.01953,0.01721 -0.01953,0.01953 0,0.0092 0.0092,0.0033 0.02375,-0.01532 z m 1.313308,-1.109933 c 0.02236,-0.02236 0.01612,-0.02959 -0.05636,-0.06522 l -0.06975,-0.03429 0.04743,0.04064 c 0.02609,0.02235 0.04743,0.04776 0.04743,0.05645 0,0.01934 0.0133,0.02037 0.03125,0.0024 z m -0.66183,-0.354911 c 0.01111,-0.01228 0.01458,-0.02232 0.0077,-0.02232 -0.0069,0 -0.01787,0.01004 -0.02444,0.02232 -0.0066,0.01228 -0.01004,0.02232 -0.0077,0.02232 0.0023,0 0.01333,-0.01004 0.02444,-0.02232 z m 0.07254,0 c -0.0092,-0.0059 -0.02176,-0.01082 -0.0279,-0.01082 -0.0061,0 -0.0036,0.0049 0.0056,0.01082 0.0092,0.0059 0.02176,0.01082 0.0279,0.01082 0.0061,0 0.0036,-0.0049 -0.0056,-0.01082 z m -3.063616,-1.674107 c -0.0038,-0.0061 -0.01192,-0.01116 -0.01806,-0.01116 -0.0061,0 -0.0081,0.005 -0.0043,0.01116 0.0038,0.0061 0.01192,0.01116 0.01806,0.01116 0.0061,0 0.0081,-0.005 0.0043,-0.01116 z"
         style="opacity:1;fill:#fad48b;fill-opacity:1;stroke:#fad48b;stroke-width:0;stroke-miterlimit:4;stroke-dasharray:none;stroke-dashoffset:0;stroke-opacity:1" />
      <path
         inkscape:connector-curvature="0"
         id="path4352"
         d="m 88.094844,50.750266 c 0.0058,-0.0058 0.145084,-0.0861 0.30945,-0.178457 0.92418,-0.519278 1.486583,-0.876523 2.106286,-1.337936 0.535444,-0.398677 0.635964,-0.502442 0.786373,-0.811759 0.230096,-0.473195 0.563922,-1.408397 1.218658,-3.414028 0.12012,-0.367957 0.223425,-0.680043 0.229567,-0.693523 0.0061,-0.01348 0.02312,-0.02996 0.03773,-0.03661 0.03131,-0.01426 0.137875,-0.155621 0.236404,-0.313576 0.286573,-0.459417 0.584744,-1.081131 0.942276,-1.96473 l 0.09258,-0.228795 3.032896,-0.0028 c 1.668094,-0.0015 3.032906,1.9e-4 3.032906,0.0039 0,0.0037 -0.10388,0.185734 -0.230831,0.404596 -0.755466,1.3024 -1.120557,1.956014 -1.883656,3.372261 -0.465052,0.863097 -0.41657,0.784543 -0.619937,1.004464 -0.07096,0.07673 -0.142926,0.157906 -0.159935,0.180392 -0.01701,0.02249 -0.03945,0.04451 -0.04987,0.04894 -0.01042,0.0044 -0.07168,0.01193 -0.136134,0.01667 -0.146378,0.01077 -0.199818,0.02849 -0.34229,0.113523 -0.576374,0.343999 -1.731117,1.426 -3.457615,3.239805 -0.399713,0.419927 -0.51122,0.530134 -0.536382,0.530134 -0.01265,0 -0.0504,0.01745 -0.08387,0.03878 l -0.06087,0.03878 -2.237165,2.86e-4 c -1.403601,1.79e-4 -2.233215,-0.0036 -2.226562,-0.01025 z m 8.442522,-4.017097 c 0,-0.0087 -0.101534,-0.06835 -0.116296,-0.06835 -0.004,0 0.0105,0.01559 0.0322,0.03464 0.0217,0.01905 0.03945,0.04183 0.03945,0.05062 0,0.01252 0.0048,0.01339 0.02232,0.004 0.01228,-0.0066 0.02232,-0.01599 0.02232,-0.02094 z m -0.680804,-0.330623 c 0.008,-0.0096 0.0091,-0.01674 0.0026,-0.01674 -0.0062,0 -0.01422,0.0075 -0.01776,0.01674 -0.0035,0.0092 -0.0047,0.01674 -0.0026,0.01674 0.0021,0 0.01012,-0.0075 0.01776,-0.01674 z"
         style="opacity:1;fill:#fad48b;fill-opacity:1;stroke:#fad48b;stroke-width:0;stroke-miterlimit:4;stroke-dasharray:none;stroke-dashoffset:0;stroke-opacity:1" />
      <path
         inkscape:connector-curvature="0"
         id="path4354"
         d="m 88.094844,50.750402 c 0.0058,-0.0057 0.173828,-0.10293 0.373325,-0.216017 0.826438,-0.468473 1.341185,-0.791764 1.86942,-1.174104 0.520514,-0.376751 0.740466,-0.567482 0.847475,-0.734886 0.22457,-0.351315 0.579968,-1.321391 1.373529,-3.749116 0.104306,-0.319102 0.192978,-0.57252 0.203068,-0.580357 0.128594,-0.09987 0.381075,-0.506519 0.639229,-1.029536 0.18206,-0.368852 0.330194,-0.706614 0.624089,-1.422991 l 0.02976,-0.07254 3.033809,-0.0028 c 2.63307,-0.0024 3.033002,-6.93e-4 3.027662,0.01322 -0.003,0.0088 -0.144131,0.254075 -0.312767,0.54502 -0.671262,1.15811 -1.020874,1.784783 -1.775982,3.183411 -0.486902,0.90185 -0.445872,0.834753 -0.634698,1.037947 -0.06275,0.06752 -0.133645,0.146453 -0.157549,0.175403 -0.04914,0.05952 -0.08469,0.07568 -0.166591,0.07578 -0.148327,1.69e-4 -0.266994,0.04318 -0.447966,0.162356 -0.622176,0.409735 -1.616419,1.35052 -3.467078,3.28066 -0.425372,0.443641 -0.416862,0.435378 -0.458591,0.445252 -0.01705,0.004 -0.05527,0.02227 -0.08494,0.04053 l -0.05395,0.03319 -2.23593,0 c -1.382296,0 -2.231883,-0.004 -2.225328,-0.0104 z M 96.48891,46.72258 c -0.01021,-0.01128 -0.0164,-0.02266 -0.01377,-0.0253 0.0026,-0.0026 -0.0077,-0.01067 -0.0229,-0.01786 -0.02538,-0.01198 -0.02462,-0.0096 0.0092,0.02888 0.02028,0.02307 0.03894,0.04034 0.04146,0.03837 0.0025,-0.002 -0.0038,-0.01281 -0.01398,-0.02408 z"
         style="opacity:1;fill:#fad48b;fill-opacity:1;stroke:#fad48b;stroke-width:0;stroke-miterlimit:4;stroke-dasharray:none;stroke-dashoffset:0;stroke-opacity:1" />
      <path
         inkscape:connector-curvature="0"
         id="path4356"
         d="m 88.094844,50.75049 c 0.0058,-0.0057 0.200831,-0.118821 0.433332,-0.251439 0.861389,-0.491336 1.354509,-0.804472 1.904279,-1.209238 0.445402,-0.327925 0.637706,-0.497617 0.742626,-0.655301 0.223379,-0.335718 0.561765,-1.252492 1.349933,-3.65732 l 0.218418,-0.666425 0.05595,-0.05297 c 0.05441,-0.05152 0.159745,-0.197642 0.255318,-0.354192 0.262792,-0.430454 0.568696,-1.07588 0.916874,-1.934515 l 0.08254,-0.203544 3.034118,-1.39e-4 c 2.696517,-1.23e-4 3.033408,0.0017 3.027678,0.01665 -0.004,0.0092 -0.146562,0.259096 -0.317813,0.555246 -0.707028,1.222683 -0.984844,1.720752 -1.781959,3.194704 -0.475366,0.879002 -0.434321,0.811645 -0.612076,1.004464 -0.05659,0.06138 -0.127349,0.14026 -0.157244,0.175281 -0.05922,0.06938 -0.09409,0.08696 -0.172606,0.08706 -0.19403,2.45e-4 -0.336562,0.06831 -0.673632,0.321713 -0.315707,0.237338 -0.658815,0.537351 -1.15785,1.012421 -0.369449,0.351707 -1.329101,1.317208 -1.824327,1.835445 -0.515644,0.539605 -0.688807,0.714285 -0.708079,0.714285 -0.0088,0 -0.04794,0.01758 -0.08703,0.03906 l -0.07107,0.03906 -2.23399,0 c -1.367445,0 -2.229878,-0.004 -2.223388,-0.01031 z m 8.398016,-4.029607 c -0.0065,-0.01214 -0.02299,-0.02785 -0.03666,-0.03493 -0.02072,-0.01072 -0.0194,-0.0071 0.0079,0.02206 0.03797,0.04046 0.04526,0.04372 0.02874,0.01286 z"
         style="opacity:1;fill:#fad48b;fill-opacity:1;stroke:#fad48b;stroke-width:0;stroke-miterlimit:4;stroke-dasharray:none;stroke-dashoffset:0;stroke-opacity:1" />
      <path
         inkscape:connector-curvature="0"
         id="path4358"
         d="m 88.094844,50.750368 c 0.0058,-0.0057 0.211495,-0.125499 0.457031,-0.266129 0.885386,-0.507102 1.346103,-0.801066 1.922234,-1.226497 0.40946,-0.302357 0.601439,-0.473728 0.704227,-0.628633 0.09138,-0.137706 0.225784,-0.434204 0.387041,-0.853795 0.149738,-0.389615 0.353243,-0.979207 0.754287,-2.18531 l 0.426046,-1.281293 0.06329,-0.06357 c 0.246288,-0.24739 0.718749,-1.175211 1.173278,-2.304087 l 0.07078,-0.175781 3.034645,0 c 2.720651,0 3.033967,0.0018 3.028077,0.01709 -0.004,0.0094 -0.149089,0.264284 -0.323302,0.566406 -0.682481,1.18357 -0.954947,1.670006 -1.536089,2.742393 -0.726194,1.340051 -0.667361,1.237246 -0.783606,1.369285 -0.180449,0.204965 -0.28027,0.311425 -0.302707,0.322842 -0.01345,0.0068 -0.0699,0.01524 -0.125456,0.01866 -0.172805,0.01065 -0.287914,0.06251 -0.54251,0.244422 -0.275608,0.196928 -0.59983,0.471593 -1.05849,0.896704 -0.320045,0.296635 -1.470181,1.446819 -1.991751,1.991835 -0.511004,0.533976 -0.722223,0.747768 -0.738767,0.747768 -0.0072,0 -0.0463,0.01758 -0.0868,0.03906 l -0.07363,0.03906 -2.234214,0 c -1.386395,0 -2.230192,-0.004 -2.223612,-0.01044 z m 8.381597,-4.05132 c -0.004,-0.0065 -0.0127,-0.0119 -0.01922,-0.0119 -0.0074,0 -0.0066,0.0064 0.0022,0.01701 0.01531,0.01844 0.02899,0.01433 0.01698,-0.0051 z"
         style="opacity:1;fill:#fad48b;fill-opacity:1;stroke:#fad48b;stroke-width:0;stroke-miterlimit:4;stroke-dasharray:none;stroke-dashoffset:0;stroke-opacity:1" />
      <path
         inkscape:connector-curvature="0"
         id="path4360"
         d="m 88.105446,50.743149 c 0.01228,-0.0093 0.202207,-0.120004 0.422068,-0.245963 0.856946,-0.490947 1.31275,-0.779084 1.845222,-1.166458 0.472773,-0.343943 0.698938,-0.542006 0.805758,-0.705638 0.216487,-0.331624 0.512126,-1.127495 1.256767,-3.383258 0.276878,-0.838757 0.31285,-0.940195 0.341525,-0.963087 0.01763,-0.01407 0.06675,-0.07183 0.109166,-0.128349 0.269223,-0.358753 0.63366,-1.085575 1.040636,-2.075417 l 0.127337,-0.309709 3.033015,0 c 1.668159,0 3.03302,0.003 3.03302,0.0068 0,0.0092 -0.0442,0.0869 -0.437141,0.768908 -0.612006,1.06213 -0.845131,1.480254 -1.549442,2.779018 -0.534454,0.985542 -0.557091,1.025044 -0.643537,1.122944 -0.212523,0.240682 -0.300873,0.333549 -0.326502,0.343193 -0.01588,0.006 -0.06959,0.01384 -0.119356,0.01747 -0.155343,0.01134 -0.259175,0.05266 -0.445118,0.177137 -0.273984,0.183415 -0.643684,0.490193 -1.098814,0.911801 -0.442172,0.409604 -1.384252,1.35166 -2.142912,2.142857 -0.383538,0.399988 -0.628411,0.647321 -0.640881,0.647321 -0.0055,0 -0.04449,0.01758 -0.08664,0.03906 l -0.07665,0.03906 -2.23492,-3.55e-4 c -2.001066,-3.17e-4 -2.232584,-0.0021 -2.212598,-0.0173 z m 8.370536,-4.044844 c -0.0038,-0.0061 -0.01192,-0.01116 -0.01806,-0.01116 -0.0061,0 -0.0081,0.005 -0.0043,0.01116 0.0038,0.0061 0.01192,0.01116 0.01806,0.01116 0.0061,0 0.0081,-0.005 0.0043,-0.01116 z"
         style="opacity:1;fill:#fad48b;fill-opacity:1;stroke:#fad48b;stroke-width:0;stroke-miterlimit:4;stroke-dasharray:none;stroke-dashoffset:0;stroke-opacity:1" />
      <path
         inkscape:connector-curvature="0"
         id="path4362"
         d="m 88.105446,50.743196 c 0.01228,-0.0093 0.185547,-0.110501 0.385045,-0.224904 0.890392,-0.510597 1.381863,-0.822017 1.927332,-1.22125 0.413711,-0.302798 0.656893,-0.517226 0.755214,-0.665916 0.09827,-0.148614 0.220594,-0.416626 0.382734,-0.838572 0.174083,-0.453029 0.355478,-0.979469 0.846209,-2.455856 0.236147,-0.710461 0.349624,-1.03707 0.363926,-1.047453 0.0292,-0.0212 0.129823,-0.14797 0.196204,-0.24719 0.27981,-0.418234 0.686477,-1.264308 1.063495,-2.212611 l 0.02551,-0.06417 3.034418,0 c 1.66893,0 3.034427,0.0039 3.034427,0.0086 0,0.0047 -0.091,0.166704 -0.202232,0.359933 -0.804771,1.398137 -1.089145,1.905377 -1.689265,3.013155 -0.496023,0.915624 -0.636199,1.16755 -0.686204,1.233259 -0.06789,0.08921 -0.332494,0.377601 -0.36603,0.398937 -0.01702,0.01083 -0.05291,0.01967 -0.08083,0.01992 -0.08675,7.75e-4 -0.214707,0.02903 -0.293633,0.06484 -0.257069,0.116631 -0.77633,0.535183 -1.441858,1.162213 -0.329813,0.310734 -1.25763,1.239393 -1.80112,1.802753 -0.798132,0.827313 -0.806149,0.835091 -0.913898,0.886793 l -0.09405,0.04513 -2.233861,-3.55e-4 c -1.997388,-3.17e-4 -2.231498,-0.0021 -2.21154,-0.01725 z m 8.364956,-4.044891 c 0,-0.0061 -0.0053,-0.01116 -0.01182,-0.01116 -0.0065,0 -0.0087,0.005 -0.0049,0.01116 0.0038,0.0061 0.0091,0.01116 0.01182,0.01116 0.0027,0 0.0049,-0.005 0.0049,-0.01116 z"
         style="opacity:1;fill:#fad48b;fill-opacity:1;stroke:#fad48b;stroke-width:0;stroke-miterlimit:4;stroke-dasharray:none;stroke-dashoffset:0;stroke-opacity:1" />
      <path
         inkscape:connector-curvature="0"
         id="path4364"
         d="m 88.105446,50.743196 c 0.01228,-0.0093 0.185547,-0.110501 0.385045,-0.224904 0.890392,-0.510597 1.381863,-0.822017 1.927332,-1.22125 0.413711,-0.302798 0.656893,-0.517226 0.755214,-0.665916 0.09827,-0.148614 0.220594,-0.416626 0.382734,-0.838572 0.174083,-0.453029 0.355478,-0.979469 0.846209,-2.455856 0.236147,-0.710461 0.349624,-1.03707 0.363926,-1.047453 0.0292,-0.0212 0.129823,-0.14797 0.196204,-0.24719 0.27981,-0.418234 0.686477,-1.264308 1.063495,-2.212611 l 0.02551,-0.06417 3.034418,0 c 1.66893,0 3.034427,0.0039 3.034427,0.0086 0,0.0047 -0.091,0.166704 -0.202232,0.359933 -0.804771,1.398137 -1.089145,1.905377 -1.689265,3.013155 -0.496023,0.915624 -0.636199,1.16755 -0.686204,1.233259 -0.06789,0.08921 -0.332494,0.377601 -0.36603,0.398937 -0.01702,0.01083 -0.05291,0.01967 -0.08083,0.01992 -0.08675,7.75e-4 -0.214707,0.02903 -0.293633,0.06484 -0.257069,0.116631 -0.77633,0.535183 -1.441858,1.162213 -0.329813,0.310734 -1.25763,1.239393 -1.80112,1.802753 -0.798132,0.827313 -0.806149,0.835091 -0.913898,0.886793 l -0.09405,0.04513 -2.233861,-3.55e-4 c -1.997388,-3.17e-4 -2.231498,-0.0021 -2.21154,-0.01725 z m 8.364956,-4.044891 c 0,-0.0061 -0.0053,-0.01116 -0.01182,-0.01116 -0.0065,0 -0.0087,0.005 -0.0049,0.01116 0.0038,0.0061 0.0091,0.01116 0.01182,0.01116 0.0027,0 0.0049,-0.005 0.0049,-0.01116 z"
         style="opacity:1;fill:#fad48b;fill-opacity:1;stroke:#fad48b;stroke-width:0;stroke-miterlimit:4;stroke-dasharray:none;stroke-dashoffset:0;stroke-opacity:1" />
      <path
         id="path4366"
         transform="translate(0,-3.8146973e-6)"
         d="M 97.085938 41.765625 C 94.668694 41.765625 94.049322 41.768187 94.044922 41.779297 C 94.000181 41.892861 93.781926 42.417597 93.722656 42.552734 C 93.35166 43.398642 93.024095 43.992494 92.814453 44.220703 C 92.814004 44.222979 92.816992 44.222252 92.816406 44.224609 C 92.816579 44.225276 92.816251 44.225878 92.816406 44.226562 C 92.819517 44.240312 92.833879 44.240983 92.828125 44.261719 C 92.823925 44.276789 92.821756 44.291951 92.816406 44.306641 C 92.810106 44.323781 92.788978 44.373783 92.767578 44.382812 C 92.763948 44.384341 92.759696 44.383943 92.755859 44.384766 C 92.755308 44.385502 92.75445 44.385985 92.753906 44.386719 C 92.753266 44.387796 92.752569 44.389737 92.751953 44.390625 L 92.753906 44.392578 L 92.753906 44.394531 C 92.752649 44.396608 92.75136 44.398391 92.75 44.400391 C 92.7493 44.401391 92.745555 44.403444 92.746094 44.402344 C 92.747962 44.398522 92.749569 44.394237 92.751953 44.390625 C 92.749359 44.394365 92.743677 44.4013 92.740234 44.404297 C 92.749634 44.379747 92.735622 44.444629 92.732422 44.449219 C 92.725243 44.459768 92.715562 44.468963 92.707031 44.478516 C 92.706213 44.492046 92.706219 44.513584 92.699219 44.527344 C 92.665509 44.593124 92.688387 44.538484 92.679688 44.558594 C 92.686287 44.549094 92.684147 44.554923 92.685547 44.539062 C 92.658003 44.591234 92.651222 44.586881 92.46875 45.136719 C 92.158855 46.070517 91.845268 46.993765 91.699219 47.402344 C 91.478023 48.021154 91.263645 48.50894 91.146484 48.664062 C 90.997126 48.861816 90.557453 49.213993 89.941406 49.628906 C 89.525953 49.908717 89.184027 50.117235 88.462891 50.53125 C 88.272601 50.640499 88.108609 50.737694 88.099609 50.746094 C 88.085819 50.758884 88.433781 50.761719 90.320312 50.761719 L 92.554688 50.761719 L 92.648438 50.714844 C 92.754356 50.662358 92.765524 50.651166 93.654297 49.734375 C 94.194561 49.177079 95.161027 48.21301 95.433594 47.958984 C 95.904432 47.520172 96.314619 47.175482 96.576172 47 C 96.779017 46.863902 96.890344 46.818214 97.064453 46.802734 C 97.111722 46.798534 97.163808 46.787244 97.179688 46.777344 C 97.217591 46.753657 97.497524 46.443222 97.558594 46.357422 C 97.609667 46.285662 97.718356 46.09058 98.273438 45.068359 C 98.764491 44.164048 99.057273 43.637482 99.570312 42.742188 C 100.09709 41.822865 100.11889 41.784176 100.11914 41.773438 C 100.11925 41.768836 98.754922 41.765625 97.085938 41.765625 z M 92.738281 44.40625 C 92.734778 44.409287 92.734789 44.41341 92.728516 44.419922 C 92.727755 44.420712 92.731722 44.418813 92.732422 44.417969 C 92.73508 44.414646 92.73612 44.409908 92.738281 44.40625 z "
         style="opacity:1;fill:#fad48b;fill-opacity:1;stroke:#fad48b;stroke-width:0;stroke-miterlimit:4;stroke-dasharray:none;stroke-dashoffset:0;stroke-opacity:1" />
    </g>
  </g>
</svg>
