<?xml version="1.0" encoding="UTF-8" standalone="no"?>
<svg
   xmlns:dc="http://purl.org/dc/elements/1.1/"
   xmlns:cc="http://creativecommons.org/ns#"
   xmlns:rdf="http://www.w3.org/1999/02/22-rdf-syntax-ns#"
   xmlns:svg="http://www.w3.org/2000/svg"
   xmlns="http://www.w3.org/2000/svg"
   xmlns:sodipodi="http://sodipodi.sourceforge.net/DTD/sodipodi-0.dtd"
   xmlns:inkscape="http://www.inkscape.org/namespaces/inkscape"
   version="1.1"
   id="svg3364"
   viewBox="0 0 138.88306 65.855318"
   height="18.585835mm"
   width="39.195885mm"
   inkscape:version="0.91 r13725"
   sodipodi:docname="cenar_paths_plain.svg">
  <sodipodi:namedview
     pagecolor="#ffffff"
     bordercolor="#666666"
     borderopacity="1"
     objecttolerance="10"
     gridtolerance="10"
     guidetolerance="10"
     inkscape:pageopacity="0"
     inkscape:pageshadow="2"
     inkscape:window-width="1283"
     inkscape:window-height="686"
     id="namedview3384"
     showgrid="false"
     inkscape:zoom="2.332898"
     inkscape:cx="140.72187"
     inkscape:cy="26.737528"
     inkscape:window-x="0"
     inkscape:window-y="0"
     inkscape:window-maximized="0"
     inkscape:current-layer="svg3364" />
  <defs
     id="defs3366" />
  <metadata
     id="metadata3369">
    <rdf:RDF>
      <cc:Work
         rdf:about="">
        <dc:format>image/svg+xml</dc:format>
        <dc:type
           rdf:resource="http://purl.org/dc/dcmitype/StillImage" />
        <dc:title />
      </cc:Work>
    </rdf:RDF>
  </metadata>
  <g
     style="display:inline"
     transform="translate(-42.050536,-181.91555)"
     id="layer1">
    <g
       style="font-style:normal;font-variant:normal;font-weight:normal;font-stretch:normal;font-size:60px;line-height:125%;font-family:'Coffee House';-inkscape-font-specification:'Coffee House';letter-spacing:0px;word-spacing:0px;fill:#fad48b;fill-opacity:1;stroke:none;stroke-width:1px;stroke-linecap:butt;stroke-linejoin:miter;stroke-opacity:1"
       id="flowRoot3372">
      <path
         d="m 78.863281,181.91555 0.84961,0 q 0.117187,0 0.117187,0.0879 l 0.205078,-0.0879 q 1.113281,0 1.933594,0.52734 l 0.205078,-0.11719 q 1.757813,0.64454 2.373047,1.9336 l 0.527344,0.8789 0.117187,0 0,0.64454 -0.322265,0 0.117187,0.52734 q -0.205078,0.11719 -0.439453,0.11719 l 0.117187,0.20507 0,0.11719 q -1.933593,1.43555 -1.933593,1.9336 l -0.117188,0 -0.205078,-0.11719 -0.117187,0.20508 q 0.205078,0.0586 0.205078,0.23437 l -0.322266,0.20508 q 0.234375,0.35156 0.234375,0.52734 l -0.234375,0.11719 q -0.205078,-0.11719 -0.322266,-0.11719 0,0.23438 -0.644531,0.23438 0,0.0879 0.644531,0.9668 l 0,0.0879 q -0.439453,0 -0.849609,1.08398 0,0.11719 -0.205078,0.11719 l 0.08789,0.20508 -0.205079,0.43945 -0.205078,-0.11719 -0.322265,0.20508 -0.117188,0 q -0.117187,0 -0.117187,-0.0879 -0.644532,0.20508 -0.84961,0.20508 l 0,0.11718 q 0.527344,0 0.527344,0.20508 l 0,0.11719 q 0,0.14648 -0.322266,0.32227 0,-0.23438 -0.205078,-0.23438 0,0.23438 -0.322265,0.23438 0.05859,0.64453 0.439453,0.64453 l 0,0.0879 q -0.234375,0 -0.439453,0.55664 l 0,0.0879 0.205078,0 0,0.23437 q 0,0.29297 -1.054688,0.41016 l -0.644531,-0.0879 0,0.41016 0.08789,0.23437 q -0.205078,0.0293 -0.205078,0.20508 0.439453,0.46875 0.439453,0.52734 l 0,0.32227 q -0.556641,0.46875 -0.556641,0.9668 l -0.527344,0 0,-0.20508 -0.117187,0 q -0.205078,0.0293 -0.205078,0.20508 l 0,0.32226 0.117187,0 q 0.205078,-0.0879 0.322266,-0.0879 0,0.20508 -0.322266,0.20508 l 0,0.20508 0.08789,0.23437 q -0.644531,0.43945 -0.644531,1.28906 l -0.205079,0 q 0,-0.26367 -1.083984,-0.76171 -0.380859,0 -0.732422,-1.40625 l 0,-0.9668 q 0.966797,-1.17188 0.966797,-1.37695 0,-0.20508 0.322266,-0.55665 l 0,-0.0879 -0.234375,-0.32226 q 0.234375,-0.26367 0.644531,-1.8457 0.498047,0 0.644531,-0.84961 0.644531,0 0.644531,-0.9668 0.908204,-0.64453 1.083985,-0.64453 0,-0.11719 -0.117188,-0.32227 0,-0.52734 0.556641,-1.17187 0.0293,-0.76172 0.732422,-1.20117 0,-1.0254 1.523437,-2.25586 l 0.527344,0 0,-0.20508 q -0.205078,-0.26367 -0.205078,-0.52735 l -0.556641,0 q -0.351562,0 -0.732422,0.32227 l -0.644531,-0.11719 q 0,0.11719 -0.878906,0.43946 l 0,0.0879 -0.205078,0 0,-0.20508 -0.205078,0 q 0,0.20508 -1.289063,0.84961 -0.205078,-0.0879 -0.439453,-0.0879 -0.146484,0.14648 -2.138672,1.05468 0,0.11719 -0.117187,0.11719 -0.117188,0 -0.322266,-0.11719 l -0.644531,0.11719 -0.205078,-0.11719 q 0,0.23438 -0.234375,0.23438 l -0.527344,-0.11719 q 0,0.20508 -0.205078,0.20508 -0.175781,0 -0.322266,-0.32227 -0.205078,0 -0.55664,0.64454 -0.527344,0 -1.054688,0.55664 l -0.234375,0 -0.527344,-0.11719 q -0.46875,0 -1.083984,0.84961 -0.322266,0 -0.644531,0.55664 -0.38086,0 -0.966797,0.73242 -0.585938,0 -2.900391,1.93359 -0.263672,0 -0.849609,0.43946 -0.498047,0 -1.289063,1.08398 l -0.117187,0 q 0,-0.43945 -0.205078,-0.43945 l -0.117188,0.20508 0,0.32226 0.205078,0 q -0.644531,0.61524 -0.644531,0.9668 0,0.20508 -2.578125,2.49023 0,0.20508 -0.527344,0.20508 l 0,0.64453 q -0.615234,0 -1.289062,1.08399 -0.146485,0 -1.933594,2.13867 -0.673828,0.84961 -1.611328,1.61133 0,0.49804 -1.816406,2.57812 -1.816407,2.8125 -1.933594,3.22266 l -0.761719,1.28906 -0.322265,0 q 0,0.23438 0.322265,0.23438 l 0,0.41015 q -0.410156,0 -0.849609,0.64453 l -0.117188,0 0,0.43946 q 0.205078,0 0.205078,0.11718 -0.08789,0.20508 -0.08789,0.32227 0.205078,0.0293 0.205078,0.20508 l 0,0.11719 q 0,0.0879 -0.117188,0.0879 l 0.234375,0.55664 q -0.322265,0.70312 -0.322265,0.84961 0.146484,0 0.527344,0.76171 0.439453,0.73243 0.644531,0.9668 l -0.117188,0.20508 q 0.117188,0.0586 0.117188,0.76172 -0.322266,0 -0.322266,0.20508 l 0.205078,0.32226 q -0.08789,0 -0.08789,0.11719 0.08789,0 0.08789,0.0879 0.205078,-0.0879 0.322266,-0.0879 0.878906,0 1.611328,1.61133 0.878906,0 1.289063,0.84961 l 0.117187,0 0.527344,-0.11719 q 0.05859,0.23437 0.234375,0.23437 l 0.527344,0 0.322265,-0.23437 0.205078,0 1.083985,0.43945 q 0.205078,-0.11718 0.322265,-0.11718 0.205078,0.11718 0.322266,0.11718 0,-0.11718 0.117187,-0.11718 l -0.117187,-0.20508 0,-0.32227 0.117187,0 q 0.08789,0 0.08789,0.11719 l 1.201172,-0.55664 0.527344,0.11719 0.117187,0 0.527344,-0.11719 q 0.205078,0.26367 0.205078,0.43945 1.113281,-0.20508 1.289063,-0.20508 0,0.0879 0.117187,0.0879 0,-0.20507 0.966797,-0.52734 l 0,-0.11719 0.322266,0 q 0.732421,0 2.373046,-1.05468 l 0.205079,0.0879 q 0,-0.14649 0.322265,-0.32227 0.175781,0 0.322266,0.55664 l -0.205078,0.41016 0.322265,0 q 0,-0.26367 0.84961,-0.52735 l 0.117187,0 0,0.52735 q 0.263672,-0.20508 0.527344,-0.20508 l -0.08789,-0.20508 0,-0.23437 q 0.410157,0 0.644532,-0.41016 l 0.205078,0.0879 0.117187,0 0.322266,-0.20508 0.410156,0 q 1.201172,0.52735 1.40625,0.52735 l 0.117188,-0.20508 0,-0.11719 -0.322266,0 q 0,-0.20508 0.410156,-0.20508 0,-0.20508 -0.205078,-0.20508 l -0.527344,0 0,-0.11718 q 0.0293,-0.20508 0.205078,-0.20508 l 0.527344,0.20508 q 0.205078,-0.11719 0.439453,-0.11719 l 0,-0.20508 q -0.644531,0 -0.644531,-0.32226 l 0,-0.11719 q 0.0293,-0.20508 0.205078,-0.20508 0.322266,0 0.322266,0.43945 l 0.439453,-0.32226 0.117187,0 q 0.644532,0.35156 0.644532,0.96679 0,0.20508 -0.234375,0.20508 l -0.08789,0 -0.556641,-0.11719 q 0,0.32227 -0.410156,0.32227 l 0.08789,0.23438 q -0.146485,0 -0.322266,0.41015 0.175781,0 0.439453,0.23438 l 0,-0.11719 q 0.527344,0.20508 0.761719,0.20508 l 0,0.23437 q -1.376953,0.0879 -1.611328,0.0879 l 0,-0.0879 q -0.351563,0.20508 -0.556641,0.20508 l 0,0.11719 q 0.791016,0 1.289063,0.20508 0,0.17578 -0.410156,0.43945 -0.234375,-0.20508 -1.523438,-0.32227 L 66.5,219.50344 q -0.205078,0.11719 -0.322266,0.11719 l 0.117188,0.20507 0,0.23438 -0.439453,0 0,-0.11719 q -0.351563,0.20508 -0.527344,0.20508 l 0.08789,0.23437 q 0,0.58594 -1.494141,1.05469 -0.205078,-0.0879 -0.439453,-0.0879 -0.117188,0.20508 -0.117188,0.32227 l -0.644531,0 -0.322266,-0.23438 q -0.117187,0.55664 -0.322265,0.55664 l -0.205078,-0.11718 q 0,0.11718 -0.117188,0.11718 0,-0.23437 -0.205078,-0.23437 l -0.644531,0.32226 q -0.410156,-0.0879 -0.761719,-0.32226 0,0.73242 -0.732422,1.20117 -0.175781,0.41016 -0.322265,0.41016 -0.556641,-0.11719 -0.556641,-0.32227 -0.644531,0.23438 -0.849609,0.23438 0,-0.23438 -0.205079,-0.23438 0,0.32227 -0.234375,0.32227 -0.08789,-0.17579 -0.08789,-0.52735 l -0.322266,0 q 0,0.67383 -0.878906,0.76172 0,-0.23437 -0.205078,-0.23437 l 0,0.43945 -0.205078,0 Q 55.279297,223.605 55.103516,223.605 l 0,-0.11719 0.117187,-0.20507 -0.234375,0 0,0.20507 -0.527344,-0.11718 0,0.32226 q 0.439453,0 0.439453,0.23438 0,0.20507 -0.234375,0.20507 -0.849609,-0.0586 -0.849609,-0.32226 l 0.117188,-0.20508 q -1.845704,0 -1.845704,-0.87891 l -0.205078,0.11719 -0.439453,-0.32226 -0.205078,0.11718 q -0.205078,0 -0.205078,-0.11718 l -0.761719,0.11718 -0.322265,0 q -0.791016,0 -0.84961,-0.32226 0.08789,0 0.08789,-0.11719 -0.08789,0 -0.08789,-0.11719 l -0.234375,0.11719 -0.322265,0 -0.732422,-0.32226 q 0,-0.20508 -1.289063,-0.76172 0,-0.41016 -2.167969,-2.34375 0,-0.20508 -0.322265,-0.55664 l 0.117187,-0.64454 q -0.117187,-0.20507 -0.117187,-0.32226 0.117187,-0.20508 0.117187,-0.32227 -0.351562,-1.05468 -0.761718,-1.05468 -0.117188,-0.73243 -0.322266,-0.9668 l 0,-0.11719 0.234375,-0.32226 0,-0.11719 q 0,-0.0586 -0.439453,-0.52735 0,-0.17578 0.205078,-0.64453 -0.08789,-0.20507 -0.08789,-0.43945 l 0.08789,0 -0.08789,-0.20508 0,-0.11719 q 0,-0.14648 0.322266,-0.32226 l -0.117188,-0.20508 q 0.322266,-2.37305 0.527344,-2.37305 0.439453,0 0.439453,-0.73242 -0.205078,0 -0.205078,-0.23437 0.673828,-0.9668 1.933594,-0.9668 0.0293,0.23438 0.205078,0.23438 0.175781,0 0.322266,-0.43946 -0.644532,-1.02539 -0.644532,-1.08398 0.117188,-0.52735 0.439454,-0.52735 l 0,-0.20507 -0.234375,0 0,-0.11719 0.761718,-0.52735 q -0.117187,0 -0.117187,-0.11718 l 0.117187,0 q 0,-0.11719 -0.439453,-0.64453 0.117188,-0.84961 0.556641,-0.84961 0.673828,0.20507 0.732422,0.20507 0.966797,-0.0586 0.966797,-0.20507 0,-0.52735 0.55664,-0.76172 l -0.117187,-0.20508 q 0,-0.20508 1.49414,-0.67383 0,-0.29297 0.322266,-0.52734 -0.205078,-0.43946 -0.205078,-0.64453 0.117187,0 0.117187,-0.11719 l 0.205078,0.11719 0.117188,0 q 0.05859,-0.84961 0.322266,-0.84961 0.322265,0.79101 0.322265,1.05468 0.175781,-0.0879 0.527344,-0.0879 l -0.117188,-0.23437 q 0,-0.17578 0.966797,-0.32227 l 0,-0.41015 -0.322265,0.20508 q -0.84961,-0.20508 -1.376953,-0.20508 l 0,-0.11719 q 0,-0.11719 0.08789,-0.11719 -0.05859,-0.20508 -0.205078,-1.17187 0.175781,0 0.439453,-0.43946 -0.117187,0 -0.117187,-0.0879 0.55664,-0.23437 0.849609,-0.23437 l 0,-0.0879 -0.205078,0 0,-0.23438 q 0.791016,-0.32226 0.966797,-0.32226 l 0.527344,0 0.234375,0.11718 0.08789,-0.43945 -0.205078,0.11719 q -0.205078,0 -0.205078,-0.20508 l 0.08789,-0.23437 -0.410157,0 0,-0.0879 q 0,-0.23438 0.644532,-0.23438 l 0,-0.20508 q -0.439454,0 -0.439454,-0.20508 l 0.644532,0 q 0,-0.32226 0.205078,-0.32226 l 0.322265,0 q 0,0.32226 0.234375,0.32226 l 0,0.32227 q -0.234375,0 -0.234375,0.0879 0.439454,0.49805 0.556641,1.08398 l 0.205078,0 0,0.11719 q -0.322265,0 -0.322265,0.64453 l 0.322265,0 0,-0.11718 q -0.117187,-0.20508 -0.117187,-0.32227 l 0.117187,0 0.439453,0.11719 -0.117187,-0.23438 0,-0.0879 q 0,-0.23437 0.439453,-0.23437 l 0,-0.20508 -0.322266,0 0,-0.32227 q 0.05859,0 0.410157,-0.11718 l -0.08789,-0.20508 0.08789,-0.20508 q -0.322266,0 -0.644532,-0.64453 l 0.556641,0.0879 0.08789,0 q 0,-0.0879 -0.08789,-0.32227 0.08789,-0.55664 0.08789,-0.96679 l 0,-0.20508 0.234375,0 0,0.20508 0.08789,0 q 0.263672,-0.20508 0.439453,-0.20508 l -0.117187,-0.20508 0,-0.23437 0.117187,0 q 0.410157,0.64453 0.527344,0.64453 l 0.234375,-0.32227 0,-0.32226 q 1.054688,-0.52735 1.494141,-0.52735 l 0,0.11719 q 0.205078,-0.11719 0.322265,-0.11719 0,-0.20508 -0.439453,-0.20508 0.117188,-0.73242 0.234375,-0.96679 l -0.322265,0 0,-0.23438 q 0.234375,0 0.322265,-0.64453 0.556641,-0.73242 0.644531,-0.73242 0.205079,0.0879 0.322266,0.0879 0,-0.14649 0.527344,-0.52734 l 0.439453,0 q 0.205078,0.0293 0.205078,0.20507 -0.644531,0 -0.644531,0.23438 l 0.644531,0 0,-0.23438 0.205078,0 0.234375,0.11719 0,-0.20508 q -0.117187,-0.20508 -0.117187,-0.32226 1.289062,-0.41016 1.49414,-0.76172 0.175782,0.43945 0.322266,0.43945 0.322266,-0.64453 0.966797,-0.64453 l 0.117187,0 q -0.439453,-0.49805 -0.439453,-0.76172 l 0.117188,0 q 0.205078,0.11719 0.322265,0.11719 0.205078,-0.11719 0.322266,-0.11719 l 0,-0.20508 q -0.08789,-0.32226 -1.083984,-0.55664 l 0,-0.32226 q 0,-0.11719 0.644531,-0.41016 l 0,-0.32226 0.761719,-0.11719 q 0,0.11719 0.117187,0.11719 0,-0.46875 0.527344,-0.76172 0,0.11718 0.117187,0.11718 0,-0.32226 0.205078,-0.32226 0.263672,0.46875 0.761719,0.64453 0.175781,-0.11719 0.439453,-0.11719 l 0.205078,0.11719 q 0.439454,0 0.527344,-0.76172 l 0.322266,0 0.234375,0.11719 q 0,-0.26367 1.376953,-0.64453 0.0293,0.20508 0.234375,0.20508 l 0.732422,0 0.322265,-0.20508 q 0.117188,0 0.117188,0.0879 0.205078,-0.0879 0.322266,-0.0879 l 0,-0.64453 -0.117188,0 q -0.263672,0 -0.322266,0.41015 l -0.322265,0 -0.205078,-0.0879 q -0.117188,0.20508 -0.117188,0.32227 -0.205078,0 -0.205078,-0.23438 l 0,-0.0879 0.849609,-0.76172 0.761719,0 0.527344,-0.11718 q 0.117187,0.20507 0.117187,0.32226 l 0.117188,0 q 0,-0.32226 0.205078,-0.32226 l 0.439453,0 q 0.205078,0 0.205078,0.32226 l 0.439453,0 0.322266,-0.20508 0.08789,0 q 0.410156,0.32227 0.644531,0.32227 l 0.234375,0 0,-0.11719 -0.439453,0 0,-0.32226 q 0.380859,0.23437 0.849609,0.23437 0,-0.11719 0.117188,-0.11719 l -0.117188,-0.20508 q 0.410156,-0.58593 2.8125,-0.96679 z m -6.240234,1.8164 q 0.0293,0.20508 0.205078,0.20508 l 0.117187,0 q 0,-0.20508 -0.205078,-0.20508 l -0.117187,0 z m -2.783203,0 0.322265,0 0,0.20508 -0.322265,0 0,-0.20508 z m 0.410156,0.84961 0,0.11719 q 0,0.26367 0.878906,0.64453 0.08789,0.17578 0.08789,0.52735 0.205078,-0.0879 0.322265,-0.0879 l 0.439454,0.20507 q 0.175781,-0.29297 0.322265,-1.28906 l -0.205078,0 0,0.20508 -0.117187,0 -0.644532,-0.32227 q 0,0.17578 -0.322265,0.32227 l -0.205078,0 -0.439454,-0.32227 -0.117187,0 z m -2.900391,0 0.117188,0.23438 -0.205078,0.0879 -0.117188,-0.20508 0.205078,-0.11719 z m 4.189453,0.64453 0.234375,0 q 0.205079,0.0586 0.205079,0.23438 l -0.205079,0.0879 q -0.234375,0 -0.234375,-0.20508 l 0,-0.11719 z m -6.328125,2.37305 0,0.43945 0.117188,0 0,-0.43945 -0.117188,0 z m 3.544922,0.20508 0,0.11719 q 0.175782,0 0.439453,0.20508 l 0,-0.32227 -0.439453,0 z m 9.462891,7.08984 0.08789,0 q 0.234375,0 0.234375,-0.20507 l -0.117188,0 q -0.205078,0.0293 -0.205078,0.20507 z m -22.998047,3.22266 q 0,0.14648 0.527344,0.55664 l 0.117187,0 0,-0.23437 q 0,-0.14649 -0.322265,-0.32227 l -0.322266,0 z m 18.808594,18.7207 q 0.527344,0.0586 0.527344,0.52735 l 0.205078,0 0.322265,-0.20508 0.117188,0 q 0,0.32226 0.439453,0.32226 0.205078,0.0293 0.205078,0.20508 -0.703125,0.20508 -0.966797,0.20508 l -0.205078,0 q 0,0.26367 -0.966797,0.87891 l -0.55664,0 q -0.146485,0 -0.527344,-0.64453 l 0,-0.23438 q 1.083984,-0.64453 1.40625,-1.05469 z m -3.984375,1.69922 0.527344,0.11719 0,0.52734 q 0,0.23438 -0.205079,0.23438 0,-0.11719 -0.527343,-0.76172 l 0.205078,-0.11719 z m 1.728515,0.43945 0.732422,0 0,0.32227 q -0.673828,0.20508 -0.849609,0.20508 l -0.117188,-0.20508 0,-0.11719 q 0.0293,-0.20508 0.234375,-0.20508 z m -2.050781,0.32227 0.117188,0 0,0.32227 -0.117188,0 q -0.205078,0 -0.205078,-0.20508 l 0.205078,-0.11719 z M 49.625,222.19875 q 0.0293,0.20508 0.205078,0.20508 l 0.234375,0 q 0,-0.20508 -0.234375,-0.20508 l -0.205078,0 z"
         style="font-style:normal;font-variant:normal;font-weight:normal;font-stretch:normal;font-family:'Sandy Bay';-inkscape-font-specification:'Sandy Bay'"
         id="path3398" />
      <path
         d="m 86.539062,205.41164 0.585938,0 0.439453,0.35156 q 0.205078,-0.11718 0.46875,-0.11718 0,0.14648 1.347656,0.55664 l 0,0.11718 0.234375,-0.11718 0.234375,0 0,0.23437 q 0.117188,0 0.351563,-0.11719 1.699219,0 1.699219,0.58594 l 0.585937,-0.11719 q 0.322266,0.41016 1.816406,0.90821 0,0.14648 1.025391,1.14258 l 0,0.11718 0.234375,-0.11718 q 1.201172,0.76171 1.259766,1.02539 -0.117188,0 -0.117188,0.11718 0.292969,0 0.439453,0.79102 l -0.55664,0.9082 0,0.11719 q 0.351562,0 0.351562,0.11719 -0.117187,0.23437 -0.117187,0.35156 0.234375,0.0293 0.234375,0.23438 l -0.703125,0.9082 q -0.205079,-0.11719 -0.439454,-0.11719 l 0,0.43945 -0.46875,0 0,-0.0879 -0.117187,0 q 0,0.55664 -0.556641,0.55664 l -0.117187,-0.23437 q -0.703125,0.14648 -0.703125,0.35156 l 0,0.11719 0.234375,-0.11719 0.117187,0 q 0,0.29297 -1.49414,0.55664 0,-0.20508 -0.205078,-0.20508 l -0.234375,0 q 0,0.32227 -0.46875,0.55664 l -0.117188,0 0,-0.23437 q -1.582031,0.0879 -1.582031,0.23437 -0.585938,0.23438 -1.259766,0.67383 0,-0.17578 -0.46875,-0.43945 0,0.35156 -0.234375,0.35156 -1.02539,-0.0879 -1.02539,-0.23437 l -0.205079,0.11718 -0.117187,0 q -0.234375,0 -0.234375,-0.23437 l -0.46875,0.23437 q -0.322266,-0.11718 -0.322266,-0.23437 l -0.234375,0.11719 q -0.234375,0 -0.234375,-0.46875 l -0.234375,0.11718 q -0.55664,0 -0.55664,-0.23437 l -0.234375,0.11719 -0.234375,0 -2.607422,-1.69922 q 0,-0.14649 -0.703125,-0.82031 l -0.791016,0.11718 -0.234375,0 0,0.23438 0.117188,0 q 0.234375,-0.11719 0.351562,-0.11719 l 0.117188,0.23438 q 0,0.35156 -0.585938,0.35156 0.234375,0.35156 0.234375,0.55664 -0.46875,0.64453 -0.46875,1.61133 l 0,0.11718 q 0.351563,1.81641 0.820313,2.60743 l 0,0.23437 q 0,0.11719 -0.117188,0.11719 0,0.11719 0.117188,0.11719 l -0.117188,0.55664 0,0.11718 0.117188,0 0.322265,-0.23437 0,0.11719 q 0,0.11718 -0.117187,0.11718 l 0.117187,0.23438 0,0.35156 -0.205078,0 0,0.23438 0.205078,-0.11719 0.117188,0 q 0.263672,0 1.49414,0.67383 l 0.234375,-0.11719 0.673829,0.11719 0.117187,0 0.351563,-0.23438 0.791015,0.11719 q 0.84961,-0.79102 1.025391,-0.79102 l 0.234375,0.11719 q 0.996094,-0.20508 1.376953,-0.70312 l 0.205078,0.11718 q 0,-0.17578 1.728516,-0.67382 0,-0.14649 1.376953,-0.58594 0,-0.11719 0.08789,-0.11719 0.175782,0.55664 0.46875,0.58594 0,-1.17188 1.816407,-1.49414 0,-0.20508 2.285156,-1.02539 0.205078,-0.35156 2.050781,-0.79102 0,-0.46875 0.703125,-0.46875 0,0.20508 0.673828,0.35156 0.439453,0 0.791016,-0.79101 l 0.117187,0 0.234375,0.11719 0.117188,-0.23438 q -0.234375,0 -0.234375,-0.23437 l 0.351562,-0.23438 0.556643,0.11719 q 0,-0.32227 0.23437,-0.32227 l 0.23438,0.0879 0.23437,-0.0879 q 0.20508,0.0879 0.43946,0.0879 0,-0.14648 1.37695,-0.9082 l 0.11719,0 0,0.11719 -0.23438,0.35156 q 0.35156,0.23438 0.82031,0.35156 0,-0.52734 0.55665,-0.70312 0.9082,0.29297 0.9082,0.46875 l -0.9082,0.79101 Q 104,214.08352 103.88281,214.08352 l 0.23438,0.35156 q -0.23438,0.35156 -0.23438,0.55664 0,0.14648 0.58594,0.58594 Q 104,215.66555 104,215.81203 q 0.11719,0.20508 0.11719,0.32227 l -0.23438,0 q -0.32226,-0.11719 -0.32226,-0.67383 0.20508,0 0.20508,-0.23438 -0.0879,0 -0.0879,-0.11718 -0.20507,0.11718 -0.46875,0.11718 l 0.11719,0.58594 0,0.0879 -0.70312,-0.0879 0,-0.11719 0.35156,-0.46875 0,-0.11718 -0.11719,0 q -0.23437,0 -0.23437,0.46875 l -0.32227,-0.23438 -0.11719,0 q 0,0.23438 -0.23437,0.23438 l 0,0.32226 0.23437,0 0,-0.20508 0.23438,0 q 0,0.11719 0.43945,0.90821 l -0.55664,0.67383 q -0.23437,0 -0.23437,-0.43946 l -0.23438,0 -0.23437,0.11719 q 0,-0.23437 -0.20508,-0.23437 l -0.11719,0 q -0.23437,0.0293 -0.23437,0.23437 -0.20508,-0.11719 -0.46875,-0.11719 l 0,-0.11718 q 0,-0.23438 0.35156,-0.23438 0,-0.26367 -1.376955,-0.35156 -0.46875,0.23437 -0.673828,0.23437 l 0,0.35157 0.439453,0 q 0,0.26367 -0.08789,0.43945 0.205078,0.38086 0.205078,0.58594 l -0.205078,0.11718 q -0.117187,0 -0.117187,-0.11718 -1.376953,0.17578 -1.376953,0.43945 0.439453,0.20508 0.439453,0.82031 l -0.205078,0 q -0.234375,0 -0.234375,-0.23437 0.117187,0 0.117187,-0.11719 l -0.234375,-0.11719 0,0.35156 -0.117187,0 -0.791016,-0.58593 q -0.146484,0 -0.585937,0.58593 l 0,0.11719 q 0.05859,0.20508 0.234375,0.20508 0,-0.0879 0.117187,-0.0879 l 0,0.43945 q 0,0.23438 -0.234375,0.23438 l -0.117187,0 q 0,-0.49805 -1.259766,-0.58594 l -0.08789,0.23437 0.205078,0 0,0.23438 q 0,0.23437 -0.205078,0.23437 l -0.234375,0 0.117188,-0.23437 -0.46875,0 q 0.234375,0.41016 0.234375,0.9082 l -0.46875,-0.32226 q 0,0.32226 -0.205078,0.32226 l -0.585938,-0.43945 q 0,0.20508 -1.02539,0.55664 l -0.117188,0 -0.351562,-0.23437 -0.205079,0 0,0.46875 q 0.439454,0 0.439454,0.23437 -0.205079,0 -0.791016,0.67383 l -0.585938,0 q -0.55664,0 -0.55664,-0.23438 l -0.234375,0.11719 -0.351563,-0.23437 q -0.292968,0.41015 -1.142578,0.70312 l -0.08789,0 q -0.117188,0 -0.117188,-0.11719 l -0.234375,0.11719 -0.673828,0 q 0,0.32227 -0.234375,0.32227 l -0.585938,-0.0879 q 0,0.14648 -0.322265,0.32226 l -0.117188,0 q -0.263672,0 -0.46875,-0.11719 -0.439453,0.23438 -1.259765,0.23438 0,0.35156 -0.234375,0.35156 l -0.205078,0 0,-0.23437 -0.117188,0 0,0.23437 q 0.234375,0.0293 0.234375,0.23438 0,0.0879 -0.46875,0.67382 -0.351562,0 -0.351562,-0.46875 l -0.117188,0 -0.322266,0.23438 q 0,-0.14648 -0.585937,-0.43945 0,-0.14649 -0.908203,-1.02539 l 0.117187,-0.23438 -0.351562,-0.23437 -0.322266,0.23437 -0.117187,0 q -0.38086,-0.49805 -2.402344,-1.37695 0,-0.43946 -0.703125,-1.49414 0,-0.32227 -0.205078,-0.32227 0,-1.14258 0.439453,-1.14258 0,-0.0879 -0.322266,-0.35156 -0.46875,0.23438 -0.703125,0.23438 l -0.117187,-0.23438 q 0.46875,-0.17578 0.46875,-0.35156 l 0,-0.11719 q -0.615235,0 -0.908203,-0.43945 l 0,-0.11719 q 0.0293,-0.23437 0.205078,-0.23437 l -0.08789,-0.55665 0.322266,-0.58593 -0.322266,0 0,-0.11719 q 0,-0.32227 0.908203,-0.32227 l 0,-0.11718 q -0.703125,0 -0.703125,-0.23438 l 0,-0.11719 q 0.263672,0 0.9375,-0.79101 l 0.08789,0 0,-0.23438 -0.205078,0 0,-0.35156 0.117187,-0.23437 -0.585937,0 0,-0.32227 0.234375,-0.35156 0,-0.23438 q 0,-0.41015 -0.117188,-1.02539 0.117188,-0.20508 0.117188,-0.32226 l 0.234375,0 0,0.0879 q -0.117188,0.23437 -0.117188,0.35156 l 0.234375,0 q 0,-0.67383 0.205078,-0.67383 0.234375,0.11719 0.351563,0.11719 0.234375,-0.11719 0.351562,-0.11719 l 0,0.11719 0.234375,-0.11719 q 0.175782,0 0.556641,0.9082 0.234375,-0.11718 0.351563,-0.11718 l 0,-0.23438 q -0.351563,0 -0.351563,-0.23437 0,-0.14649 0.351563,-0.32227 l 0.117187,0 0,0.23438 0.205078,0 q 0,-0.23438 0.585938,-0.58594 l 0,-0.35156 0.117187,0 q 0.234375,0 0.234375,0.46875 l 0.556641,0 q 0.791015,-0.49805 0.791015,-1.02539 0,-0.0879 -0.117187,-0.67383 l -0.08789,0 q 0,0.55664 -0.703125,0.55664 l -0.117187,-0.23438 0.46875,-0.55664 0.234375,0.11719 0.673828,-0.11719 q 0,-0.17578 -0.351563,-0.35156 -0.205078,0.11719 -0.322265,0.11719 0.263672,-0.58594 0.55664,-0.58594 l 0.234375,0.11719 q 0.205079,-0.11719 0.351563,-0.11719 0,0.11719 0.08789,0.11719 0,-0.55664 0.820312,-0.55664 0.205078,0.11718 0.322266,0.11718 0,-0.70312 1.611328,-0.82031 l 0,0.11719 1.02539,-0.67383 z m -2.050781,0.9082 0,0.35157 0.234375,0 0,-0.11719 q 0,-0.23438 -0.234375,-0.23438 z m 3.544922,1.14258 0,0.58594 -0.117187,0 -0.585938,-0.11719 q 0,0.32227 -0.205078,0.32227 l -0.585938,-0.0879 q 0,0.32226 -0.673828,0.32226 0,-0.11718 -0.117187,-0.11718 l -0.46875,0.23437 q 0,-0.35156 -0.556641,-0.35156 l 0,0.23437 q 0.322266,0 0.322266,0.23438 -0.820313,1.49414 -1.582031,1.49414 -0.410157,0.9082 -1.025391,0.9082 -0.703125,-0.23437 -0.908203,-0.23437 l 0,0.11718 q 0,0.17579 0.322265,0.35157 0,-0.11719 0.117188,-0.11719 l 0.117187,0.23437 q -0.439453,0.14649 -0.439453,0.32227 l 0,0.11719 q 0.38086,1.08398 2.72461,1.8164 0.410156,0 1.699218,0.46875 0.117188,-0.20507 0.117188,-0.46875 l 0.117187,0 0.820313,0.11719 q 0.0293,-0.20508 0.205078,-0.20508 l 0,0.0879 0.234375,-0.0879 0.117188,0 0.351562,0.20508 0.117188,0 q 0,-0.58594 1.142578,-0.79101 0.0293,0.23437 0.205078,0.23437 l 0.234375,0 -0.117188,-0.58594 0.117188,0 q 0.205078,0 0.703125,0.23438 0,-0.55664 0.205078,-0.55664 0.234375,0 0.234375,0.32226 l 0.117187,0 q 0.292969,-0.43945 0.556641,-0.43945 0,-0.38086 0.117188,-0.58594 l 0.585937,0.11719 0.117188,0 -0.117188,-0.23437 q 0,-0.14649 0.673828,-1.0254 l 0.234375,0 0,0.23438 0.117188,0 0,-0.23438 q -0.117188,0 -0.117188,-0.11718 l 0.234375,-0.0879 q 0,0.32226 0.439453,0.32226 0.234375,-0.11719 0.351563,-0.11719 l 0,-0.11718 q -0.351563,0 -0.351563,-0.32227 l -0.55664,0.11719 0.117187,-0.58594 q -0.117187,0 -0.117187,-0.11719 l 0.46875,0 q 0,-1.02539 -1.962891,-1.34765 0,-0.11719 -0.673828,-0.46875 0,0.23437 -0.234375,0.23437 l -0.117188,0 q -0.234375,0 -0.234375,-0.23437 l -0.55664,0.11719 q -0.292969,-0.23438 -0.46875,-0.23438 -0.205078,0.11719 -0.322266,0.11719 0,-0.23438 -0.234375,-0.23438 0,0.11719 -0.117187,0.35157 l -0.234375,-0.11719 -0.234375,0.11719 -0.117188,-0.23438 q 0.117188,0 0.117188,-0.11719 l -0.322266,0 z m -5.830078,0.70313 0,0.32226 0.234375,0 0,-0.32226 -0.234375,0 z m -1.142578,0.9082 0.46875,0 0,0.20508 -0.46875,0 0,-0.20508 z m -4.6875,2.16797 0.234375,0 0,0.32227 -0.234375,0 0,-0.32227 z m -0.322266,0.55664 0.08789,0 -0.08789,0.58594 0.322266,0.43945 -0.117188,0.23438 -0.205078,-0.11719 -0.117187,0 0,1.02539 -0.117188,0 q -0.234375,0 -0.234375,-0.32227 0,-0.32226 0.234375,-1.14257 l -0.117187,-0.23438 q 0.175781,-0.46875 0.351562,-0.46875 z m 2.490235,0.79102 q 0.05859,0.23437 0.234375,0.23437 l 0.117187,-0.23437 -0.351562,0 z m 27.187504,0.35156 0.11718,0 q 0.20508,0.0293 0.20508,0.23437 l 0,0.23438 q 0,0.23437 -0.32226,0.23437 -0.46875,-0.17578 -0.46875,-0.35156 l 0.46875,-0.35156 z m -28.44727,0.70312 0.234375,0.0879 q 0.556641,-0.29296 0.585937,-0.43945 l -0.117187,0 q -0.703125,0.0586 -0.703125,0.35156 z m 29.58984,0 q 0.20508,0.0293 0.20508,0.20508 l -0.20508,0.11719 q -0.23437,0 -0.23437,-0.23438 l 0.23437,-0.0879 z m -5.27343,0.55664 0.23437,0.11719 0.11719,-0.23437 0,-0.11719 -0.11719,0 q -0.23437,0.0293 -0.23437,0.23437 z m 3.54492,-0.35156 0.23437,0.46875 0.23438,-0.11719 q 0.35156,0.23438 0.55664,0.23438 l 0,0.23437 -0.43945,0 0.11718,0.20508 q -0.23437,0.11719 -0.35156,0.11719 l 0.23438,0.35156 q -0.32227,0.67383 -0.46875,0.67383 l -0.11719,-0.20508 q 0.0293,-0.23437 0.23437,-0.23437 l -0.11718,-0.23438 0.11718,-0.23437 q -0.58593,0 -0.58593,-1.02539 l 0.35156,-0.23438 z m -4.10156,0.23438 q 0.0293,0.23437 0.23437,0.23437 l 0.11719,-0.23437 -0.35156,0 z m -0.23438,0.46875 0,0.11718 q 0.0293,0.20508 0.23438,0.20508 l 0,-0.32226 -0.23438,0 z m 1.37695,0.20507 q 0,0.14649 -0.11718,0.35157 l 0.23437,0 q 0.23438,0 0.23438,-0.23438 l 0,-0.11719 -0.35157,0 z m 3.86719,0 0.23438,0 q 0.17578,0 0.35156,0.35157 l -0.23438,0.11718 -0.11718,0 q -0.23438,0 -0.23438,-0.23437 l 0,-0.23438 z m -1.14258,0.46875 q 0.23438,0.0293 0.23438,0.23438 0,0.23437 -0.23438,0.23437 l -0.11718,0 q -0.20508,0 -0.20508,-0.23437 l 0.32226,-0.23438 z m -3.31054,0.90821 0,0.11719 q 0.0586,0.23437 0.23437,0.23437 l 0.11719,-0.46875 q -0.20508,0.11719 -0.35156,0.11719 z m 1.8457,0.11719 q 0.23437,0.0293 0.23437,0.23437 l -0.23437,0.11719 q -0.23438,0 -0.23438,-0.23438 l 0.23438,-0.11718 z m -27.187501,0.23437 0,0.23438 0.351563,0 q 0,-0.23438 -0.234375,-0.23438 l -0.117188,0 z m 25.136721,0.55664 0.0879,0.23438 -0.32227,0 q 0.0293,-0.23438 0.23438,-0.23438 z m -5.83008,1.25977 0,0.11718 0.791016,0 q -0.117188,-0.20507 -0.117188,-0.35156 l -0.439453,0 q -0.234375,0.0586 -0.234375,0.23438 z m -18.164063,-0.11719 0,0.11719 q 0,0.17578 0.351563,0.35156 l 0,-0.11719 q 0,-0.17578 -0.351563,-0.35156 z m 13.828125,0.35156 0,0.46875 0.234375,-0.11719 q -0.117187,-0.23437 -0.117187,-0.35156 l -0.117188,0 z m -12.890625,0.11719 q 0,0.35156 -0.234375,0.35156 Q 77.867187,218.8882 77.75,218.8882 l 0,0.11719 q 0.0293,0.20508 0.234375,0.20508 l 0.556641,0 0,-0.55664 -0.205079,0 z m 16.992188,0.11719 0,0.23437 0.585937,0.11719 0,-0.35156 -0.585937,0 z m -5.595703,2.16797 q 0.117187,0.20507 0.117187,0.43945 l 0.351563,0 q -0.234375,-0.26367 -0.234375,-0.43945 l -0.234375,0 z m -4.101563,1.37695 0.234375,0.11719 0.117188,-0.23438 0,-0.11719 -0.117188,0 q -0.234375,0.0293 -0.234375,0.23438 z"
         style="font-style:normal;font-variant:normal;font-weight:normal;font-stretch:normal;font-family:'Sandy Bay';-inkscape-font-specification:'Sandy Bay'"
         id="path3400" />
      <path
         d="m 107.7793,205.93899 0.32226,0 q 1.72852,0.8789 1.72852,1.93359 l -0.11719,0.82031 q 0.11719,0.17578 0.11719,0.29297 -0.20508,0.0879 -0.32227,0.0879 l 0.20508,0.26367 0,0.46875 -0.84961,0.90821 0.20508,0.29296 -0.0879,0 q -0.23438,-0.0879 -0.35156,-0.0879 0,0.0879 -0.0879,0.0879 l 0.0879,0.17579 -0.20508,0.26367 0.20508,0.29297 q -0.64453,0.38086 -0.64453,0.73242 l 0.23437,0 q 0,0.17578 -0.23437,0.64453 l 0.23437,0 q 0,-0.29297 0.20508,-0.29297 0.0293,0.20508 0.20508,0.20508 l 0.23437,0 q 1.81641,-2.02149 2.25586,-2.02149 1.11328,-1.28906 2.69531,-2.57812 0.20508,0 0.84961,-0.73242 0.43946,0 0.9961,-0.64453 1.31836,-0.64453 1.61132,-0.64453 l 0.20508,0.0879 q 0.41016,-0.17579 0.87891,-0.17579 l 0.41016,0 q 0.52734,0.20508 0.76171,0.55665 l 0.20508,-0.11719 q 0.38086,0.43945 0.76172,0.46875 l 0.11719,0.17578 -0.23438,0.11719 -0.32226,-0.20508 -0.32227,0 0,0.20508 q 1.28906,0.0586 1.28906,0.26367 -0.41015,0 -0.41015,0.17578 l 0,0.0879 0.0879,0 q 0.23437,-0.0879 0.32226,-0.0879 l 0.11719,0.20508 q -0.11719,0 -0.11719,0.0879 0.32227,0 0.55665,0.35156 0,0.0879 -0.11719,0.0879 l 0.11719,0.46875 0,0.0879 q 0,0.17578 -0.55665,0.17578 l 0,0.29297 q 0.43946,0 0.67383,0.35156 -0.17578,0 -0.32226,0.29297 l 0.32226,0.35157 -0.23437,0.0879 q 0,-0.0879 -0.0879,-0.0879 l -0.11719,0.20507 q 0.14648,0 0.32227,0.26368 -0.64454,0.46875 -0.64454,0.82031 l 0.20508,-0.0879 0.11719,0.17578 0,0.38086 q 0,0.70312 -0.43945,0.82031 l -0.11719,0 -0.20508,-0.0879 0.11719,-0.17578 0,-0.20508 q -0.76172,0.14649 -0.76172,0.38086 0.20508,0.0293 0.20508,0.17578 0,0.20508 -0.0879,0.38086 0.0879,0.14649 0.0879,0.35156 l 0,0.0879 -0.0879,0 -0.32227,-0.17578 -0.23437,0.0879 q -0.20508,-0.0879 -0.32227,-0.0879 0.23438,0.17578 0.23438,0.55664 -0.14649,0 -0.23438,0.55664 0.32227,0 0.32227,0.17579 l -0.20508,0.26367 0.43945,0.46875 q -0.11719,0 -0.11719,0.0879 l -0.20507,-0.0879 -0.11719,0 q 0,0.29297 0.32226,0.29297 0,0.9375 -1.08398,1.08398 0,0.55664 -1.28906,0.55664 l 0,0.26367 q 0.52734,0.0879 0.52734,0.29297 -0.0879,0.14649 -0.0879,0.35156 0.20508,0.0293 0.20508,0.20508 l 0,0.17578 q 0,0.11719 -0.64453,0.55664 l -0.20508,0 -0.23438,-0.0879 -0.0879,0.17578 q 0.14649,0.0879 0.64453,0.0879 l 0,0.17578 q 0,0.17578 -0.32226,0.17578 l 0,0.20508 q 0.32226,0 0.32226,0.17578 l 0,0.17578 q 0,0.20508 -0.32226,0.20508 l 0.0879,0.17578 0,0.0879 q 0,0.26367 -0.64453,0.26367 l 0.11719,0.20508 0,0.17578 -0.20508,0 q -0.26367,-0.17578 -0.43946,-0.17578 -0.43945,0.11719 -0.43945,0.26367 0.64453,0 0.64453,0.26367 l 0.11719,0 q 0.99609,-0.29297 5.5957,-4.48242 0.64453,-0.52734 1.84571,-0.82031 l 0.20507,-0.29297 0.20508,0.0879 0.11719,0 q 0,-0.23438 0.55664,-0.73242 -0.23437,0 -0.23437,-0.17578 l 0.11718,-0.17578 0.20508,0.0879 0.23438,0 q 0,-0.29297 0.20507,-0.29297 l 0.11719,0.20508 q -0.11719,0 -0.11719,0.0879 0.11719,0 0.11719,0.0879 0.84961,-0.0879 0.84961,-0.26368 l 0,-0.11718 q -0.20508,0 -0.20508,-0.0879 l -0.23437,0.0879 -0.0879,0 q -0.23438,0 -0.23438,-0.17578 l 0,-0.17579 q 0.0293,-0.17578 0.23438,-0.17578 l 0.20508,0.0879 q 0.20507,-0.0879 0.32226,-0.0879 l 0,0.0879 0.20508,-0.0879 0.32227,0.17578 q 0.20507,-0.0879 0.43945,-0.0879 l 0.11719,0.17579 -0.11719,0.17578 0.55664,0.29297 0.0879,0 0,-0.0879 q 0,-0.20507 -0.43945,-0.20507 l 0,-0.0879 q 0.0586,-0.17579 0.23437,-0.17579 0,-0.14648 -0.55664,-0.55664 l 0.32227,0 0,-0.26367 q 0,-0.20508 -0.0879,-0.38086 0.26367,-0.73242 0.43945,-0.73242 0.23437,0 0.41015,0.0879 l 0.32227,0 0,0.38086 0.55664,-0.0879 0.0879,0 0,0.0879 -0.41015,0.35156 0,0.0879 q 0.32226,0 0.32226,0.29297 -0.11719,0.17578 -0.11719,0.26367 0.43946,0.14649 0.43946,0.29297 l 0,0.0879 -0.11719,0.17579 -0.20508,-0.0879 -0.23437,0 0,0.26368 q 0,0.49804 -0.52735,0.73242 -0.20508,-0.0879 -0.32226,-0.0879 -0.20508,0.0879 -0.32227,0.0879 l 0,-0.0879 q -0.64453,0.0879 -0.64453,0.20508 0.20508,0.58593 0.20508,0.61523 l -0.84961,0.46875 -0.23438,-0.0879 0,0.17578 q 0.11719,0.17578 0.11719,0.29297 -0.70312,0.35156 -0.9668,0.35156 -0.20507,-0.0879 -0.32226,-0.0879 l -0.11719,0.17578 0.11719,0.20508 -0.20508,0.0879 q -0.23437,-0.32226 -0.23437,-0.55664 l -0.43946,0 q 0.32227,0.41016 0.32227,0.73242 -0.20508,0.0879 -0.32227,0.0879 l 0.11719,0.17578 0,0.11719 q -0.64453,0.43946 -0.64453,0.52735 0.11719,0 0.11719,0.11718 l -0.23438,0.0879 -0.0879,0 0,-0.29296 q -0.23437,0.0293 -0.23437,0.20507 0.11718,0 0.11718,0.0879 -0.43945,0.0879 -0.76172,0.26368 l 0.11719,0.17578 0,0.0879 q 0,0.20508 -0.20508,0.20508 -0.20507,-0.0879 -0.43945,-0.0879 -0.14648,0.64453 -0.52734,0.64453 l -0.11719,0 0,0.43945 q 0,0.26367 -0.87891,0.38086 0,-0.20508 -0.20507,-0.20508 l -0.32227,0 0,0.11719 0.43945,0.35156 q 0,0.20508 -1.08398,0.82031 l 0,0.20508 -0.11719,0 q -0.0879,0 -0.0879,-0.0879 l -0.23437,0.0879 q -0.17579,-0.0879 -0.41016,-0.0879 l -0.23438,0.26367 q 0.11719,0.14649 0.11719,0.35157 l -0.43945,0.38085 -0.32227,0 q -0.11718,0 -0.11718,-0.0879 l -0.20508,0.0879 -0.64453,0 q -0.20508,0 -0.20508,-0.17578 l -0.55664,0.0879 q -0.23438,-0.38086 -0.64453,-0.38086 -0.52735,-0.20507 -0.52735,-0.64453 -0.55664,0 -0.55664,0.38086 l -0.32226,0 0.11718,-0.17578 0,-0.20508 q -0.43945,0.20508 -0.64453,0.20508 l 0,-0.0879 q 0,-0.32226 -0.11719,-1.58203 0.55665,-2.19727 1.28907,-2.19727 0.0586,0.17579 0.23437,0.17579 l 0.0879,0 q 0,-0.14649 0.23438,-0.35157 -0.23438,0 -0.23438,-0.20508 l 0.11719,-0.43945 q -0.20508,0 -0.20508,-0.20508 0.17578,0 0.32227,-0.82031 0.52734,0 1.17187,-1.37695 l 0.87891,-0.64453 q -0.23438,0 -0.23438,-0.17578 l 0,-0.17579 q 0.26368,-0.55664 0.55664,-0.55664 l -0.11718,-0.17578 0,-0.0879 q 0.52734,0 0.52734,-0.11719 0,-0.0879 -0.0879,-0.0879 0,-0.64453 1.08398,-2.7539 Q 119,209.68899 119,209.5425 q -0.17578,-1.28906 -0.55664,-1.28906 l -0.0879,0 -1.40625,1.08398 q -0.0879,-0.43945 -0.64453,-0.43945 0,1.52344 -0.87891,1.9043 -0.0879,-0.14649 -0.0879,-0.43946 l -0.55664,0.0879 q 0.43945,0.41016 0.43945,0.46875 l -0.32226,0.17579 -0.55664,0 q 0,0.35156 -0.32227,0.35156 l -0.0879,0 0,-0.0879 0.20508,-0.26367 -0.20508,-0.0879 q -0.76172,0.32227 -0.76172,0.90821 -0.11719,0 -0.32226,0.0879 -0.20508,-0.0879 -0.43946,-0.0879 l 0.23438,0.26367 -0.23438,0.29297 0.23438,0 0,0.26367 q -0.23438,0 -0.23438,0.38086 l -0.20507,0 0,-0.29297 -0.11719,0 q -0.20508,0.0293 -0.20508,0.20508 l 0.20508,0.26367 0,0.0879 q 0,0.38086 -0.76172,0.38086 0.23437,0.29297 0.23437,0.43945 l -0.11718,0 -0.52735,-0.17578 0.0879,-0.17578 0,-0.17578 q 0,-0.14648 -0.41015,-0.38086 l 0,0.0879 q 0.20508,0.38086 0.20508,0.55664 -0.11719,0.17578 -0.11719,0.26367 0.26367,0.20508 0.64453,0.20508 l 0,0.0879 q 0,0.17578 -0.20508,0.17578 -0.46875,-0.26367 -0.76172,-0.26367 0,0.0879 -0.0879,0.0879 0,0.35157 0.64453,0.35157 l 0,0.29296 q -0.20508,0 -0.55664,0.17579 -0.17578,-0.0879 -0.41015,-0.0879 0,0.35157 -0.32227,0.35157 0,-0.0879 -0.11719,-0.0879 l 0,0.46875 0.11719,0.17578 -0.23437,0.0879 q -0.20508,0 -0.20508,-0.35156 l -0.11719,0 q -0.20508,0.0293 -0.20508,0.17578 l 0,0.29297 0.20508,0 0,0.0879 q 0,0.17578 -0.20508,0.17578 l -0.23437,-0.0879 q 0,0.20508 -0.0879,0.35156 0.20507,0 0.20507,0.0879 -0.11718,0.20508 -0.11718,0.29297 l -0.41016,-0.0879 q -0.32227,0 -0.32227,0.26367 l -0.43945,0 q -0.20508,0 -0.20508,-0.35156 l -0.11718,0 0,0.17578 -0.32227,0 -0.20508,-0.0879 0,0.17578 0.41016,0 0,0.99609 -0.0879,0 -0.32227,-0.17578 0.0879,0.64453 0,0.17578 q 0,0.20508 -0.20508,0.20508 l -0.20507,-0.0879 0,0.0879 q 0.0879,0.17578 0.0879,0.26367 -0.67383,0.49805 -0.9668,1.11329 0.14648,0 0.32227,0.26367 l 0,0.0879 q -0.14649,0 -0.64454,0.29297 l 0.11719,0.17578 q -0.17578,0 -0.32226,0.26367 0.20507,0.0293 0.20507,0.20508 l -0.20507,0.0879 q -0.20508,-0.0879 -0.43946,-0.0879 l 0,0.35156 q 0.43946,0 0.43946,0.17578 -0.26368,0.20508 -0.43946,0.20508 l 0,0.55664 q 0,0.17578 -0.20507,0.17578 0,-0.17578 -0.23438,-0.17578 -0.11719,0.43945 -0.32227,0.43945 l -0.0879,0 q -0.23437,0 -0.23437,-0.17578 l 0,-0.0879 0.11719,-0.17578 -0.20508,0 q 0,0.26367 -0.23438,0.26367 l -0.0879,0 0,-0.26367 -0.11718,0 q -0.26368,0.17578 -0.43946,0.17578 -0.49804,-0.29297 -1.08398,-0.29297 l 0,-0.17578 0.11719,0 0.20507,0.0879 0,-0.26367 q -0.52734,0 -0.52734,-0.17578 l 0,-0.38086 0.11719,-0.55664 q -0.11719,-0.17578 -0.11719,-0.26367 0.17578,-0.20508 0.84961,-1.9336 0.67383,-0.29296 0.76172,-0.64453 l 0,-0.0879 -0.11719,0 0,0.17578 q -0.20508,0 -0.20508,-0.17578 0,-0.55664 0.43946,-0.55664 l -0.11719,-0.46875 q 1.08398,-2.25586 1.08398,-2.46094 l 0.20508,0 q -0.0879,-0.17578 -0.0879,-0.29296 0.17578,-0.43946 0.52734,-0.43946 l -0.11718,-0.46875 0,-0.0879 0.23437,0 -0.11719,-0.64453 q 0.17578,-0.0879 0.43946,-0.0879 l -0.23438,-0.29297 q 0.0879,-0.35156 0.23438,-0.35156 l -0.11719,-0.17578 q 0,-0.14649 0.43945,-0.38086 l 0.52735,0.26367 q 0,-0.0879 0.11718,-0.0879 -0.26367,-0.70313 -0.43945,-0.9082 0.11719,-0.26368 0.20508,-0.26368 l -0.0879,-0.20507 q 0.0586,-1.28907 0.76172,-1.28907 l -0.11719,-0.17578 0,-0.17578 q 0,-0.17578 0.84961,-0.82031 l 0,-0.0879 -0.41016,-0.46875 q 0.35156,-0.9375 1.17188,-1.75781 z m 7.76367,2.84179 0,0.20508 0.43945,0.0879 0.0879,-0.17578 -0.20508,-0.11719 -0.32226,0 z m 5.06836,0.11719 -0.11719,0.17578 0.32227,0 q 0,-0.17578 -0.20508,-0.17578 z m -7.00195,1.46484 0.20507,0.0879 0.11719,0 q 0.41016,-0.17578 0.41016,-0.55664 l -0.0879,0 q -0.64453,0.29297 -0.64453,0.46875 z m 16.46484,2.57813 0.32226,0 0,0.17578 0.23438,-0.0879 q 0.52734,0.38086 0.52734,0.43945 -0.26367,0.64453 -0.84961,0.64453 l -0.43945,-0.26367 -0.32227,0 q 0,0.26367 -0.20507,0.26367 l -0.11719,-0.17578 q 0.23437,-0.46875 0.32226,-0.46875 l -0.11718,-0.17578 0,-0.0879 q 0.20508,0 0.64453,0.17578 l 0,-0.43945 z m -1.28906,0.26367 0.32226,0 0,0.0879 q 0,0.17578 -0.20508,0.17578 l -0.11718,-0.17578 0,-0.0879 z m -21.85547,0.46875 q 0.0879,0 0.0879,0.0879 0.17578,-0.0879 0.55664,-0.0879 l 0,-0.20508 -0.43945,0 q -0.20508,0.0293 -0.20508,0.20508 z m 2.57812,0.73242 -0.11718,0.17578 q 0.32226,0 0.32226,0.38086 l 0.32227,0 -0.52735,-0.55664 z m -2.90039,0.17578 q 0,0.14649 0.52735,0.26368 l 0.11718,-0.17579 q 0,-0.17578 -0.32226,-0.17578 -0.23438,0.0879 -0.32227,0.0879 z m 7.85156,4.13086 0.11719,0.17578 -0.23437,0.0879 -0.0879,0 0,-0.0879 q 0.0293,-0.17578 0.20507,-0.17578 z m 0.76172,0.26367 0,0.29297 0.20508,0 0,-0.29297 -0.20508,0 z m -0.32226,1.20118 -0.11719,0.17578 q 0.23438,0 0.43945,0.11719 0.20508,-0.11719 0.32227,-0.11719 l -0.11719,-0.17578 -0.20508,0.0879 q -0.20507,-0.0879 -0.32226,-0.0879 z m 7.20703,0.55664 0.32226,0 0,0.26367 -0.32226,0 0,-0.26367 z m -6.88477,0.26367 -0.11718,0.20508 0.23437,0.0879 0.0879,-0.17578 -0.20508,-0.11719 z m 0.52735,2.57812 q 0.0293,0.17579 0.23437,0.17579 l 0,-0.35157 q -0.23437,0.0293 -0.23437,0.17578 z"
         style="font-style:normal;font-variant:normal;font-weight:normal;font-stretch:normal;font-family:'Sandy Bay';-inkscape-font-specification:'Sandy Bay'"
         id="path3402" />
      <path
         d="m 139.53711,206.17336 0.23437,0 q 0.26368,0 0.46875,0.11719 0.20508,-0.11719 0.46875,-0.11719 l 0.11719,0 q 0.26367,0 0.46875,0.11719 0.23438,-0.11719 0.35156,-0.11719 l 0.23438,0.11719 0.23437,-0.11719 0.23438,0.11719 0.23437,-0.11719 q 0.35157,0.11719 0.35157,0.23438 0.11718,0 0.11718,-0.11719 1.9336,0.41015 3.86719,1.64062 l 0.9375,1.05469 q -0.29297,0.58594 -0.46875,0.58594 -0.46875,-0.23438 -0.46875,-0.58594 l -0.23437,0.11719 q 0,-0.29297 -1.05469,-0.35156 l -0.23438,0.11718 q -0.67382,-0.0879 -1.05468,-0.58593 0,0.35156 -0.23438,0.35156 -0.23437,0 -0.23437,-0.23438 l -0.58594,0.35157 q 0,-0.23438 -0.23438,-0.23438 l -0.11718,0 q 0,0.35156 -0.23438,0.35156 -0.38086,-0.23437 -0.58594,-0.23437 0,0.38086 -1.52343,0.58594 -0.23438,-0.11719 -0.35157,-0.11719 0,0.20508 -0.9375,0.82031 l -0.23437,-0.11719 q -0.11719,0 -0.70313,0.46875 l -0.70312,0 -0.35156,-0.23437 -0.23438,0 0,0.58594 q -0.79101,0.43945 -0.82031,0.9375 l -0.11719,0 q -0.11719,0 -0.11719,-0.11719 -0.11718,0 -0.82031,0.82031 l -0.23437,0.11719 q -0.23438,-0.11719 -0.35157,-0.11719 l 0,0.11719 q 0.11719,0.23437 0.11719,0.35156 -0.70312,0.9375 -1.05469,0.9375 -0.0879,0 -0.58593,0.70313 -0.35157,0 -0.35157,0.23437 l 0,0.11719 q 0.35157,0 0.35157,0.23437 l 0,0.11719 q -0.70313,0 -0.70313,0.82031 0.11719,0.23438 0.11719,0.35157 -0.35156,0 -0.58594,1.28906 0,0.11719 0.11719,0.35156 -0.11719,0.23438 -0.11719,0.35156 0.23438,1.23047 1.17188,1.875 l 0.11718,0 q 0.38086,0 0.58594,-0.11718 l 0.70313,0.11718 0.58593,0 q 0.29297,-0.23437 0.46875,-0.23437 0.23438,0.11719 0.35157,0.11719 0.0293,-0.29297 2.10937,-0.70313 0,-0.11719 1.52344,-0.9375 l 0.11719,0 0.23437,0.11719 q 0.17578,-0.46875 0.35156,-0.46875 l 0.58594,0 q 0,-0.52735 1.40625,-1.64063 0.35156,0 0.35156,0.46875 l 0.35157,-0.23437 0.23437,0.11719 0,-0.11719 q -0.11719,-0.23438 -0.11719,-0.35156 0.35157,0 0.58594,-1.28907 0.58594,0 0.58594,-0.58593 0.11719,0 1.05469,-1.05469 0.20507,0 0.70312,-0.58594 l 0.23438,0 0.35156,0.23438 q 0,0.23437 -0.23438,0.82031 l 0.11719,0.70312 0,0.35157 0.23438,0 0,-0.23438 0.11718,0 0.58594,0.11719 q 0,-0.9375 0.58594,-0.9375 0.0293,-0.23438 0.23437,-0.23438 l 0.11719,0.23438 q -0.11719,0 -0.11719,0.11719 l 0.35157,0 q 0.23437,0 0.23437,-0.23438 -0.23437,-0.38086 -0.23437,-0.70312 l 0.23437,0 -0.11719,-0.23438 0,-0.9375 0.11719,-0.23437 q -0.82031,-0.20508 -0.82031,-0.46875 0,-0.17579 0.35156,-0.35157 l 0.11719,0 0.70312,0.58594 q 0.23438,-0.11719 0.35157,-0.11719 l -0.11719,-0.23437 0.46875,0 0.23437,0.11719 q 0,-0.35157 0.35157,-0.35157 0.23437,0.11719 0.35156,0.11719 l 0.11719,-0.23437 q -0.35157,0 -0.35157,-0.23438 0.0293,-0.23437 0.23438,-0.23437 l 0.11719,0 0,0.23437 0.11718,0 0,-0.23437 q -0.11718,0 -0.11718,-0.11719 l 0.23437,-0.11719 0.11719,0 0.23437,0.11719 q 0.0293,-0.23438 0.23438,-0.23438 l 0.46875,0.23438 0,-0.58594 0.46875,0.35156 0,-0.23437 -0.11719,-0.23438 0.23438,-0.11718 q 0.70312,0 0.70312,0.82031 l -0.35156,0 q 0.35156,0.46875 0.35156,1.05469 l 0.23438,-0.11719 0.11718,0 0,1.05469 -1.64062,2.69531 q 0,0.55664 -1.28906,1.52344 l 0.11718,0.23437 q -0.8789,1.23047 -1.99218,3.28125 -0.55664,1.05469 -0.82032,1.05469 l 0,0.11719 0.58594,0.11718 q 0,-0.20508 0.82031,-0.35156 0.20508,0.11719 0.46875,0.11719 0,-0.23438 1.875,-0.70313 0,-0.11718 1.75782,-0.70312 0,-0.11719 0.46875,-0.35156 l 0.23437,0.11718 q 0.41016,-0.82031 1.05469,-0.82031 0.64453,0.23438 0.70312,0.23438 l -0.11718,-0.23438 0,-0.23437 0.58593,0 0,0.35156 0.11719,0 q 0.23438,0 0.23438,-0.23438 -0.23438,-0.11718 -0.35157,-0.11718 l 0,-0.23438 0.11719,0 q 0.11719,0 0.11719,0.11719 l 0.23437,-0.11719 0.11719,0 q 0.49805,0.58594 0.9375,0.58594 l 0.58594,-0.46875 0.23437,0.35156 0,0.11719 q 0,0.17578 -0.46875,0.35156 0.0879,0.70313 0.35157,0.70313 l 0,0.11718 -0.11719,0.23438 -0.23438,-0.11719 -0.11718,0 q 0,0.43945 -0.82032,0.58594 l 0,0.35156 -0.23437,0 0,-0.23437 -0.11719,0 q 0,0.46875 -0.82031,0.46875 0,-0.23438 -0.23438,-0.23438 0,0.23438 -0.23437,0.23438 l -0.46875,-0.35157 -0.11719,0 q 0,0.58594 0.70313,0.58594 l 0,0.23438 -0.11719,0 q -0.11719,0 -0.11719,-0.11719 -0.35156,0 -0.35156,0.35156 l -0.23438,0 0,-0.23437 -0.11718,0 q 0,0.29296 -0.82032,0.9375 l 0.23438,0.35156 q 0,0.17578 -0.35156,0.35156 -0.23438,0 -0.23438,-0.35156 l -0.23437,0.11719 -0.35157,-0.23438 0,0.23438 0.11719,0.23437 q -0.32226,0 -0.9375,0.58594 l -0.35156,0 -0.23438,-0.11719 q 0,0.11719 -0.11718,0.11719 0,-0.11719 -0.11719,-0.11719 l 0.11719,-0.23437 -0.11719,-0.23438 0.23437,-0.11719 q -0.17578,-0.46875 -0.35156,-0.46875 0,0.35157 -0.23437,0.35157 l -0.23438,0 -0.23437,-0.11719 0,0.46875 0.11718,0 0.23438,-0.11719 0.23437,0.35156 -0.23437,0.11719 q 0,-0.23437 -0.23438,-0.23437 l 0,0.23437 0.35157,0.46875 q 0,0.23438 -0.46875,0.23438 l 0.11718,0.23437 -0.23437,0.11719 -0.23438,0 q -0.23437,0 -0.23437,-0.23438 l 0,-0.46875 0.23437,0 0.23438,0.11719 0.11719,-0.23437 0,-0.23438 -0.23438,0 0,-0.11719 0.11719,-0.23437 -0.46875,0 q 0,0.43945 -0.70313,0.82031 -0.11718,0 -0.11718,-0.11719 l -0.23438,0.11719 -0.35156,0 0,0.23438 -0.46875,0 -0.23438,-0.11719 q 0,0.35156 -0.23437,0.35156 0,-0.23437 -0.23438,-0.23437 0,0.35156 -0.35156,0.35156 -1.25976,-0.58594 -1.75781,-1.05469 0.11719,-0.20508 0.11719,-0.46875 -0.20508,0 -0.58594,-0.70312 0,-0.23438 0.46875,-0.23438 l 0,-0.11719 -0.23438,-0.35156 q 0.11719,-0.20508 0.11719,-0.46875 l -0.35156,0.23438 q -0.52734,-0.58594 -0.82031,-0.58594 l 0,-0.46875 0.35156,0 0,-0.11719 -0.82031,-0.58594 q -0.46875,0.11719 -0.82032,0.11719 l 0,0.23438 0.11719,0.58593 q -0.26367,0 -0.82031,0.35157 l 0,0.35156 -0.23438,0.11719 q -0.11718,-0.23438 -0.11718,-0.35157 l -0.11719,0 q 0,0.58594 -0.58594,0.58594 l 0.11719,0.23438 q 0,0.20507 -0.58594,0.35156 l -0.35156,0 0,0.11719 -0.23438,0 q 0,-0.46875 -0.23437,-0.46875 0,0.11718 -0.11719,0.11718 l 0.11719,0.23438 0,0.11719 -0.46875,0 -0.35156,-0.23438 -0.11719,0 0,0.35156 -0.11719,0 -0.35156,-0.23437 -0.46875,0 -0.23438,0.11719 q -0.23437,-0.29297 -0.23437,-0.58594 l -0.23438,0 q 0,0.35156 -0.23437,0.35156 -0.23438,-0.29297 -0.23438,-0.46875 l -0.23437,0 0.23437,0.35156 0,0.11719 q -0.26367,0 -0.35156,0.46875 -0.41015,0 -0.82031,0.58594 0.58594,0.0293 0.58594,0.35156 -0.38086,0.23438 -0.58594,0.23438 l -0.70313,-0.46875 0,-0.11719 0.35157,0 q 0,-0.23438 -0.35157,-0.23438 l -0.58593,0.35157 q -0.55664,-0.52735 -0.70313,-0.9375 -0.11719,0 -0.11719,-0.11719 l -0.23437,0.11719 q -0.38086,0 -1.28906,-1.64063 -0.32227,0 -1.75782,-1.99219 l 0.11719,-0.23437 0,-0.11719 -0.35156,0.23438 -0.11719,-0.23438 0,-0.11719 0.23438,0 0,-0.23437 q 0,-0.23438 -0.23438,-0.23438 -0.23437,0 -0.23437,0.35157 -0.23438,0 -0.23438,-0.23438 l 0.11719,-0.23437 q -0.29297,-0.23438 -0.46875,-0.23438 l 0,-0.35156 0.23437,0 -0.46875,-0.58594 0.23438,-0.11719 -0.11719,-0.23437 q 0,-0.23438 0.35156,-0.23438 l 0,-0.11718 q -0.52734,0 -0.82031,-0.46875 0.29297,-0.58594 0.82031,-0.58594 l 0,-0.23438 -0.35156,0 0,-0.11718 q 0.0293,-0.23438 0.23438,-0.23438 0.20507,0 0.35156,0.58594 l 0.23437,-0.11719 q 0.20508,0.11719 0.46875,0.11719 l 0,-0.58594 q 0,-0.23437 -0.58593,-0.23437 l 0.23437,-0.35157 0,-0.11718 -0.23437,-0.35157 q 0,-1.40625 0.82031,-1.40625 0,-0.35156 0.35156,-0.35156 l 0,-0.58594 q 0.23438,-0.29297 0.23438,-0.46875 l 0.11718,0 q 0.26368,0 0.35157,0.58594 -0.11719,0 -0.11719,0.11719 l -0.23438,-0.11719 -0.11718,0 0,0.35156 q 0.11718,0 0.35156,0.11719 0.0293,-0.23437 0.23437,-0.23437 l 0.23438,0.35156 -0.23438,0.35156 0,0.11719 0.23438,-0.11719 0.23437,0.11719 0.35157,-0.58594 0,-0.23437 -0.11719,-0.23438 q 0.41016,0 0.58594,-1.17187 0.11718,0 0.11718,-0.11719 l 0,-0.70313 0.23438,0 0,0.11719 -0.11719,0.23438 0.23438,0 q 0,-1.23047 1.40625,-1.64063 l 0.23437,0.11719 q 0,-0.11719 0.58594,-0.58594 0.17578,0.46875 0.35156,0.46875 l 0,-0.11719 -0.11719,-0.23437 0.23438,-0.11719 0.35156,0.23438 0.11719,0 q 0,-0.9375 1.64062,-0.9375 l 0.82032,0 0.35156,-0.23438 z m -4.10156,1.64063 0,0.23437 q 0.17578,0 0.35156,-0.35156 l 0,-0.11719 -0.11719,0 q -0.23437,0.0293 -0.23437,0.23438 z m -1.17188,0.23437 0,0.23438 0.58594,0 0,-0.11719 -0.58594,-0.11719 z m 3.04688,1.40625 0,0.11719 0.35156,0 0,-0.35156 -0.11719,0 q -0.23437,0.0293 -0.23437,0.23437 z m -3.63282,-0.11719 q 0,0.17578 -0.23437,0.46875 l 0.11719,0 q 0.23437,0 0.23437,-0.35156 l 0,-0.11719 -0.11719,0 z m 3.98438,0.35157 0,0.11718 q 0,0.17578 0.35156,0.35157 l 0,-0.23438 q 0,-0.23437 -0.23437,-0.23437 l -0.11719,0 z m -5.15625,0.11718 0.11719,0 0,0.35157 -0.11719,0 q -0.23438,0 -0.23438,-0.23438 l 0.23438,-0.11719 z m 17.34375,2.57813 q 0.0293,0.23437 0.23437,0.23437 l 0.23438,0 q 0,-0.23437 -0.23438,-0.23437 l -0.23437,0 z m 0.35156,0.82031 0,0.23438 q 0.70313,0.14648 0.70313,0.58593 l 0.11718,0 q 0.70313,-0.32226 0.70313,-0.46875 l -1.05469,-0.46875 q -0.20508,0.11719 -0.46875,0.11719 z m -18.63281,0.11719 q 0,0.11719 -0.11719,0.11719 l 0.11719,0.23437 0,0.11719 -0.23438,0.35156 0,0.23438 q 0.23438,0 0.46875,-0.9375 l -0.23437,-0.11719 z m 0.35156,0.70312 -0.11719,0.23438 0.23438,0.11719 0.11719,-0.23438 -0.23438,-0.11719 z m -1.17187,0.23438 0,0.35156 0.23437,0 0,-0.11719 q 0,-0.23437 -0.23437,-0.23437 z m 15.11718,1.75781 q -0.23437,-0.11719 -0.35156,-0.11719 0,0.11719 -0.11719,0.11719 0.11719,0.20508 0.11719,0.58594 l 0.23438,0 q 0.11718,0 0.11718,-0.11719 l 0.23438,0.11719 0.35156,0 q 0,-0.46875 0.35156,-0.82031 l -0.23437,-0.11719 -0.70313,0.35156 z m -15.46875,-0.11719 0,0.23438 0.35157,0 0,-0.11719 q -0.11719,0 -0.35157,-0.11719 z m 16.875,1.17188 0,0.35156 0.11719,0 q 0,-0.11719 0.11719,-0.35156 l -0.23438,0 z m 0.58594,0 0,0.35156 0.70313,0 q 0,-0.20508 -0.70313,-0.35156 z m 11.71875,-0.11719 0.11719,0 q 0.23437,0.0293 0.23437,0.23438 l -0.23437,0.11718 -0.11719,0 0,-0.35156 z m 1.52344,0.9375 0.11719,0.23438 -0.23438,0.11718 -0.11719,-0.23437 0.23438,-0.11719 z m -12.53906,0.46875 -0.11719,0.23438 0.35156,0 q 0,-0.23438 -0.23437,-0.23438 z m 9.49218,0.23438 q -0.20507,0.82031 -0.70312,0.82031 0.0293,0.23437 0.23437,0.23437 l 0.35157,0 0,-0.23437 0.11718,0 0,0.23437 0.35157,0 0,-0.35156 q -0.23438,-0.26367 -0.23438,-0.70312 l -0.11719,0 z m -10.3125,0.11718 -0.11718,0.23438 0.35156,0 q 0,-0.23438 -0.23438,-0.23438 z m 12.07032,-0.11718 0,0.70312 q 0,0.23438 -0.23438,0.23438 l -0.11719,0 q -0.23437,0 -0.23437,-0.23438 0,-0.29297 0.46875,-0.35156 l -0.11719,-0.23438 0.23438,-0.11718 z m -12.07032,0.70312 -0.23437,0.70313 q 0.23437,0 0.23437,0.58593 0.20508,-0.11718 0.46875,-0.11718 -0.23437,-1.17188 -0.46875,-1.17188 z m -2.57812,0.70313 0,0.11718 q 0.23437,0 0.23437,0.11719 l 0.23438,-0.11719 0.23437,0 0.46875,0.35157 q 0,-0.35157 0.46875,-0.35157 l 0,-0.35156 -0.11718,0 q -0.23438,0.11719 -0.35157,0.11719 0,-0.17578 -0.46875,-0.46875 -0.14648,0 -0.58593,0.58594 l -0.11719,0 z m 15,-0.70313 0.11719,0.23438 -0.23438,0.11718 -0.11719,-0.23437 0.23438,-0.11719 z m -16.28906,0.70313 0.11718,0 0,0.11718 q 0,0.23438 -0.23437,0.23438 l -0.11719,0 0,-0.11719 q 0.0293,-0.23437 0.23438,-0.23437 z m -1.64063,0.35156 0,0.35156 0.11719,0 q 0.29297,-0.23437 0.46875,-0.23437 l -0.11719,-0.23438 q -0.20508,0.11719 -0.46875,0.11719 z m 10.89844,0.35156 -0.11719,0 0,-0.23437 -0.23437,0 q -0.17578,0 -0.46875,0.46875 0.0293,0.23437 0.23437,0.23437 l 0.11719,0 q 0,-0.35156 0.23437,-0.35156 l 0.23438,0 0,0.11719 -0.11719,0.23437 0.23438,0.11719 q 0,-0.58594 0.58593,-0.58594 l 0.23438,0.11719 0.11719,0 0,-0.11719 q -0.23438,0 -0.23438,-0.35156 l -0.35156,0 -0.46875,0.35156 z m 0.11719,1.52344 q 0.0293,0.23437 0.23437,0.23437 l 0.11719,-0.23437 -0.35156,0 z m -3.75,0.35156 0,0.35156 q 0.35156,0 0.35156,0.46875 l 0.23437,0 q -0.20507,-0.82031 -0.46875,-0.82031 l -0.11718,0 z m 4.10156,0.46875 q 0.23437,0.0293 0.23437,0.23438 l 0,0.11718 -0.23437,0 0,-0.35156 z"
         style="font-style:normal;font-variant:normal;font-weight:normal;font-stretch:normal;font-family:'Sandy Bay';-inkscape-font-specification:'Sandy Bay'"
         id="path3404" />
      <path
         d="m 173.28711,206.7593 q 0,0.32226 0.73242,0.41015 0.0293,-0.29296 0.26367,-0.29296 l 0.14649,0.29296 0,0.14649 -0.29297,0.41015 0,0.14649 0.73242,-0.14649 q 0.41016,0.70313 0.9668,0.70313 l 0.14648,0 0.29297,-0.11719 q 0.26367,0.87891 0.26367,0.9668 -0.11719,0 -0.11719,0.14648 -0.8496,0 -0.8496,-0.41015 l -0.29297,0 q 0,0.43945 -1.25977,0.84961 l -0.73242,0 q -0.26367,0 -0.26367,-0.29297 0.14648,-0.23438 0.14648,-0.55664 l -0.84961,0 0,0.14648 0.41016,0.55664 q 0,0.9375 -1.55274,1.11328 0,0.17578 -0.99609,0.84961 -0.26367,-0.11718 -0.41016,-0.11718 0,0.26367 -0.29296,0.26367 l -0.14649,0 0.14649,-0.26367 0,-0.14649 -0.14649,0 q 0,0.41016 -0.41016,0.41016 l 0.14649,0.29297 q -1.31836,1.25976 -3.25195,1.8457 0,0.79101 -0.84961,1.11328 -0.76172,0.11719 -0.9961,0.70313 -0.41015,0 -0.41015,0.29296 0.11718,0 0.11718,0.14649 l -1.69921,1.8457 0.14648,0.26367 q -1.17188,1.875 -1.81641,2.69532 l 0,1.40625 q -0.73242,0.73242 -0.99609,1.40625 -0.14648,0 -1.14258,0.29296 l 0,-0.14648 -0.26367,0.14648 -0.29297,0 q -1.20117,-0.73242 -1.69922,-1.40625 l 0,-0.29296 q 0,-0.84961 0.55664,-2.25586 l -0.14648,-0.55664 q 0.20508,0 0.99609,-1.14258 0.67383,-1.14258 1.69922,-2.40235 -0.14648,-0.26367 -0.14648,-0.41015 1.37695,-1.96289 1.69922,-2.98828 1.20117,-1.69922 1.28906,-1.69922 0.26367,0 0.26367,0.43945 l 0.29297,0 q 1.25976,-0.79101 1.25976,-0.99609 l 0.70313,0.14648 0.29297,-0.14648 q 0.0586,0.29297 0.29297,0.29297 0.41015,0 0.41015,-0.9961 l 0.43946,0 0.26367,0.14649 0.14648,-0.29297 0,-0.14649 -0.26367,-0.41015 0,-0.29297 3.10547,-0.70313 0,0.14649 q 0.67383,-0.17578 1.55273,-0.70313 0.61524,0.55664 0.70313,0.55664 0,-0.58593 0.84961,-0.99609 l 0.14648,0 -0.14648,0.29297 0,0.14648 0.14648,0 0.9668,-0.70312 z m 5.24414,1.11328 q 1.25977,0.55664 1.25977,0.70312 l 0,0.29297 -0.11719,0 -0.58594,-0.43945 -0.14648,0 q -0.49805,0.84961 -1.96289,0.84961 l -0.29297,-0.41016 0,-0.43945 1.43554,-0.11719 0.26368,0.11719 q 0,-0.55664 0.14648,-0.55664 z m 1.99219,0.29297 q 0.17578,0 0.41015,0.41015 l -0.29297,0.14649 -0.11718,0 q -0.29297,0 -0.29297,-0.29297 0.0293,-0.26367 0.29297,-0.26367 z m -13.00782,0.41015 q -0.14648,0.29297 -0.14648,0.43946 0.14648,0.26367 0.14648,0.41015 l 0.26368,0 q 0,-0.32226 0.14648,-0.55664 l -0.41016,-0.29297 z m 4.21875,0.58594 0,0.41016 0.43946,0 0,-0.14649 q 0,-0.26367 -0.29297,-0.26367 l -0.14649,0 z m -1.69921,0.26367 0,0.29297 q 0.43945,0 0.43945,0.14649 l 0.29297,-0.14649 0.26367,0 0.43945,0.29297 q 0,-0.17578 0.14649,-0.43945 -0.84961,0 -0.84961,-0.29297 -0.23438,0.14648 -0.73242,0.14648 z m -4.36524,0.9961 0.14649,0 q 0.26367,0 0.26367,-0.29297 l -0.11719,0 q -0.29297,0.0586 -0.29297,0.29297 z"
         style="font-style:normal;font-variant:normal;font-weight:normal;font-stretch:normal;font-family:'Sandy Bay';-inkscape-font-specification:'Sandy Bay'"
         id="path3406" />
    </g>
  </g>
  <g
     transform="translate(0.80688633,-7.93945)"
     style="display:inline"
     id="layer2">
    <path
       id="path4326"
       d=""
       style="opacity:1;fill:#fad48b;fill-opacity:1;stroke:#fad48b;stroke-width:0;stroke-miterlimit:4;stroke-dasharray:none;stroke-dashoffset:0;stroke-opacity:1" />
    <g
       id="g4434">
      <path
         style="opacity:1;fill:#fad48b;fill-opacity:1;stroke:#fad48b;stroke-width:0;stroke-miterlimit:4;stroke-dasharray:none;stroke-dashoffset:0;stroke-opacity:1"
         id="path3481"
         d="m 115.92891,49.801061 c -2.13253,3.612705 -5.57046,6.304167 -9.29149,8.155265 -1.54401,0.768096 -3.17199,1.354313 -4.75799,2.031469 -7.890457,2.775806 -16.220936,3.964776 -24.568749,4.002552 -6.325547,0.02862 -8.430335,-0.279138 -14.616075,-0.797213 -12.56428,-1.375522 -25.022332,-3.540778 -37.527107,-5.354674 -2.595175,-0.376588 -5.217066,-0.643732 -7.842746,-0.622103 -2.062805,0.01699 -4.127987,0.137127 -6.189074,0.215946 -2.6211144,0.220056 -5.3118502,-0.241221 -7.8986006,0.363887 -0.3476052,0.08131 -0.6806974,0.215444 -1.0210461,0.323167 -0.1318915,0.05026 -1.83616295,0.895754 -1.25025661,1.30301 0.0601975,0.04184 0.13938041,0.0464 0.21101011,0.06201 0.1677156,0.03655 0.3374987,0.06287 0.506248,0.09431 8.9311452,1.789326 17.9142172,3.31525 26.8964952,4.822404 9.638486,1.553355 19.270428,3.164473 28.960367,4.372413 5.390553,0.671983 9.57032,1.139214 14.947643,1.314881 1.939766,0.06337 3.881599,-0.0051 5.822398,-0.0077 2.360686,-0.08375 4.721681,-0.159229 7.082059,-0.251243 6.912588,-0.269474 8.072049,-0.379927 15.023974,-0.590653 6.66083,-0.201901 13.32015,-0.261816 19.98339,-0.282096 4.64035,0.04646 2.63469,-0.01346 6.01839,0.122861 0.14546,-0.05233 0.88558,2.004812 0.74011,2.057146 l 0,0 c -3.21644,0.877703 -1.29418,0.444133 -5.81456,1.067046 -1.86876,0.135755 -3.73535,0.30575 -5.60629,0.407266 -3.24554,0.1761 -11.08983,0.399182 -14.21065,0.49569 -7.420076,0.229458 -14.840122,0.46398 -22.262022,0.628039 -5.19997,0.03969 -9.906628,0.149291 -15.091163,-0.08798 -12.599926,-0.576607 -25.10627,-2.493727 -37.421376,-5.168753 -2.885225,-0.70321 -5.782383,-1.359151 -8.655675,-2.10963 -2.229875,-0.582423 -4.437378,-1.247526 -6.651167,-1.88838 -3.6330843,-1.051717 -7.2918323,-2.09206 -10.81433963,-3.479668 -0.64520045,-0.435118 -1.09392292,-0.565138 -1.34638848,-1.354768 -0.31161559,-0.974633 0.21834536,-1.90905 0.9486556,-2.516133 0.302387,-0.251364 0.66002498,-0.427615 0.99003751,-0.641422 0.4070087,-0.166611 0.8005411,-0.370963 1.2210263,-0.499833 2.6087258,-0.799521 5.4020144,-0.354811 8.0748687,-0.639966 5.218615,-0.253693 10.445336,-0.709902 15.671065,-0.360209 1.541909,0.121054 3.085682,0.22034 4.625728,0.363163 3.605532,0.334375 8.374757,0.892812 11.911818,1.354266 11.381798,1.484896 2.502151,0.429071 14.123633,1.994146 2.351629,0.316695 4.708845,0.590418 7.063267,0.885628 4.213691,0.39891 8.172439,0.877488 12.395468,0.919465 8.081915,0.08033 16.115414,-1.008467 23.888614,-3.223261 1.56546,-0.518005 3.1614,-0.951695 4.6964,-1.554015 3.74958,-1.471295 6.88106,-3.699867 9.56189,-6.672724 0.0528,-0.104101 1.52499,0.642293 1.47221,0.746394 z" />
      <path
         style="fill:none;fill-rule:evenodd;stroke:#fad48b;stroke-width:1px;stroke-linecap:butt;stroke-linejoin:miter;stroke-opacity:0"
         d="m 113.13708,48.701666 -2.0203,3.914341 1.26269,1.010153 3.91434,-3.977476 z"
         id="path3483" />
      <path
         style="opacity:1;fill:#fad48b;fill-opacity:1;stroke:#fad48b;stroke-width:0;stroke-miterlimit:4;stroke-dasharray:none;stroke-dashoffset:0;stroke-opacity:1"
         d="m 113.16865,48.701666 c 0,0 0.59978,1.357392 -1.32582,3.125159 -1.92561,1.767767 0.91545,0 0.91545,0 l 1.98874,-2.367545 z"
         id="path4311" />
    </g>
  </g>
</svg>
